<svg xmlns="http://www.w3.org/2000/svg" id="Calque_1" viewBox="0 0 1851 1031.7">
  <path fill="none" d="M1287.4 769.6l55.4-198.1-186.5 141.3z"/>
  <path fill="none" stroke="#999" stroke-miterlimit="10" d="M1287.4 769.6l55.4-198.1-186.5 141.3z"/>
  <path fill="none" d="M873.7 350.1l43.7 142.7 145.7-84.5z"/>
  <path fill="none" stroke="#999" stroke-miterlimit="10" d="M873.7 350.1l43.7 142.7 145.7-84.5z"/>
  <path fill="none" d="M677.1 731.7l123.8-23.3-30.6-259.3z"/>
  <path fill="none" stroke="#999" stroke-miterlimit="10" d="M677.1 731.7l123.8-23.3-30.6-259.3z"/>
  <path fill="none" d="M800.9 708.4l103.4-81.6-134-177.7z"/>
  <path fill="none" stroke="#999" stroke-miterlimit="10" d="M800.9 708.4l103.4-81.6-134-177.7z"/>
  <path fill="none" d="M873.7 350.1l43.7 142.7-147.1-43.7z"/>
  <path fill="none" stroke="#999" stroke-miterlimit="10" d="M873.7 350.1l43.7 142.7-147.1-43.7z"/>
  <path fill="none" d="M904.3 626.8l13.1-134-147.1-43.7z"/>
  <path fill="none" stroke="#999" stroke-miterlimit="10" d="M904.3 626.8l13.1-134-147.1-43.7z"/>
  <path fill="none" d="M677.1 731.7l93.2-282.6-115.1-2.9z"/>
  <path fill="none" stroke="#999" stroke-miterlimit="10" d="M677.1 731.7l93.2-282.6-115.1-2.9z"/>
  <path fill="none" d="M465.8 510.3l189.4-64.1-119.5-81.6z"/>
  <path fill="none" stroke="#999" stroke-miterlimit="10" d="M465.8 510.3l189.4-64.1-119.5-81.6z"/>
  <path fill="none" d="M212.3 414.2V265.6l-72.8 128.2z"/>
  <path fill="none" stroke="#999" stroke-miterlimit="10" d="M212.3 414.2V265.6l-72.8 128.2z"/>
  <path fill="none" d="M139.5 393.8l72.8-128.2-183.5 45.1z"/>
  <path fill="none" stroke="#999" stroke-miterlimit="10" d="M139.5 393.8l72.8-128.2-183.5 45.1z"/>
  <path fill="none" d="M174.5 192.7l37.8 72.9-183.5 45.1z"/>
  <path fill="none" stroke="#999" stroke-miterlimit="10" d="M174.5 192.7l37.8 72.9-183.5 45.1z"/>
  <path fill="none" d="M2.6 1027.5l16-1015.4 10.2 298.6z"/>
  <path fill="none" stroke="#999" stroke-miterlimit="10" d="M2.6 1027.5l16-1015.4 10.2 298.6z"/>
  <path fill="none" d="M594 25.2l193.8 109.3 33.5-72.9z"/>
  <path fill="none" stroke="#999" stroke-miterlimit="10" d="M594 25.2l193.8 109.3 33.5-72.9z"/>
  <path fill="none" d="M1609.4 186.9l64.1 244.7-250.6-132.5z"/>
  <path fill="none" stroke="#999" stroke-miterlimit="10" d="M1609.4 186.9l64.1 244.7-250.6-132.5z"/>
  <path fill="none" d="M1084.9 106.8l252.1 29.1-1.5-118z"/>
  <path fill="none" stroke="#999" stroke-miterlimit="10" d="M1084.9 106.8l252.1 29.1-1.5-118z"/>
  <path fill="none" d="M1084.9 106.8l250.6-88.9-279.7-14.6z"/>
  <path fill="none" stroke="#999" stroke-miterlimit="10" d="M1084.9 106.8l250.6-88.9-279.7-14.6z"/>
  <path fill="none" d="M594 25.2l227.3 36.4 58.2-55.3z"/>
  <path fill="none" stroke="#999" stroke-miterlimit="10" d="M594 25.2l227.3 36.4 58.2-55.3z"/>
  <path fill="none" d="M1055.8 3.3l29.1 103.5L879.5 6.3z"/>
  <path fill="none" stroke="#999" stroke-miterlimit="10" d="M1055.8 3.3l29.1 103.5L879.5 6.3z"/>
  <path fill="none" d="M18.6 12.1l860.9-5.8L444 23.7z"/>
  <path fill="none" stroke="#999" stroke-miterlimit="10" d="M18.6 12.1l860.9-5.8L444 23.7z"/>
  <path fill="none" d="M18.6 12.1l104.9 46.6 320.5-35z"/>
  <path fill="none" stroke="#999" stroke-miterlimit="10" d="M18.6 12.1l104.9 46.6 320.5-35z"/>
  <path fill="none" d="M594 25.2L879.5 6.3 444 23.7z"/>
  <path fill="none" stroke="#999" stroke-miterlimit="10" d="M594 25.2L879.5 6.3 444 23.7z"/>
  <path fill="none" d="M123.5 58.7l295.7-11.6L444 23.7z"/>
  <path fill="none" stroke="#999" stroke-miterlimit="10" d="M123.5 58.7l295.7-11.6L444 23.7z"/>
  <path fill="none" d="M535.7 364.6l119.5 81.6 14.6-198.1z"/>
  <path fill="none" stroke="#999" stroke-miterlimit="10" d="M535.7 364.6l119.5 81.6 14.6-198.1z"/>
  <path fill="none" d="M594 25.2l193.8 109.3-118 113.6z"/>
  <path fill="none" stroke="#999" stroke-miterlimit="10" d="M594 25.2l193.8 109.3-118 113.6z"/>
  <path fill="none" d="M787.8 134.5l42.2 87.4-160.2 26.2z"/>
  <path fill="none" stroke="#999" stroke-miterlimit="10" d="M787.8 134.5l42.2 87.4-160.2 26.2z"/>
  <path fill="none" d="M212.3 265.6l52.5-135.5 192.3 80.1z"/>
  <path fill="none" stroke="#999" stroke-miterlimit="10" d="M212.3 265.6l52.5-135.5 192.3 80.1z"/>
  <path fill="none" d="M535.7 364.6l134.1-116.5-212.7-37.9z"/>
  <path fill="none" stroke="#999" stroke-miterlimit="10" d="M535.7 364.6l134.1-116.5-212.7-37.9z"/>
  <path fill="none" d="M174.5 192.7l37.8 72.9-11.6-43.7z"/>
  <path fill="none" stroke="#999" stroke-miterlimit="10" d="M174.5 192.7l37.8 72.9-11.6-43.7z"/>
  <path fill="none" d="M174.5 192.7l90.3-62.6-64.1 91.8z"/>
  <path fill="none" stroke="#999" stroke-miterlimit="10" d="M174.5 192.7l90.3-62.6-64.1 91.8z"/>
  <path fill="none" d="M212.3 265.6l52.5-135.5-64.1 91.8z"/>
  <path fill="none" stroke="#999" stroke-miterlimit="10" d="M212.3 265.6l52.5-135.5-64.1 91.8z"/>
  <path fill="none" d="M18.6 12.1l10.2 298.6 52.4-163.1z"/>
  <path fill="none" stroke="#999" stroke-miterlimit="10" d="M18.6 12.1l10.2 298.6 52.4-163.1z"/>
  <path fill="none" d="M18.6 12.1l104.9 46.6-42.3 88.9z"/>
  <path fill="none" stroke="#999" stroke-miterlimit="10" d="M18.6 12.1l104.9 46.6-42.3 88.9z"/>
  <path fill="none" d="M28.8 310.7l145.7-118-93.3-45.1z"/>
  <path fill="none" stroke="#999" stroke-miterlimit="10" d="M28.8 310.7l145.7-118-93.3-45.1z"/>
  <path fill="none" d="M212.3 414.2l55.4 244.7-142.8-16z"/>
  <path fill="none" stroke="#999" stroke-miterlimit="10" d="M212.3 414.2l55.4 244.7-142.8-16z"/>
  <path fill="none" d="M267.7 658.9l29.1 90.3-171.9-106.3z"/>
  <path fill="none" stroke="#999" stroke-miterlimit="10" d="M267.7 658.9l29.1 90.3-171.9-106.3z"/>
  <path fill="none" d="M139.5 393.8l72.8 20.4L60.8 543.8z"/>
  <path fill="none" stroke="#999" stroke-miterlimit="10" d="M139.5 393.8l72.8 20.4L60.8 543.8z"/>
  <path fill="none" d="M28.8 310.7l110.7 83.1-78.7 150z"/>
  <path fill="none" stroke="#999" stroke-miterlimit="10" d="M28.8 310.7l110.7 83.1-78.7 150z"/>
  <path fill="none" d="M124.9 642.9l87.4-228.7L60.8 543.8z"/>
  <path fill="none" stroke="#999" stroke-miterlimit="10" d="M124.9 642.9l87.4-228.7L60.8 543.8z"/>
  <path fill="none" d="M2.6 1027.5l155.8-80.2-77.2-113.6z"/>
  <path fill="none" stroke="#999" stroke-miterlimit="10" d="M2.6 1027.5l155.8-80.2-77.2-113.6z"/>
  <path fill="none" d="M124.9 642.9l171.9 106.3-215.6 84.5z"/>
  <path fill="none" stroke="#999" stroke-miterlimit="10" d="M124.9 642.9l171.9 106.3-215.6 84.5z"/>
  <path fill="none" d="M28.8 310.7l32 233.1-11.6 193.8z"/>
  <path fill="none" stroke="#999" stroke-miterlimit="10" d="M28.8 310.7l32 233.1-11.6 193.8z"/>
  <path fill="none" d="M60.8 543.8l64.1 99.1-75.7 94.7z"/>
  <path fill="none" stroke="#999" stroke-miterlimit="10" d="M60.8 543.8l64.1 99.1-75.7 94.7z"/>
  <path fill="none" d="M81.2 833.7l43.7-190.8-75.7 94.7z"/>
  <path fill="none" stroke="#999" stroke-miterlimit="10" d="M81.2 833.7l43.7-190.8-75.7 94.7z"/>
  <path fill="none" d="M2.6 1027.5l26.2-716.8 20.4 426.9z"/>
  <path fill="none" stroke="#999" stroke-miterlimit="10" d="M2.6 1027.5l26.2-716.8 20.4 426.9z"/>
  <path fill="none" d="M2.6 1027.5l78.6-193.8-32-96.1z"/>
  <path fill="none" stroke="#999" stroke-miterlimit="10" d="M2.6 1027.5l78.6-193.8-32-96.1z"/>
  <path fill="none" d="M296.8 749.2L524.1 822 291 795.8z"/>
  <path fill="none" stroke="#999" stroke-miterlimit="10" d="M296.8 749.2L524.1 822 291 795.8z"/>
  <path fill="none" d="M81.2 833.7l215.6-84.5-5.8 46.6z"/>
  <path fill="none" stroke="#999" stroke-miterlimit="10" d="M81.2 833.7l215.6-84.5-5.8 46.6z"/>
  <path fill="none" d="M291 795.8L524.1 822 356.6 926.9z"/>
  <path fill="none" stroke="#999" stroke-miterlimit="10" d="M291 795.8L524.1 822 356.6 926.9z"/>
  <path fill="none" d="M356.6 926.9L524.1 822l-52.5 154.5z"/>
  <path fill="none" stroke="#999" stroke-miterlimit="10" d="M356.6 926.9L524.1 822l-52.5 154.5z"/>
  <path fill="none" d="M524.1 822l153-90.3-13.2 209.8z"/>
  <path fill="none" stroke="#999" stroke-miterlimit="10" d="M524.1 822l153-90.3-13.2 209.8z"/>
  <path fill="none" d="M663.9 941.5l13.2-209.8 199.5 167.6z"/>
  <path fill="none" stroke="#999" stroke-miterlimit="10" d="M663.9 941.5l13.2-209.8 199.5 167.6z"/>
  <path fill="none" d="M663.9 941.5l84.5 80.1 128.2-122.3z"/>
  <path fill="none" stroke="#999" stroke-miterlimit="10" d="M663.9 941.5l84.5 80.1 128.2-122.3z"/>
  <path fill="none" d="M677.1 731.7l123.8-23.3 75.7 190.9z"/>
  <path fill="none" stroke="#999" stroke-miterlimit="10" d="M677.1 731.7l123.8-23.3 75.7 190.9z"/>
  <path fill="none" d="M1156.3 712.8l131.1 56.8-80.1 128.2z"/>
  <path fill="none" stroke="#999" stroke-miterlimit="10" d="M1156.3 712.8l131.1 56.8-80.1 128.2z"/>
  <path fill="none" d="M748.4 1021.6l128.2-122.3 102 4.3z"/>
  <path fill="none" stroke="#999" stroke-miterlimit="10" d="M748.4 1021.6l128.2-122.3 102 4.3z"/>
  <path fill="none" d="M1156.3 712.8l51 185-228.7 5.8z"/>
  <path fill="none" stroke="#999" stroke-miterlimit="10" d="M1156.3 712.8l51 185-228.7 5.8z"/>
  <path fill="none" d="M800.9 708.4l75.7 190.9 115.1-169z"/>
  <path fill="none" stroke="#999" stroke-miterlimit="10" d="M800.9 708.4l75.7 190.9 115.1-169z"/>
  <path fill="none" d="M800.9 708.4l103.4-81.6 87.4 103.5z"/>
  <path fill="none" stroke="#999" stroke-miterlimit="10" d="M800.9 708.4l103.4-81.6 87.4 103.5z"/>
  <path fill="none" d="M876.6 899.3l102 4.3 13.1-173.3z"/>
  <path fill="none" stroke="#999" stroke-miterlimit="10" d="M876.6 899.3l102 4.3 13.1-173.3z"/>
  <path fill="none" d="M978.6 903.6l177.7-190.8-164.6 17.5z"/>
  <path fill="none" stroke="#999" stroke-miterlimit="10" d="M978.6 903.6l177.7-190.8-164.6 17.5z"/>
  <path fill="none" d="M904.3 626.8l13.1-134 131.1 107.8z"/>
  <path fill="none" stroke="#999" stroke-miterlimit="10" d="M904.3 626.8l13.1-134 131.1 107.8z"/>
  <path fill="none" d="M904.3 626.8l87.4 103.5 56.8-129.7z"/>
  <path fill="none" stroke="#999" stroke-miterlimit="10" d="M904.3 626.8l87.4 103.5 56.8-129.7z"/>
  <path fill="none" d="M917.4 492.8l145.7-84.5-14.6 192.3z"/>
  <path fill="none" stroke="#999" stroke-miterlimit="10" d="M917.4 492.8l145.7-84.5-14.6 192.3z"/>
  <path fill="none" d="M991.7 730.3l164.6-17.5-107.8-112.2z"/>
  <path fill="none" stroke="#999" stroke-miterlimit="10" d="M991.7 730.3l164.6-17.5-107.8-112.2z"/>
  <path fill="none" d="M1048.5 600.6l14.6-192.3 192.3 118z"/>
  <path fill="none" stroke="#999" stroke-miterlimit="10" d="M1048.5 600.6l14.6-192.3 192.3 118z"/>
  <path fill="none" d="M1048.5 600.6l107.8 112.2 99.1-186.5z"/>
  <path fill="none" stroke="#999" stroke-miterlimit="10" d="M1048.5 600.6l107.8 112.2 99.1-186.5z"/>
  <path fill="none" d="M1156.3 712.8l186.5-141.3-87.4-45.2z"/>
  <path fill="none" stroke="#999" stroke-miterlimit="10" d="M1156.3 712.8l186.5-141.3-87.4-45.2z"/>
  <path fill="none" d="M1084.9 106.8l252.1 29.1-106.4 145.7z"/>
  <path fill="none" stroke="#999" stroke-miterlimit="10" d="M1084.9 106.8l252.1 29.1-106.4 145.7z"/>
  <path fill="none" d="M1337 135.9l85.9 163.2-192.3-17.5z"/>
  <path fill="none" stroke="#999" stroke-miterlimit="10" d="M1337 135.9l85.9 163.2-192.3-17.5z"/>
  <path fill="none" d="M787.8 134.5l33.5-72.9 30.6 109.3z"/>
  <path fill="none" stroke="#999" stroke-miterlimit="10" d="M787.8 134.5l33.5-72.9 30.6 109.3z"/>
  <path fill="none" d="M787.8 134.5l42.2 87.4 21.9-51z"/>
  <path fill="none" stroke="#999" stroke-miterlimit="10" d="M787.8 134.5l42.2 87.4 21.9-51z"/>
  <path fill="none" d="M821.3 61.6l58.2-55.3-27.6 164.6z"/>
  <path fill="none" stroke="#999" stroke-miterlimit="10" d="M821.3 61.6l58.2-55.3-27.6 164.6z"/>
  <path fill="none" d="M879.5 6.3l205.4 100.5-233 64.1z"/>
  <path fill="none" stroke="#999" stroke-miterlimit="10" d="M879.5 6.3l205.4 100.5-233 64.1z"/>
  <path fill="none" d="M1335.5 17.9l1.5 118 142.7-1.4z"/>
  <path fill="none" stroke="#999" stroke-miterlimit="10" d="M1335.5 17.9l1.5 118 142.7-1.4z"/>
  <path fill="none" d="M1337 135.9l85.9 163.2 56.8-164.6z"/>
  <path fill="none" stroke="#999" stroke-miterlimit="10" d="M1337 135.9l85.9 163.2 56.8-164.6z"/>
  <path fill="none" d="M1422.9 299.1l186.5-112.2-129.7-52.4z"/>
  <path fill="none" stroke="#999" stroke-miterlimit="10" d="M1422.9 299.1l186.5-112.2-129.7-52.4z"/>
  <path fill="none" d="M1479.7 134.5l129.7 52.4L1549.6 50z"/>
  <path fill="none" stroke="#999" stroke-miterlimit="10" d="M1479.7 134.5l129.7 52.4L1549.6 50z"/>
  <path fill="none" d="M1609.4 186.9l64.1 244.7 110.7-185z"/>
  <path fill="none" stroke="#999" stroke-miterlimit="10" d="M1609.4 186.9l64.1 244.7 110.7-185z"/>
  <path fill="none" d="M1609.4 186.9l150-87.4 24.8 147.1z"/>
  <path fill="none" stroke="#999" stroke-miterlimit="10" d="M1609.4 186.9l150-87.4 24.8 147.1z"/>
  <path fill="none" d="M1759.4 99.5l84.5-97.6-59.7 244.7z"/>
  <path fill="none" stroke="#999" stroke-miterlimit="10" d="M1759.4 99.5l84.5-97.6-59.7 244.7z"/>
  <path fill="none" d="M1673.5 431.6l110.7-185 5.8 215.6z"/>
  <path fill="none" stroke="#999" stroke-miterlimit="10" d="M1673.5 431.6l110.7-185 5.8 215.6z"/>
  <path fill="none" d="M1784.2 246.6l59.7-244.7-53.9 460.3z"/>
  <path fill="none" stroke="#999" stroke-miterlimit="10" d="M1784.2 246.6l59.7-244.7-53.9 460.3z"/>
  <path fill="none" d="M1801.7 701.1l48 126.8-59.7-365.7z"/>
  <path fill="none" stroke="#999" stroke-miterlimit="10" d="M1801.7 701.1l48 126.8-59.7-365.7z"/>
  <path fill="none" d="M1843.9 1.9l5.8 826-59.7-365.7z"/>
  <path fill="none" stroke="#999" stroke-miterlimit="10" d="M1843.9 1.9l5.8 826-59.7-365.7z"/>
  <path fill="none" d="M1673.5 431.6l116.5 30.6-129.6 169z"/>
  <path fill="none" stroke="#999" stroke-miterlimit="10" d="M1673.5 431.6l116.5 30.6-129.6 169z"/>
  <path fill="none" d="M1790 462.2l11.7 238.9-141.3-69.9z"/>
  <path fill="none" stroke="#999" stroke-miterlimit="10" d="M1790 462.2l11.7 238.9-141.3-69.9z"/>
  <path fill="none" d="M1660.4 631.2l13.1-199.6L1471 621z"/>
  <path fill="none" stroke="#999" stroke-miterlimit="10" d="M1660.4 631.2l13.1-199.6L1471 621z"/>
  <path fill="none" d="M1342.8 571.5l80.1-272.4L1471 621z"/>
  <path fill="none" stroke="#999" stroke-miterlimit="10" d="M1342.8 571.5l80.1-272.4L1471 621z"/>
  <path fill="none" d="M1422.9 299.1l250.6 132.5L1471 621z"/>
  <path fill="none" stroke="#999" stroke-miterlimit="10" d="M1422.9 299.1l250.6 132.5L1471 621z"/>
  <path fill="none" d="M1063.1 408.3l167.5-126.7 68.5 80.1z"/>
  <path fill="none" stroke="#999" stroke-miterlimit="10" d="M1063.1 408.3l167.5-126.7 68.5 80.1z"/>
  <path fill="none" d="M1063.1 408.3l192.3 118 43.7-164.6z"/>
  <path fill="none" stroke="#999" stroke-miterlimit="10" d="M1063.1 408.3l192.3 118 43.7-164.6z"/>
  <path fill="none" d="M1230.6 281.6l192.3 17.5-123.8 62.6z"/>
  <path fill="none" stroke="#999" stroke-miterlimit="10" d="M1230.6 281.6l192.3 17.5-123.8 62.6z"/>
  <path fill="none" d="M1255.4 526.3l87.4 45.2-43.7-209.8z"/>
  <path fill="none" stroke="#999" stroke-miterlimit="10" d="M1255.4 526.3l87.4 45.2-43.7-209.8z"/>
  <path fill="none" d="M1342.8 571.5l80.1-272.4-123.8 62.6z"/>
  <path fill="none" stroke="#999" stroke-miterlimit="10" d="M1342.8 571.5l80.1-272.4-123.8 62.6z"/>
  <path fill="none" d="M212.3 414.2V265.6L403.2 385z"/>
  <path fill="none" stroke="#999" stroke-miterlimit="10" d="M212.3 414.2V265.6L403.2 385z"/>
  <path fill="none" d="M212.3 265.6l244.8-55.4L403.2 385z"/>
  <path fill="none" stroke="#999" stroke-miterlimit="10" d="M212.3 265.6l244.8-55.4L403.2 385z"/>
  <path fill="none" d="M457.1 210.2l78.6 154.4L403.2 385z"/>
  <path fill="none" stroke="#999" stroke-miterlimit="10" d="M457.1 210.2l78.6 154.4L403.2 385z"/>
  <path fill="none" d="M465.8 510.3l69.9-145.7L403.2 385z"/>
  <path fill="none" stroke="#999" stroke-miterlimit="10" d="M465.8 510.3l69.9-145.7L403.2 385z"/>
  <path fill="none" d="M212.3 414.2l55.4 244.7 116.5-103.4z"/>
  <path fill="none" stroke="#999" stroke-miterlimit="10" d="M212.3 414.2l55.4 244.7 116.5-103.4z"/>
  <path fill="none" d="M212.3 414.2L403.2 385l-19 170.5z"/>
  <path fill="none" stroke="#999" stroke-miterlimit="10" d="M212.3 414.2L403.2 385l-19 170.5z"/>
  <path fill="none" d="M403.2 385l62.6 125.3-81.6 45.2z"/>
  <path fill="none" stroke="#999" stroke-miterlimit="10" d="M403.2 385l62.6 125.3-81.6 45.2z"/>
  <path fill="none" d="M296.8 749.2L524.1 822l-20.4-157.3z"/>
  <path fill="none" stroke="#999" stroke-miterlimit="10" d="M296.8 749.2L524.1 822l-20.4-157.3z"/>
  <path fill="none" d="M384.2 555.5l81.6-45.2 37.9 154.4z"/>
  <path fill="none" stroke="#999" stroke-miterlimit="10" d="M384.2 555.5l81.6-45.2 37.9 154.4z"/>
  <path fill="none" d="M465.8 510.3l189.4-64.1-151.5 218.5z"/>
  <path fill="none" stroke="#999" stroke-miterlimit="10" d="M465.8 510.3l189.4-64.1-151.5 218.5z"/>
  <path fill="none" d="M524.1 822l153-90.3-173.4-67z"/>
  <path fill="none" stroke="#999" stroke-miterlimit="10" d="M524.1 822l153-90.3-173.4-67z"/>
  <path fill="none" d="M655.2 446.2l21.9 285.5-173.4-67z"/>
  <path fill="none" stroke="#999" stroke-miterlimit="10" d="M655.2 446.2l21.9 285.5-173.4-67z"/>
  <path fill="none" d="M267.7 658.9l29.1 90.3 55.4-106.3z"/>
  <path fill="none" stroke="#999" stroke-miterlimit="10" d="M267.7 658.9l29.1 90.3 55.4-106.3z"/>
  <path fill="none" d="M267.7 658.9l116.5-103.4-32 87.4z"/>
  <path fill="none" stroke="#999" stroke-miterlimit="10" d="M267.7 658.9l116.5-103.4-32 87.4z"/>
  <path fill="none" d="M296.8 749.2l206.9-84.5-151.5-21.8z"/>
  <path fill="none" stroke="#999" stroke-miterlimit="10" d="M296.8 749.2l206.9-84.5-151.5-21.8z"/>
  <path fill="none" d="M384.2 555.5l119.5 109.2-151.5-21.8z"/>
  <path fill="none" stroke="#999" stroke-miterlimit="10" d="M384.2 555.5l119.5 109.2-151.5-21.8z"/>
  <path fill="none" d="M1471 621l189.4 10.2-51 182.1z"/>
  <path fill="none" stroke="#999" stroke-miterlimit="10" d="M1471 621l189.4 10.2-51 182.1z"/>
  <path fill="none" d="M1660.4 631.2l141.3 69.9-192.3 112.2z"/>
  <path fill="none" stroke="#999" stroke-miterlimit="10" d="M1660.4 631.2l141.3 69.9-192.3 112.2z"/>
  <path fill="none" d="M1609.4 813.3l192.3-112.2-109.3 179.2z"/>
  <path fill="none" stroke="#999" stroke-miterlimit="10" d="M1609.4 813.3l192.3-112.2-109.3 179.2z"/>
  <path fill="none" d="M1801.7 701.1l48 126.8-157.3 52.4z"/>
  <path fill="none" stroke="#999" stroke-miterlimit="10" d="M1801.7 701.1l48 126.8-157.3 52.4z"/>
  <path fill="none" d="M1836.6 1005.6l13.1-177.7-157.3 52.4z"/>
  <path fill="none" stroke="#999" stroke-miterlimit="10" d="M1836.6 1005.6l13.1-177.7-157.3 52.4z"/>
  <path fill="none" d="M1485.6 951.7l123.8-138.4-24.8 155.9z"/>
  <path fill="none" stroke="#999" stroke-miterlimit="10" d="M1485.6 951.7l123.8-138.4-24.8 155.9z"/>
  <path fill="none" d="M1609.4 813.3l83 67-107.8 88.9z"/>
  <path fill="none" stroke="#999" stroke-miterlimit="10" d="M1609.4 813.3l83 67-107.8 88.9z"/>
  <path fill="none" d="M1692.4 880.3l144.2 125.3-252-36.4z"/>
  <path fill="none" stroke="#999" stroke-miterlimit="10" d="M1692.4 880.3l144.2 125.3-252-36.4z"/>
  <path fill="none" d="M655.2 446.2l14.6-198.1 71.3 87.4z"/>
  <path fill="none" stroke="#999" stroke-miterlimit="10" d="M655.2 446.2l14.6-198.1 71.3 87.4z"/>
  <path fill="none" d="M655.2 446.2l115.1 2.9-29.2-113.6z"/>
  <path fill="none" stroke="#999" stroke-miterlimit="10" d="M655.2 446.2l115.1 2.9-29.2-113.6z"/>
  <path fill="none" d="M669.8 248.1L830 221.9l-88.9 113.6z"/>
  <path fill="none" stroke="#999" stroke-miterlimit="10" d="M669.8 248.1L830 221.9l-88.9 113.6z"/>
  <path fill="none" d="M770.3 449.1l103.4-99-132.6-14.6z"/>
  <path fill="none" stroke="#999" stroke-miterlimit="10" d="M770.3 449.1l103.4-99-132.6-14.6z"/>
  <path fill="none" d="M830 221.9l43.7 128.2-132.6-14.6z"/>
  <path fill="none" stroke="#999" stroke-miterlimit="10" d="M830 221.9l43.7 128.2-132.6-14.6z"/>
  <path fill="none" d="M830 221.9l21.9-51 186.4 88.8z"/>
  <path fill="none" stroke="#999" stroke-miterlimit="10" d="M830 221.9l21.9-51 186.4 88.8z"/>
  <path fill="none" d="M830 221.9l43.7 128.2 164.6-90.4z"/>
  <path fill="none" stroke="#999" stroke-miterlimit="10" d="M830 221.9l43.7 128.2 164.6-90.4z"/>
  <path fill="none" d="M851.9 170.9l233-64.1-46.6 152.9z"/>
  <path fill="none" stroke="#999" stroke-miterlimit="10" d="M851.9 170.9l233-64.1-46.6 152.9z"/>
  <path fill="none" d="M873.7 350.1l189.4 58.2-24.8-148.6z"/>
  <path fill="none" stroke="#999" stroke-miterlimit="10" d="M873.7 350.1l189.4 58.2-24.8-148.6z"/>
  <path fill="none" d="M1063.1 408.3l167.5-126.7-192.3-21.9z"/>
  <path fill="none" stroke="#999" stroke-miterlimit="10" d="M1063.1 408.3l167.5-126.7-192.3-21.9z"/>
  <path fill="none" d="M1084.9 106.8l145.7 174.8-192.3-21.9z"/>
  <path fill="none" stroke="#999" stroke-miterlimit="10" d="M1084.9 106.8l145.7 174.8-192.3-21.9z"/>
  <path fill="none" d="M1549.6 50l59.8 136.9 115.1-134z"/>
  <path fill="none" stroke="#999" stroke-miterlimit="10" d="M1549.6 50l59.8 136.9 115.1-134z"/>
  <path fill="none" d="M1609.4 186.9l150-87.4-34.9-46.6z"/>
  <path fill="none" stroke="#999" stroke-miterlimit="10" d="M1609.4 186.9l150-87.4-34.9-46.6z"/>
  <path fill="none" d="M1759.4 99.5l84.5-97.6-119.4 51z"/>
  <path fill="none" stroke="#999" stroke-miterlimit="10" d="M1759.4 99.5l84.5-97.6-119.4 51z"/>
  <path fill="none" d="M1479.7 134.5l69.9-84.5L1522 1.9z"/>
  <path fill="none" stroke="#999" stroke-miterlimit="10" d="M1479.7 134.5l69.9-84.5L1522 1.9z"/>
  <path fill="none" d="M1549.6 50l174.9 2.9-202.5-51z"/>
  <path fill="none" stroke="#999" stroke-miterlimit="10" d="M1549.6 50l174.9 2.9-202.5-51z"/>
  <path fill="none" d="M1724.5 52.9l119.4-51H1522z"/>
  <path fill="none" stroke="#999" stroke-miterlimit="10" d="M1724.5 52.9l119.4-51H1522z"/>
  <path fill="none" d="M1055.8 3.3l279.7 14.6 186.5-16z"/>
  <path fill="none" stroke="#999" stroke-miterlimit="10" d="M1055.8 3.3l279.7 14.6 186.5-16z"/>
  <path fill="none" d="M1335.5 17.9l144.2 116.6L1522 1.9z"/>
  <path fill="none" stroke="#999" stroke-miterlimit="10" d="M1335.5 17.9l144.2 116.6L1522 1.9z"/>
  <path fill="none" d="M174.5 192.7l90.3-62.6-53.9-30.6z"/>
  <path fill="none" stroke="#999" stroke-miterlimit="10" d="M174.5 192.7l90.3-62.6-53.9-30.6z"/>
  <path fill="none" d="M264.8 130.1l154.4-83-208.3 52.4z"/>
  <path fill="none" stroke="#999" stroke-miterlimit="10" d="M264.8 130.1l154.4-83-208.3 52.4z"/>
  <path fill="none" d="M81.2 147.6l93.3 45.1 36.4-93.2z"/>
  <path fill="none" stroke="#999" stroke-miterlimit="10" d="M81.2 147.6l93.3 45.1 36.4-93.2z"/>
  <path fill="none" d="M81.2 147.6l42.3-88.9 87.4 40.8z"/>
  <path fill="none" stroke="#999" stroke-miterlimit="10" d="M81.2 147.6l42.3-88.9 87.4 40.8z"/>
  <path fill="none" d="M123.5 58.7l295.7-11.6-208.3 52.4z"/>
  <path fill="none" stroke="#999" stroke-miterlimit="10" d="M123.5 58.7l295.7-11.6-208.3 52.4z"/>
  <path fill="none" d="M264.8 130.1l154.4-83 43.7 131.1z"/>
  <path fill="none" stroke="#999" stroke-miterlimit="10" d="M264.8 130.1l154.4-83 43.7 131.1z"/>
  <path fill="none" d="M264.8 130.1l192.3 80.1 5.8-32z"/>
  <path fill="none" stroke="#999" stroke-miterlimit="10" d="M264.8 130.1l192.3 80.1 5.8-32z"/>
  <path fill="none" d="M457.1 210.2l212.7 37.9-206.9-69.9z"/>
  <path fill="none" stroke="#999" stroke-miterlimit="10" d="M457.1 210.2l212.7 37.9-206.9-69.9z"/>
  <path fill="none" d="M419.2 47.1L444 23.7l39.3 88.9z"/>
  <path fill="none" stroke="#999" stroke-miterlimit="10" d="M419.2 47.1L444 23.7l39.3 88.9z"/>
  <path fill="none" d="M419.2 47.1l43.7 131.1 20.4-65.6z"/>
  <path fill="none" stroke="#999" stroke-miterlimit="10" d="M419.2 47.1l43.7 131.1 20.4-65.6z"/>
  <path fill="none" d="M444 23.7l150 1.5-110.7 87.4z"/>
  <path fill="none" stroke="#999" stroke-miterlimit="10" d="M444 23.7l150 1.5-110.7 87.4z"/>
  <path fill="none" d="M462.9 178.2l206.9 69.9-186.5-135.5z"/>
  <path fill="none" stroke="#999" stroke-miterlimit="10" d="M462.9 178.2l206.9 69.9-186.5-135.5z"/>
  <path fill="none" d="M594 25.2l75.8 222.9-186.5-135.5z"/>
  <path fill="none" stroke="#999" stroke-miterlimit="10" d="M594 25.2l75.8 222.9-186.5-135.5z"/>
  <path fill="none" d="M291 795.8l65.6 131.1-112.2-49.5z"/>
  <path fill="none" stroke="#999" stroke-miterlimit="10" d="M291 795.8l65.6 131.1-112.2-49.5z"/>
  <path fill="none" d="M81.2 833.7l77.2 113.6 86-69.9z"/>
  <path fill="none" stroke="#999" stroke-miterlimit="10" d="M81.2 833.7l77.2 113.6 86-69.9z"/>
  <path fill="none" d="M81.2 833.7L291 795.8l-46.6 81.6z"/>
  <path fill="none" stroke="#999" stroke-miterlimit="10" d="M81.2 833.7L291 795.8l-46.6 81.6z"/>
  <path fill="none" d="M158.4 947.3l86-69.9 64.1 119.5z"/>
  <path fill="none" stroke="#999" stroke-miterlimit="10" d="M158.4 947.3l86-69.9 64.1 119.5z"/>
  <path fill="none" d="M244.4 877.4l112.2 49.5-48.1 70z"/>
  <path fill="none" stroke="#999" stroke-miterlimit="10" d="M244.4 877.4l112.2 49.5-48.1 70z"/>
  <path fill="none" d="M356.6 926.9l115 49.6-163.1 20.4z"/>
  <path fill="none" stroke="#999" stroke-miterlimit="10" d="M356.6 926.9l115 49.6-163.1 20.4z"/>
  <path fill="none" d="M2.6 1027.5l155.8-80.2 150.1 49.6z"/>
  <path fill="none" stroke="#999" stroke-miterlimit="10" d="M2.6 1027.5l155.8-80.2 150.1 49.6z"/>
  <path fill="none" d="M308.5 996.9l163.1-20.4 75.8 37.8z"/>
  <path fill="none" stroke="#999" stroke-miterlimit="10" d="M308.5 996.9l163.1-20.4 75.8 37.8z"/>
  <path fill="none" d="M471.6 976.5L524.1 822l23.3 192.3z"/>
  <path fill="none" stroke="#999" stroke-miterlimit="10" d="M471.6 976.5L524.1 822l23.3 192.3z"/>
  <path fill="none" d="M524.1 822l139.8 119.5-116.5 72.8z"/>
  <path fill="none" stroke="#999" stroke-miterlimit="10" d="M524.1 822l139.8 119.5-116.5 72.8z"/>
  <path fill="none" d="M663.9 941.5l84.5 80.1-201-7.3z"/>
  <path fill="none" stroke="#999" stroke-miterlimit="10" d="M663.9 941.5l84.5 80.1-201-7.3z"/>
  <path fill="none" d="M2.6 1027.5l305.9-30.6 238.9 17.4z"/>
  <path fill="none" stroke="#999" stroke-miterlimit="10" d="M2.6 1027.5l305.9-30.6 238.9 17.4z"/>
  <path fill="none" d="M2.6 1027.5l745.8-5.9-201-7.3z"/>
  <path fill="none" stroke="#999" stroke-miterlimit="10" d="M2.6 1027.5l745.8-5.9-201-7.3z"/>
  <path fill="none" d="M748.4 1021.6l230.2-118 136.9 81.6z"/>
  <path fill="none" stroke="#999" stroke-miterlimit="10" d="M748.4 1021.6l230.2-118 136.9 81.6z"/>
  <path fill="none" d="M748.4 1021.6l488-27.7-120.9-8.7z"/>
  <path fill="none" stroke="#999" stroke-miterlimit="10" d="M748.4 1021.6l488-27.7-120.9-8.7z"/>
  <path fill="none" d="M978.6 903.6l228.7-5.8-91.8 87.4z"/>
  <path fill="none" stroke="#999" stroke-miterlimit="10" d="M978.6 903.6l228.7-5.8-91.8 87.4z"/>
  <path fill="none" d="M1207.3 897.8l29.1 96.1-120.9-8.7z"/>
  <path fill="none" stroke="#999" stroke-miterlimit="10" d="M1207.3 897.8l29.1 96.1-120.9-8.7z"/>
  <path fill="none" d="M748.4 1021.6l488-27.7 138.4 14.6z"/>
  <path fill="none" stroke="#999" stroke-miterlimit="10" d="M748.4 1021.6l488-27.7 138.4 14.6z"/>
  <path fill="none" d="M1207.3 897.8l29.1 96.1 138.4 14.6z"/>
  <path fill="none" stroke="#999" stroke-miterlimit="10" d="M1207.3 897.8l29.1 96.1 138.4 14.6z"/>
  <path fill="none" d="M1207.3 897.8l80.1-128.2 87.4 238.9z"/>
  <path fill="none" stroke="#999" stroke-miterlimit="10" d="M1207.3 897.8l80.1-128.2 87.4 238.9z"/>
  <path fill="none" d="M1287.4 769.6l198.2 182.1-110.8 56.8z"/>
  <path fill="none" stroke="#999" stroke-miterlimit="10" d="M1287.4 769.6l198.2 182.1-110.8 56.8z"/>
  <path fill="none" d="M1485.6 951.7l99 17.5-97.6 24.7z"/>
  <path fill="none" stroke="#999" stroke-miterlimit="10" d="M1485.6 951.7l99 17.5-97.6 24.7z"/>
  <path fill="none" d="M1584.6 969.2l252 36.4-349.6-11.7z"/>
  <path fill="none" stroke="#999" stroke-miterlimit="10" d="M1584.6 969.2l252 36.4-349.6-11.7z"/>
  <path fill="none" d="M1374.8 1008.5l110.8-56.8 1.4 42.2z"/>
  <path fill="none" stroke="#999" stroke-miterlimit="10" d="M1374.8 1008.5l110.8-56.8 1.4 42.2z"/>
  <path fill="none" d="M1374.8 1008.5l461.8-2.9-349.6-11.7z"/>
  <path fill="none" stroke="#999" stroke-miterlimit="10" d="M1374.8 1008.5l461.8-2.9-349.6-11.7z"/>
  <path fill="none" d="M1471 621l138.4 192.3-215.6-145.7z"/>
  <path fill="none" stroke="#999" stroke-miterlimit="10" d="M1471 621l138.4 192.3-215.6-145.7z"/>
  <path fill="none" d="M1485.6 951.7l123.8-138.4-215.6-145.7z"/>
  <path fill="none" stroke="#999" stroke-miterlimit="10" d="M1485.6 951.7l123.8-138.4-215.6-145.7z"/>
  <path fill="none" d="M1287.4 769.6l198.2 182.1-91.8-284.1z"/>
  <path fill="none" stroke="#999" stroke-miterlimit="10" d="M1287.4 769.6l198.2 182.1-91.8-284.1z"/>
  <path fill="none" d="M1287.4 769.6l55.4-198.1 51 96.1z"/>
  <path fill="none" stroke="#999" stroke-miterlimit="10" d="M1287.4 769.6l55.4-198.1 51 96.1z"/>
  <path fill="none" d="M1342.8 571.5L1471 621l-77.2 46.6z"/>
  <path fill="none" stroke="#999" stroke-miterlimit="10" d="M1342.8 571.5L1471 621l-77.2 46.6z"/>
</svg>