<?xml version="1.0" encoding="utf-8"?>
<!-- Generator: Adobe Illustrator 18.1.1, SVG Export Plug-In . SVG Version: 6.00 Build 0)  -->
<svg version="1.1" id="Calque_1" xmlns="http://www.w3.org/2000/svg" xmlns:xlink="http://www.w3.org/1999/xlink" x="0px" y="0px"
	 viewBox="0 0 1851 1031.7" enable-background="new 0 0 1851 1031.7" xml:space="preserve">
<polygon fill="none" points="1287.4,769.6 1342.8,571.5 1156.3,712.8 "/>
<polygon fill="none" stroke="#000000" stroke-miterlimit="10" points="1287.4,769.6 1342.8,571.5 1156.3,712.8 "/>
<polygon fill="none" points="873.7,350.1 917.4,492.8 1063.1,408.3 "/>
<polygon fill="none" stroke="#000000" stroke-miterlimit="10" points="873.7,350.1 917.4,492.8 1063.1,408.3 "/>
<polygon fill="none" points="677.1,731.7 800.9,708.4 770.3,449.1 "/>
<polygon fill="none" stroke="#000000" stroke-miterlimit="10" points="677.1,731.7 800.9,708.4 770.3,449.1 "/>
<polygon fill="none" points="800.9,708.4 904.3,626.8 770.3,449.1 "/>
<polygon fill="none" stroke="#000000" stroke-miterlimit="10" points="800.9,708.4 904.3,626.8 770.3,449.1 "/>
<polygon fill="none" points="873.7,350.1 917.4,492.8 770.3,449.1 "/>
<polygon fill="none" stroke="#000000" stroke-miterlimit="10" points="873.7,350.1 917.4,492.8 770.3,449.1 "/>
<polygon fill="none" points="904.3,626.8 917.4,492.8 770.3,449.1 "/>
<polygon fill="none" stroke="#000000" stroke-miterlimit="10" points="904.3,626.8 917.4,492.8 770.3,449.1 "/>
<polygon fill="none" points="677.1,731.7 770.3,449.1 655.2,446.2 "/>
<polygon fill="none" stroke="#000000" stroke-miterlimit="10" points="677.1,731.7 770.3,449.1 655.2,446.2 "/>
<polygon fill="none" points="465.8,510.3 655.2,446.2 535.7,364.6 "/>
<polygon fill="none" stroke="#000000" stroke-miterlimit="10" points="465.8,510.3 655.2,446.2 535.7,364.6 "/>
<polygon fill="none" points="212.3,414.2 212.3,265.6 139.5,393.8 "/>
<polygon fill="none" stroke="#000000" stroke-miterlimit="10" points="212.3,414.2 212.3,265.6 139.5,393.8 "/>
<polygon fill="none" points="139.5,393.8 212.3,265.6 28.8,310.7 "/>
<polygon fill="none" stroke="#000000" stroke-miterlimit="10" points="139.5,393.8 212.3,265.6 28.8,310.7 "/>
<polygon fill="none" points="174.5,192.7 212.3,265.6 28.8,310.7 "/>
<polygon fill="none" stroke="#000000" stroke-miterlimit="10" points="174.5,192.7 212.3,265.6 28.8,310.7 "/>
<polygon fill="none" points="2.6,1027.5 18.6,12.1 28.8,310.7 "/>
<polygon fill="none" stroke="#000000" stroke-miterlimit="10" points="2.6,1027.5 18.6,12.1 28.8,310.7 "/>
<polygon fill="none" points="594,25.2 787.8,134.5 821.3,61.6 "/>
<polygon fill="none" stroke="#000000" stroke-miterlimit="10" points="594,25.2 787.8,134.5 821.3,61.6 "/>
<polygon fill="none" points="1609.4,186.9 1673.5,431.6 1422.9,299.1 "/>
<polygon fill="none" stroke="#000000" stroke-miterlimit="10" points="1609.4,186.9 1673.5,431.6 1422.9,299.1 "/>
<polygon fill="none" points="1084.9,106.8 1337,135.9 1335.5,17.9 "/>
<polygon fill="none" stroke="#000000" stroke-miterlimit="10" points="1084.9,106.8 1337,135.9 1335.5,17.9 "/>
<polygon fill="none" points="1084.9,106.8 1335.5,17.9 1055.8,3.3 "/>
<polygon fill="none" stroke="#000000" stroke-miterlimit="10" points="1084.9,106.8 1335.5,17.9 1055.8,3.3 "/>
<polygon fill="none" points="594,25.2 821.3,61.6 879.5,6.3 "/>
<polygon fill="none" stroke="#000000" stroke-miterlimit="10" points="594,25.2 821.3,61.6 879.5,6.3 "/>
<polygon fill="none" points="1055.8,3.3 1084.9,106.8 879.5,6.3 "/>
<polygon fill="none" stroke="#000000" stroke-miterlimit="10" points="1055.8,3.3 1084.9,106.8 879.5,6.3 "/>
<polygon fill="none" points="18.6,12.1 879.5,6.3 444,23.7 "/>
<polygon fill="none" stroke="#000000" stroke-miterlimit="10" points="18.6,12.1 879.5,6.3 444,23.7 "/>
<polygon fill="none" points="18.6,12.1 123.5,58.7 444,23.7 "/>
<polygon fill="none" stroke="#000000" stroke-miterlimit="10" points="18.6,12.1 123.5,58.7 444,23.7 "/>
<polygon fill="none" points="594,25.2 879.5,6.3 444,23.7 "/>
<polygon fill="none" stroke="#000000" stroke-miterlimit="10" points="594,25.2 879.5,6.3 444,23.7 "/>
<polygon fill="none" points="123.5,58.7 419.2,47.1 444,23.7 "/>
<polygon fill="none" stroke="#000000" stroke-miterlimit="10" points="123.5,58.7 419.2,47.1 444,23.7 "/>
<polygon fill="none" points="535.7,364.6 655.2,446.2 669.8,248.1 "/>
<polygon fill="none" stroke="#000000" stroke-miterlimit="10" points="535.7,364.6 655.2,446.2 669.8,248.1 "/>
<polygon fill="none" points="594,25.2 787.8,134.5 669.8,248.1 "/>
<polygon fill="none" stroke="#000000" stroke-miterlimit="10" points="594,25.2 787.8,134.5 669.8,248.1 "/>
<polygon fill="none" points="787.8,134.5 830,221.9 669.8,248.1 "/>
<polygon fill="none" stroke="#000000" stroke-miterlimit="10" points="787.8,134.5 830,221.9 669.8,248.1 "/>
<polygon fill="none" points="212.3,265.6 264.8,130.1 457.1,210.2 "/>
<polygon fill="none" stroke="#000000" stroke-miterlimit="10" points="212.3,265.6 264.8,130.1 457.1,210.2 "/>
<polygon fill="none" points="535.7,364.6 669.8,248.1 457.1,210.2 "/>
<polygon fill="none" stroke="#000000" stroke-miterlimit="10" points="535.7,364.6 669.8,248.1 457.1,210.2 "/>
<polygon fill="none" points="174.5,192.7 212.3,265.6 200.7,221.9 "/>
<polygon fill="none" stroke="#000000" stroke-miterlimit="10" points="174.5,192.7 212.3,265.6 200.7,221.9 "/>
<polygon fill="none" points="174.5,192.7 264.8,130.1 200.7,221.9 "/>
<polygon fill="none" stroke="#000000" stroke-miterlimit="10" points="174.5,192.7 264.8,130.1 200.7,221.9 "/>
<polygon fill="none" points="212.3,265.6 264.8,130.1 200.7,221.9 "/>
<polygon fill="none" stroke="#000000" stroke-miterlimit="10" points="212.3,265.6 264.8,130.1 200.7,221.9 "/>
<polygon fill="none" points="18.6,12.1 28.8,310.7 81.2,147.6 "/>
<polygon fill="none" stroke="#000000" stroke-miterlimit="10" points="18.6,12.1 28.8,310.7 81.2,147.6 "/>
<polygon fill="none" points="18.6,12.1 123.5,58.7 81.2,147.6 "/>
<polygon fill="none" stroke="#000000" stroke-miterlimit="10" points="18.6,12.1 123.5,58.7 81.2,147.6 "/>
<polygon fill="none" points="28.8,310.7 174.5,192.7 81.2,147.6 "/>
<polygon fill="none" stroke="#000000" stroke-miterlimit="10" points="28.8,310.7 174.5,192.7 81.2,147.6 "/>
<polygon fill="none" points="212.3,414.2 267.7,658.9 124.9,642.9 "/>
<polygon fill="none" stroke="#000000" stroke-miterlimit="10" points="212.3,414.2 267.7,658.9 124.9,642.9 "/>
<polygon fill="none" points="267.7,658.9 296.8,749.2 124.9,642.9 "/>
<polygon fill="none" stroke="#000000" stroke-miterlimit="10" points="267.7,658.9 296.8,749.2 124.9,642.9 "/>
<polygon fill="none" points="139.5,393.8 212.3,414.2 60.8,543.8 "/>
<polygon fill="none" stroke="#000000" stroke-miterlimit="10" points="139.5,393.8 212.3,414.2 60.8,543.8 "/>
<polygon fill="none" points="28.8,310.7 139.5,393.8 60.8,543.8 "/>
<polygon fill="none" stroke="#000000" stroke-miterlimit="10" points="28.8,310.7 139.5,393.8 60.8,543.8 "/>
<polygon fill="none" points="124.9,642.9 212.3,414.2 60.8,543.8 "/>
<polygon fill="none" stroke="#000000" stroke-miterlimit="10" points="124.9,642.9 212.3,414.2 60.8,543.8 "/>
<polygon fill="none" points="2.6,1027.5 158.4,947.3 81.2,833.7 "/>
<polygon fill="none" stroke="#000000" stroke-miterlimit="10" points="2.6,1027.5 158.4,947.3 81.2,833.7 "/>
<polygon fill="none" points="124.9,642.9 296.8,749.2 81.2,833.7 "/>
<polygon fill="none" stroke="#000000" stroke-miterlimit="10" points="124.9,642.9 296.8,749.2 81.2,833.7 "/>
<polygon fill="none" points="28.8,310.7 60.8,543.8 49.2,737.6 "/>
<polygon fill="none" stroke="#000000" stroke-miterlimit="10" points="28.8,310.7 60.8,543.8 49.2,737.6 "/>
<polygon fill="none" points="60.8,543.8 124.9,642.9 49.2,737.6 "/>
<polygon fill="none" stroke="#000000" stroke-miterlimit="10" points="60.8,543.8 124.9,642.9 49.2,737.6 "/>
<polygon fill="none" points="81.2,833.7 124.9,642.9 49.2,737.6 "/>
<polygon fill="none" stroke="#000000" stroke-miterlimit="10" points="81.2,833.7 124.9,642.9 49.2,737.6 "/>
<polygon fill="none" points="2.6,1027.5 28.8,310.7 49.2,737.6 "/>
<polygon fill="none" stroke="#000000" stroke-miterlimit="10" points="2.6,1027.5 28.8,310.7 49.2,737.6 "/>
<polygon fill="none" points="2.6,1027.5 81.2,833.7 49.2,737.6 "/>
<polygon fill="none" stroke="#000000" stroke-miterlimit="10" points="2.6,1027.5 81.2,833.7 49.2,737.6 "/>
<polygon fill="none" points="296.8,749.2 524.1,822 291,795.8 "/>
<polygon fill="none" stroke="#000000" stroke-miterlimit="10" points="296.8,749.2 524.1,822 291,795.8 "/>
<polygon fill="none" points="81.2,833.7 296.8,749.2 291,795.8 "/>
<polygon fill="none" stroke="#000000" stroke-miterlimit="10" points="81.2,833.7 296.8,749.2 291,795.8 "/>
<polygon fill="none" points="291,795.8 524.1,822 356.6,926.9 "/>
<polygon fill="none" stroke="#000000" stroke-miterlimit="10" points="291,795.8 524.1,822 356.6,926.9 "/>
<polygon fill="none" points="356.6,926.9 524.1,822 471.6,976.5 "/>
<polygon fill="none" stroke="#000000" stroke-miterlimit="10" points="356.6,926.9 524.1,822 471.6,976.5 "/>
<polygon fill="none" points="524.1,822 677.1,731.7 663.9,941.5 "/>
<polygon fill="none" stroke="#000000" stroke-miterlimit="10" points="524.1,822 677.1,731.7 663.9,941.5 "/>
<polygon fill="none" points="663.9,941.5 677.1,731.7 876.6,899.3 "/>
<polygon fill="none" stroke="#000000" stroke-miterlimit="10" points="663.9,941.5 677.1,731.7 876.6,899.3 "/>
<polygon fill="none" points="663.9,941.5 748.4,1021.6 876.6,899.3 "/>
<polygon fill="none" stroke="#000000" stroke-miterlimit="10" points="663.9,941.5 748.4,1021.6 876.6,899.3 "/>
<polygon fill="none" points="677.1,731.7 800.9,708.4 876.6,899.3 "/>
<polygon fill="none" stroke="#000000" stroke-miterlimit="10" points="677.1,731.7 800.9,708.4 876.6,899.3 "/>
<polygon fill="none" points="1156.3,712.8 1287.4,769.6 1207.3,897.8 "/>
<polygon fill="none" stroke="#000000" stroke-miterlimit="10" points="1156.3,712.8 1287.4,769.6 1207.3,897.8 "/>
<polygon fill="none" points="748.4,1021.6 876.6,899.3 978.6,903.6 "/>
<polygon fill="none" stroke="#000000" stroke-miterlimit="10" points="748.4,1021.6 876.6,899.3 978.6,903.6 "/>
<polygon fill="none" points="1156.3,712.8 1207.3,897.8 978.6,903.6 "/>
<polygon fill="none" stroke="#000000" stroke-miterlimit="10" points="1156.3,712.8 1207.3,897.8 978.6,903.6 "/>
<polygon fill="none" points="800.9,708.4 876.6,899.3 991.7,730.3 "/>
<polygon fill="none" stroke="#000000" stroke-miterlimit="10" points="800.9,708.4 876.6,899.3 991.7,730.3 "/>
<polygon fill="none" points="800.9,708.4 904.3,626.8 991.7,730.3 "/>
<polygon fill="none" stroke="#000000" stroke-miterlimit="10" points="800.9,708.4 904.3,626.8 991.7,730.3 "/>
<polygon fill="none" points="876.6,899.3 978.6,903.6 991.7,730.3 "/>
<polygon fill="none" stroke="#000000" stroke-miterlimit="10" points="876.6,899.3 978.6,903.6 991.7,730.3 "/>
<polygon fill="none" points="978.6,903.6 1156.3,712.8 991.7,730.3 "/>
<polygon fill="none" stroke="#000000" stroke-miterlimit="10" points="978.6,903.6 1156.3,712.8 991.7,730.3 "/>
<polygon fill="none" points="904.3,626.8 917.4,492.8 1048.5,600.6 "/>
<polygon fill="none" stroke="#000000" stroke-miterlimit="10" points="904.3,626.8 917.4,492.8 1048.5,600.6 "/>
<polygon fill="none" points="904.3,626.8 991.7,730.3 1048.5,600.6 "/>
<polygon fill="none" stroke="#000000" stroke-miterlimit="10" points="904.3,626.8 991.7,730.3 1048.5,600.6 "/>
<polygon fill="none" points="917.4,492.8 1063.1,408.3 1048.5,600.6 "/>
<polygon fill="none" stroke="#000000" stroke-miterlimit="10" points="917.4,492.8 1063.1,408.3 1048.5,600.6 "/>
<polygon fill="none" points="991.7,730.3 1156.3,712.8 1048.5,600.6 "/>
<polygon fill="none" stroke="#000000" stroke-miterlimit="10" points="991.7,730.3 1156.3,712.8 1048.5,600.6 "/>
<polygon fill="none" points="1048.5,600.6 1063.1,408.3 1255.4,526.3 "/>
<polygon fill="none" stroke="#000000" stroke-miterlimit="10" points="1048.5,600.6 1063.1,408.3 1255.4,526.3 "/>
<polygon fill="none" points="1048.5,600.6 1156.3,712.8 1255.4,526.3 "/>
<polygon fill="none" stroke="#000000" stroke-miterlimit="10" points="1048.5,600.6 1156.3,712.8 1255.4,526.3 "/>
<polygon fill="none" points="1156.3,712.8 1342.8,571.5 1255.4,526.3 "/>
<polygon fill="none" stroke="#000000" stroke-miterlimit="10" points="1156.3,712.8 1342.8,571.5 1255.4,526.3 "/>
<polygon fill="none" points="1084.9,106.8 1337,135.9 1230.6,281.6 "/>
<polygon fill="none" stroke="#000000" stroke-miterlimit="10" points="1084.9,106.8 1337,135.9 1230.6,281.6 "/>
<polygon fill="none" points="1337,135.9 1422.9,299.1 1230.6,281.6 "/>
<polygon fill="none" stroke="#000000" stroke-miterlimit="10" points="1337,135.9 1422.9,299.1 1230.6,281.6 "/>
<polygon fill="none" points="787.8,134.5 821.3,61.6 851.9,170.9 "/>
<polygon fill="none" stroke="#000000" stroke-miterlimit="10" points="787.8,134.5 821.3,61.6 851.9,170.9 "/>
<polygon fill="none" points="787.8,134.5 830,221.9 851.9,170.9 "/>
<polygon fill="none" stroke="#000000" stroke-miterlimit="10" points="787.8,134.5 830,221.9 851.9,170.9 "/>
<polygon fill="none" points="821.3,61.6 879.5,6.3 851.9,170.9 "/>
<polygon fill="none" stroke="#000000" stroke-miterlimit="10" points="821.3,61.6 879.5,6.3 851.9,170.9 "/>
<polygon fill="none" points="879.5,6.3 1084.9,106.8 851.9,170.9 "/>
<polygon fill="none" stroke="#000000" stroke-miterlimit="10" points="879.5,6.3 1084.9,106.8 851.9,170.9 "/>
<polygon fill="none" points="1335.5,17.9 1337,135.9 1479.7,134.5 "/>
<polygon fill="none" stroke="#000000" stroke-miterlimit="10" points="1335.5,17.9 1337,135.9 1479.7,134.5 "/>
<polygon fill="none" points="1337,135.9 1422.9,299.1 1479.7,134.5 "/>
<polygon fill="none" stroke="#000000" stroke-miterlimit="10" points="1337,135.9 1422.9,299.1 1479.7,134.5 "/>
<polygon fill="none" points="1422.9,299.1 1609.4,186.9 1479.7,134.5 "/>
<polygon fill="none" stroke="#000000" stroke-miterlimit="10" points="1422.9,299.1 1609.4,186.9 1479.7,134.5 "/>
<polygon fill="none" points="1479.7,134.5 1609.4,186.9 1549.6,50 "/>
<polygon fill="none" stroke="#000000" stroke-miterlimit="10" points="1479.7,134.5 1609.4,186.9 1549.6,50 "/>
<polygon fill="none" points="1609.4,186.9 1673.5,431.6 1784.2,246.6 "/>
<polygon fill="none" stroke="#000000" stroke-miterlimit="10" points="1609.4,186.9 1673.5,431.6 1784.2,246.6 "/>
<polygon fill="none" points="1609.4,186.9 1759.4,99.5 1784.2,246.6 "/>
<polygon fill="none" stroke="#000000" stroke-miterlimit="10" points="1609.4,186.9 1759.4,99.5 1784.2,246.6 "/>
<polygon fill="none" points="1759.4,99.5 1843.9,1.9 1784.2,246.6 "/>
<polygon fill="none" stroke="#000000" stroke-miterlimit="10" points="1759.4,99.5 1843.9,1.9 1784.2,246.6 "/>
<polygon fill="none" points="1673.5,431.6 1784.2,246.6 1790,462.2 "/>
<polygon fill="none" stroke="#000000" stroke-miterlimit="10" points="1673.5,431.6 1784.2,246.6 1790,462.2 "/>
<polygon fill="none" points="1784.2,246.6 1843.9,1.9 1790,462.2 "/>
<polygon fill="none" stroke="#000000" stroke-miterlimit="10" points="1784.2,246.6 1843.9,1.9 1790,462.2 "/>
<polygon fill="none" points="1801.7,701.1 1849.7,827.9 1790,462.2 "/>
<polygon fill="none" stroke="#000000" stroke-miterlimit="10" points="1801.7,701.1 1849.7,827.9 1790,462.2 "/>
<polygon fill="none" points="1843.9,1.9 1849.7,827.9 1790,462.2 "/>
<polygon fill="none" stroke="#000000" stroke-miterlimit="10" points="1843.9,1.9 1849.7,827.9 1790,462.2 "/>
<polygon fill="none" points="1673.5,431.6 1790,462.2 1660.4,631.2 "/>
<polygon fill="none" stroke="#000000" stroke-miterlimit="10" points="1673.5,431.6 1790,462.2 1660.4,631.2 "/>
<polygon fill="none" points="1790,462.2 1801.7,701.1 1660.4,631.2 "/>
<polygon fill="none" stroke="#000000" stroke-miterlimit="10" points="1790,462.2 1801.7,701.1 1660.4,631.2 "/>
<polygon fill="none" points="1660.4,631.2 1673.5,431.6 1471,621 "/>
<polygon fill="none" stroke="#000000" stroke-miterlimit="10" points="1660.4,631.2 1673.5,431.6 1471,621 "/>
<polygon fill="none" points="1342.8,571.5 1422.9,299.1 1471,621 "/>
<polygon fill="none" stroke="#000000" stroke-miterlimit="10" points="1342.8,571.5 1422.9,299.1 1471,621 "/>
<polygon fill="none" points="1422.9,299.1 1673.5,431.6 1471,621 "/>
<polygon fill="none" stroke="#000000" stroke-miterlimit="10" points="1422.9,299.1 1673.5,431.6 1471,621 "/>
<polygon fill="none" points="1063.1,408.3 1230.6,281.6 1299.1,361.7 "/>
<polygon fill="none" stroke="#000000" stroke-miterlimit="10" points="1063.1,408.3 1230.6,281.6 1299.1,361.7 "/>
<polygon fill="none" points="1063.1,408.3 1255.4,526.3 1299.1,361.7 "/>
<polygon fill="none" stroke="#000000" stroke-miterlimit="10" points="1063.1,408.3 1255.4,526.3 1299.1,361.7 "/>
<polygon fill="none" points="1230.6,281.6 1422.9,299.1 1299.1,361.7 "/>
<polygon fill="none" stroke="#000000" stroke-miterlimit="10" points="1230.6,281.6 1422.9,299.1 1299.1,361.7 "/>
<polygon fill="none" points="1255.4,526.3 1342.8,571.5 1299.1,361.7 "/>
<polygon fill="none" stroke="#000000" stroke-miterlimit="10" points="1255.4,526.3 1342.8,571.5 1299.1,361.7 "/>
<polygon fill="none" points="1342.8,571.5 1422.9,299.1 1299.1,361.7 "/>
<polygon fill="none" stroke="#000000" stroke-miterlimit="10" points="1342.8,571.5 1422.9,299.1 1299.1,361.7 "/>
<polygon fill="none" points="212.3,414.2 212.3,265.6 403.2,385 "/>
<polygon fill="none" stroke="#000000" stroke-miterlimit="10" points="212.3,414.2 212.3,265.6 403.2,385 "/>
<polygon fill="none" points="212.3,265.6 457.1,210.2 403.2,385 "/>
<polygon fill="none" stroke="#000000" stroke-miterlimit="10" points="212.3,265.6 457.1,210.2 403.2,385 "/>
<polygon fill="none" points="457.1,210.2 535.7,364.6 403.2,385 "/>
<polygon fill="none" stroke="#000000" stroke-miterlimit="10" points="457.1,210.2 535.7,364.6 403.2,385 "/>
<polygon fill="none" points="465.8,510.3 535.7,364.6 403.2,385 "/>
<polygon fill="none" stroke="#000000" stroke-miterlimit="10" points="465.8,510.3 535.7,364.6 403.2,385 "/>
<polygon fill="none" points="212.3,414.2 267.7,658.9 384.2,555.5 "/>
<polygon fill="none" stroke="#000000" stroke-miterlimit="10" points="212.3,414.2 267.7,658.9 384.2,555.5 "/>
<polygon fill="none" points="212.3,414.2 403.2,385 384.2,555.5 "/>
<polygon fill="none" stroke="#000000" stroke-miterlimit="10" points="212.3,414.2 403.2,385 384.2,555.5 "/>
<polygon fill="none" points="403.2,385 465.8,510.3 384.2,555.5 "/>
<polygon fill="none" stroke="#000000" stroke-miterlimit="10" points="403.2,385 465.8,510.3 384.2,555.5 "/>
<polygon fill="none" points="296.8,749.2 524.1,822 503.7,664.7 "/>
<polygon fill="none" stroke="#000000" stroke-miterlimit="10" points="296.8,749.2 524.1,822 503.7,664.7 "/>
<polygon fill="none" points="384.2,555.5 465.8,510.3 503.7,664.7 "/>
<polygon fill="none" stroke="#000000" stroke-miterlimit="10" points="384.2,555.5 465.8,510.3 503.7,664.7 "/>
<polygon fill="none" points="465.8,510.3 655.2,446.2 503.7,664.7 "/>
<polygon fill="none" stroke="#000000" stroke-miterlimit="10" points="465.8,510.3 655.2,446.2 503.7,664.7 "/>
<polygon fill="none" points="524.1,822 677.1,731.7 503.7,664.7 "/>
<polygon fill="none" stroke="#000000" stroke-miterlimit="10" points="524.1,822 677.1,731.7 503.7,664.7 "/>
<polygon fill="none" points="655.2,446.2 677.1,731.7 503.7,664.7 "/>
<polygon fill="none" stroke="#000000" stroke-miterlimit="10" points="655.2,446.2 677.1,731.7 503.7,664.7 "/>
<polygon fill="none" points="267.7,658.9 296.8,749.2 352.2,642.9 "/>
<polygon fill="none" stroke="#000000" stroke-miterlimit="10" points="267.7,658.9 296.8,749.2 352.2,642.9 "/>
<polygon fill="none" points="267.7,658.9 384.2,555.5 352.2,642.9 "/>
<polygon fill="none" stroke="#000000" stroke-miterlimit="10" points="267.7,658.9 384.2,555.5 352.2,642.9 "/>
<polygon fill="none" points="296.8,749.2 503.7,664.7 352.2,642.9 "/>
<polygon fill="none" stroke="#000000" stroke-miterlimit="10" points="296.8,749.2 503.7,664.7 352.2,642.9 "/>
<polygon fill="none" points="384.2,555.5 503.7,664.7 352.2,642.9 "/>
<polygon fill="none" stroke="#000000" stroke-miterlimit="10" points="384.2,555.5 503.7,664.7 352.2,642.9 "/>
<polygon fill="none" points="1471,621 1660.4,631.2 1609.4,813.3 "/>
<polygon fill="none" stroke="#000000" stroke-miterlimit="10" points="1471,621 1660.4,631.2 1609.4,813.3 "/>
<polygon fill="none" points="1660.4,631.2 1801.7,701.1 1609.4,813.3 "/>
<polygon fill="none" stroke="#000000" stroke-miterlimit="10" points="1660.4,631.2 1801.7,701.1 1609.4,813.3 "/>
<polygon fill="none" points="1609.4,813.3 1801.7,701.1 1692.4,880.3 "/>
<polygon fill="none" stroke="#000000" stroke-miterlimit="10" points="1609.4,813.3 1801.7,701.1 1692.4,880.3 "/>
<polygon fill="none" points="1801.7,701.1 1849.7,827.9 1692.4,880.3 "/>
<polygon fill="none" stroke="#000000" stroke-miterlimit="10" points="1801.7,701.1 1849.7,827.9 1692.4,880.3 "/>
<polygon fill="none" points="1836.6,1005.6 1849.7,827.9 1692.4,880.3 "/>
<polygon fill="none" stroke="#000000" stroke-miterlimit="10" points="1836.6,1005.6 1849.7,827.9 1692.4,880.3 "/>
<polygon fill="none" points="1485.6,951.7 1609.4,813.3 1584.6,969.2 "/>
<polygon fill="none" stroke="#000000" stroke-miterlimit="10" points="1485.6,951.7 1609.4,813.3 1584.6,969.2 "/>
<polygon fill="none" points="1609.4,813.3 1692.4,880.3 1584.6,969.2 "/>
<polygon fill="none" stroke="#000000" stroke-miterlimit="10" points="1609.4,813.3 1692.4,880.3 1584.6,969.2 "/>
<polygon fill="none" points="1692.4,880.3 1836.6,1005.6 1584.6,969.2 "/>
<polygon fill="none" stroke="#000000" stroke-miterlimit="10" points="1692.4,880.3 1836.6,1005.6 1584.6,969.2 "/>
<polygon fill="none" points="655.2,446.2 669.8,248.1 741.1,335.5 "/>
<polygon fill="none" stroke="#000000" stroke-miterlimit="10" points="655.2,446.2 669.8,248.1 741.1,335.5 "/>
<polygon fill="none" points="655.2,446.2 770.3,449.1 741.1,335.5 "/>
<polygon fill="none" stroke="#000000" stroke-miterlimit="10" points="655.2,446.2 770.3,449.1 741.1,335.5 "/>
<polygon fill="none" points="669.8,248.1 830,221.9 741.1,335.5 "/>
<polygon fill="none" stroke="#000000" stroke-miterlimit="10" points="669.8,248.1 830,221.9 741.1,335.5 "/>
<polygon fill="none" points="770.3,449.1 873.7,350.1 741.1,335.5 "/>
<polygon fill="none" stroke="#000000" stroke-miterlimit="10" points="770.3,449.1 873.7,350.1 741.1,335.5 "/>
<polygon fill="none" points="830,221.9 873.7,350.1 741.1,335.5 "/>
<polygon fill="none" stroke="#000000" stroke-miterlimit="10" points="830,221.9 873.7,350.1 741.1,335.5 "/>
<polygon fill="none" points="830,221.9 851.9,170.9 1038.3,259.7 "/>
<polygon fill="none" stroke="#000000" stroke-miterlimit="10" points="830,221.9 851.9,170.9 1038.3,259.7 "/>
<polygon fill="none" points="830,221.9 873.7,350.1 1038.3,259.7 "/>
<polygon fill="none" stroke="#000000" stroke-miterlimit="10" points="830,221.9 873.7,350.1 1038.3,259.7 "/>
<polygon fill="none" points="851.9,170.9 1084.9,106.8 1038.3,259.7 "/>
<polygon fill="none" stroke="#000000" stroke-miterlimit="10" points="851.9,170.9 1084.9,106.8 1038.3,259.7 "/>
<polygon fill="none" points="873.7,350.1 1063.1,408.3 1038.3,259.7 "/>
<polygon fill="none" stroke="#000000" stroke-miterlimit="10" points="873.7,350.1 1063.1,408.3 1038.3,259.7 "/>
<polygon fill="none" points="1063.1,408.3 1230.6,281.6 1038.3,259.7 "/>
<polygon fill="none" stroke="#000000" stroke-miterlimit="10" points="1063.1,408.3 1230.6,281.6 1038.3,259.7 "/>
<polygon fill="none" points="1084.9,106.8 1230.6,281.6 1038.3,259.7 "/>
<polygon fill="none" stroke="#000000" stroke-miterlimit="10" points="1084.9,106.8 1230.6,281.6 1038.3,259.7 "/>
<polygon fill="none" points="1549.6,50 1609.4,186.9 1724.5,52.9 "/>
<polygon fill="none" stroke="#000000" stroke-miterlimit="10" points="1549.6,50 1609.4,186.9 1724.5,52.9 "/>
<polygon fill="none" points="1609.4,186.9 1759.4,99.5 1724.5,52.9 "/>
<polygon fill="none" stroke="#000000" stroke-miterlimit="10" points="1609.4,186.9 1759.4,99.5 1724.5,52.9 "/>
<polygon fill="none" points="1759.4,99.5 1843.9,1.9 1724.5,52.9 "/>
<polygon fill="none" stroke="#000000" stroke-miterlimit="10" points="1759.4,99.5 1843.9,1.9 1724.5,52.9 "/>
<polygon fill="none" points="1479.7,134.5 1549.6,50 1522,1.9 "/>
<polygon fill="none" stroke="#000000" stroke-miterlimit="10" points="1479.7,134.5 1549.6,50 1522,1.9 "/>
<polygon fill="none" points="1549.6,50 1724.5,52.9 1522,1.9 "/>
<polygon fill="none" stroke="#000000" stroke-miterlimit="10" points="1549.6,50 1724.5,52.9 1522,1.9 "/>
<polygon fill="none" points="1724.5,52.9 1843.9,1.9 1522,1.9 "/>
<polygon fill="none" stroke="#000000" stroke-miterlimit="10" points="1724.5,52.9 1843.9,1.9 1522,1.9 "/>
<polygon fill="none" points="1055.8,3.3 1335.5,17.9 1522,1.9 "/>
<polygon fill="none" stroke="#000000" stroke-miterlimit="10" points="1055.8,3.3 1335.5,17.9 1522,1.9 "/>
<polygon fill="none" points="1335.5,17.9 1479.7,134.5 1522,1.9 "/>
<polygon fill="none" stroke="#000000" stroke-miterlimit="10" points="1335.5,17.9 1479.7,134.5 1522,1.9 "/>
<polygon fill="none" points="174.5,192.7 264.8,130.1 210.9,99.5 "/>
<polygon fill="none" stroke="#000000" stroke-miterlimit="10" points="174.5,192.7 264.8,130.1 210.9,99.5 "/>
<polygon fill="none" points="264.8,130.1 419.2,47.1 210.9,99.5 "/>
<polygon fill="none" stroke="#000000" stroke-miterlimit="10" points="264.8,130.1 419.2,47.1 210.9,99.5 "/>
<polygon fill="none" points="81.2,147.6 174.5,192.7 210.9,99.5 "/>
<polygon fill="none" stroke="#000000" stroke-miterlimit="10" points="81.2,147.6 174.5,192.7 210.9,99.5 "/>
<polygon fill="none" points="81.2,147.6 123.5,58.7 210.9,99.5 "/>
<polygon fill="none" stroke="#000000" stroke-miterlimit="10" points="81.2,147.6 123.5,58.7 210.9,99.5 "/>
<polygon fill="none" points="123.5,58.7 419.2,47.1 210.9,99.5 "/>
<polygon fill="none" stroke="#000000" stroke-miterlimit="10" points="123.5,58.7 419.2,47.1 210.9,99.5 "/>
<polygon fill="none" points="264.8,130.1 419.2,47.1 462.9,178.2 "/>
<polygon fill="none" stroke="#000000" stroke-miterlimit="10" points="264.8,130.1 419.2,47.1 462.9,178.2 "/>
<polygon fill="none" points="264.8,130.1 457.1,210.2 462.9,178.2 "/>
<polygon fill="none" stroke="#000000" stroke-miterlimit="10" points="264.8,130.1 457.1,210.2 462.9,178.2 "/>
<polygon fill="none" points="457.1,210.2 669.8,248.1 462.9,178.2 "/>
<polygon fill="none" stroke="#000000" stroke-miterlimit="10" points="457.1,210.2 669.8,248.1 462.9,178.2 "/>
<polygon fill="none" points="419.2,47.1 444,23.7 483.3,112.6 "/>
<polygon fill="none" stroke="#000000" stroke-miterlimit="10" points="419.2,47.1 444,23.7 483.3,112.6 "/>
<polygon fill="none" points="419.2,47.1 462.9,178.2 483.3,112.6 "/>
<polygon fill="none" stroke="#000000" stroke-miterlimit="10" points="419.2,47.1 462.9,178.2 483.3,112.6 "/>
<polygon fill="none" points="444,23.7 594,25.2 483.3,112.6 "/>
<polygon fill="none" stroke="#000000" stroke-miterlimit="10" points="444,23.7 594,25.2 483.3,112.6 "/>
<polygon fill="none" points="462.9,178.2 669.8,248.1 483.3,112.6 "/>
<polygon fill="none" stroke="#000000" stroke-miterlimit="10" points="462.9,178.2 669.8,248.1 483.3,112.6 "/>
<polygon fill="none" points="594,25.2 669.8,248.1 483.3,112.6 "/>
<polygon fill="none" stroke="#000000" stroke-miterlimit="10" points="594,25.2 669.8,248.1 483.3,112.6 "/>
<polygon fill="none" points="291,795.8 356.6,926.9 244.4,877.4 "/>
<polygon fill="none" stroke="#000000" stroke-miterlimit="10" points="291,795.8 356.6,926.9 244.4,877.4 "/>
<polygon fill="none" points="81.2,833.7 158.4,947.3 244.4,877.4 "/>
<polygon fill="none" stroke="#000000" stroke-miterlimit="10" points="81.2,833.7 158.4,947.3 244.4,877.4 "/>
<polygon fill="none" points="81.2,833.7 291,795.8 244.4,877.4 "/>
<polygon fill="none" stroke="#000000" stroke-miterlimit="10" points="81.2,833.7 291,795.8 244.4,877.4 "/>
<polygon fill="none" points="158.4,947.3 244.4,877.4 308.5,996.9 "/>
<polygon fill="none" stroke="#000000" stroke-miterlimit="10" points="158.4,947.3 244.4,877.4 308.5,996.9 "/>
<polygon fill="none" points="244.4,877.4 356.6,926.9 308.5,996.9 "/>
<polygon fill="none" stroke="#000000" stroke-miterlimit="10" points="244.4,877.4 356.6,926.9 308.5,996.9 "/>
<polygon fill="none" points="356.6,926.9 471.6,976.5 308.5,996.9 "/>
<polygon fill="none" stroke="#000000" stroke-miterlimit="10" points="356.6,926.9 471.6,976.5 308.5,996.9 "/>
<polygon fill="none" points="2.6,1027.5 158.4,947.3 308.5,996.9 "/>
<polygon fill="none" stroke="#000000" stroke-miterlimit="10" points="2.6,1027.5 158.4,947.3 308.5,996.9 "/>
<polygon fill="none" points="308.5,996.9 471.6,976.5 547.4,1014.3 "/>
<polygon fill="none" stroke="#000000" stroke-miterlimit="10" points="308.5,996.9 471.6,976.5 547.4,1014.3 "/>
<polygon fill="none" points="471.6,976.5 524.1,822 547.4,1014.3 "/>
<polygon fill="none" stroke="#000000" stroke-miterlimit="10" points="471.6,976.5 524.1,822 547.4,1014.3 "/>
<polygon fill="none" points="524.1,822 663.9,941.5 547.4,1014.3 "/>
<polygon fill="none" stroke="#000000" stroke-miterlimit="10" points="524.1,822 663.9,941.5 547.4,1014.3 "/>
<polygon fill="none" points="663.9,941.5 748.4,1021.6 547.4,1014.3 "/>
<polygon fill="none" stroke="#000000" stroke-miterlimit="10" points="663.9,941.5 748.4,1021.6 547.4,1014.3 "/>
<polygon fill="none" points="2.6,1027.5 308.5,996.9 547.4,1014.3 "/>
<polygon fill="none" stroke="#000000" stroke-miterlimit="10" points="2.6,1027.5 308.5,996.9 547.4,1014.3 "/>
<polygon fill="none" points="2.6,1027.5 748.4,1021.6 547.4,1014.3 "/>
<polygon fill="none" stroke="#000000" stroke-miterlimit="10" points="2.6,1027.5 748.4,1021.6 547.4,1014.3 "/>
<polygon fill="none" points="748.4,1021.6 978.6,903.6 1115.5,985.2 "/>
<polygon fill="none" stroke="#000000" stroke-miterlimit="10" points="748.4,1021.6 978.6,903.6 1115.5,985.2 "/>
<polygon fill="none" points="748.4,1021.6 1236.4,993.9 1115.5,985.2 "/>
<polygon fill="none" stroke="#000000" stroke-miterlimit="10" points="748.4,1021.6 1236.4,993.9 1115.5,985.2 "/>
<polygon fill="none" points="978.6,903.6 1207.3,897.8 1115.5,985.2 "/>
<polygon fill="none" stroke="#000000" stroke-miterlimit="10" points="978.6,903.6 1207.3,897.8 1115.5,985.2 "/>
<polygon fill="none" points="1207.3,897.8 1236.4,993.9 1115.5,985.2 "/>
<polygon fill="none" stroke="#000000" stroke-miterlimit="10" points="1207.3,897.8 1236.4,993.9 1115.5,985.2 "/>
<polygon fill="none" points="748.4,1021.6 1236.4,993.9 1374.8,1008.5 "/>
<polygon fill="none" stroke="#000000" stroke-miterlimit="10" points="748.4,1021.6 1236.4,993.9 1374.8,1008.5 "/>
<polygon fill="none" points="1207.3,897.8 1236.4,993.9 1374.8,1008.5 "/>
<polygon fill="none" stroke="#000000" stroke-miterlimit="10" points="1207.3,897.8 1236.4,993.9 1374.8,1008.5 "/>
<polygon fill="none" points="1207.3,897.8 1287.4,769.6 1374.8,1008.5 "/>
<polygon fill="none" stroke="#000000" stroke-miterlimit="10" points="1207.3,897.8 1287.4,769.6 1374.8,1008.5 "/>
<polygon fill="none" points="1287.4,769.6 1485.6,951.7 1374.8,1008.5 "/>
<polygon fill="none" stroke="#000000" stroke-miterlimit="10" points="1287.4,769.6 1485.6,951.7 1374.8,1008.5 "/>
<polygon fill="none" points="1485.6,951.7 1584.6,969.2 1487,993.9 "/>
<polygon fill="none" stroke="#000000" stroke-miterlimit="10" points="1485.6,951.7 1584.6,969.2 1487,993.9 "/>
<polygon fill="none" points="1584.6,969.2 1836.6,1005.6 1487,993.9 "/>
<polygon fill="none" stroke="#000000" stroke-miterlimit="10" points="1584.6,969.2 1836.6,1005.6 1487,993.9 "/>
<polygon fill="none" points="1374.8,1008.5 1485.6,951.7 1487,993.9 "/>
<polygon fill="none" stroke="#000000" stroke-miterlimit="10" points="1374.8,1008.5 1485.6,951.7 1487,993.9 "/>
<polygon fill="none" points="1374.8,1008.5 1836.6,1005.6 1487,993.9 "/>
<polygon fill="none" stroke="#000000" stroke-miterlimit="10" points="1374.8,1008.5 1836.6,1005.6 1487,993.9 "/>
<polygon fill="none" points="1471,621 1609.4,813.3 1393.8,667.6 "/>
<polygon fill="none" stroke="#000000" stroke-miterlimit="10" points="1471,621 1609.4,813.3 1393.8,667.6 "/>
<polygon fill="none" points="1485.6,951.7 1609.4,813.3 1393.8,667.6 "/>
<polygon fill="none" stroke="#000000" stroke-miterlimit="10" points="1485.6,951.7 1609.4,813.3 1393.8,667.6 "/>
<polygon fill="none" points="1287.4,769.6 1485.6,951.7 1393.8,667.6 "/>
<polygon fill="none" stroke="#000000" stroke-miterlimit="10" points="1287.4,769.6 1485.6,951.7 1393.8,667.6 "/>
<polygon fill="none" points="1287.4,769.6 1342.8,571.5 1393.8,667.6 "/>
<polygon fill="none" stroke="#000000" stroke-miterlimit="10" points="1287.4,769.6 1342.8,571.5 1393.8,667.6 "/>
<polygon fill="none" points="1342.8,571.5 1471,621 1393.8,667.6 "/>
<polygon fill="none" stroke="#000000" stroke-miterlimit="10" points="1342.8,571.5 1471,621 1393.8,667.6 "/>
</svg>
