<?xml version="1.0" encoding="iso-8859-1"?>
<!-- Generator: Adobe Illustrator 18.1.1, SVG Export Plug-In . SVG Version: 6.00 Build 0)  -->
<svg version="1.1" xmlns="http://www.w3.org/2000/svg" xmlns:xlink="http://www.w3.org/1999/xlink" x="0px" y="0px"
	 viewBox="0 0 542.636 165.918" style="enable-background:new 0 0 542.636 165.918;" xml:space="preserve">
<g id="Calque_2" style="display:none;">
</g>
<g id="Calque_1">
	<g>
		<g>
			<polygon style="fill:#3B3B3B;" points="123.616,90.299 92.008,109.246 90.865,93.01 112.323,70.287 90.446,87.065 89.485,73.413 
				102.031,53.706 88.971,66.115 86.04,24.48 86.043,137.733 94.014,137.733 92.607,117.756 			"/>
			<polygon style="fill:#008A80;" points="118.828,80.463 94.26,101.845 117.658,93.166 			"/>
			<polygon style="fill:#35BBB0;" points="118.828,80.463 117.658,93.166 131.299,101.841 			"/>
			<g>
				<polygon style="fill:#35BBB0;" points="108.273,72.866 108.089,62.183 117.778,78.758 				"/>
			</g>
			<polygon style="fill:#008A80;" points="91.768,78.768 108.273,72.866 108.089,62.183 			"/>
			<polygon style="fill:#006E66;" points="94.26,101.845 131.299,101.841 117.658,93.166 			"/>
			<polygon style="fill:#006E66;" points="91.768,78.768 117.778,78.758 108.273,72.866 			"/>
			<g>
				<polygon style="fill:#35BBB0;" points="86.04,24.48 97.407,54.757 107.32,60.804 				"/>
				<polygon style="fill:#008A80;" points="86.039,60.809 86.04,24.48 97.407,54.757 				"/>
				<polygon style="fill:#006E66;" points="86.039,60.809 107.32,60.804 97.407,54.757 				"/>
			</g>
			<g>
				<path style="fill:#00B7AA;" d="M146.108,120.776l-0.123-0.074l-0.074,0.122c-12.492,20.722-34.349,33.976-58.464,35.454
					c-1.494,0.092-3.012,0.139-4.508,0.139c-17.933,0-35.211-6.549-48.653-18.441c-14.695-12.999-23.448-30.945-24.647-50.529
					c-1.198-19.586,5.301-38.465,18.3-53.16c13-14.696,30.945-23.45,50.529-24.649c1.479-0.091,2.982-0.137,4.47-0.137
					c22.738,0,43.83,10.269,57.868,28.174l0.088,0.112l7.477-5.862l-0.088-0.112C132.425,11.596,108.635,0,83.014,0
					c-1.683,0-3.407,0.054-5.126,0.159C55.772,1.513,35.506,11.398,20.824,27.995C6.144,44.591-1.196,65.911,0.159,88.03
					c1.353,22.115,11.24,42.38,27.837,57.062c15.18,13.43,34.66,20.826,54.852,20.826c1.7,0,3.443-0.054,5.182-0.16
					c27.232-1.668,51.91-16.632,66.018-40.029l0.074-0.122L146.108,120.776z"/>
				<path style="fill:#222222;" d="M86.043,137.733L86.04,24.48l-2.853,40.549L70.012,55.85l12.913,12.894l-0.741,10.527
					L61.838,68.198l19.977,16.331L80.813,98.77L52.277,83.946c0,0,21.886,17.103,28.01,22.292l-0.925,13.153l-38.795-14.654
					c0,0,29.152,17.373,38.198,23.145l-0.693,9.851H86.043z"/>
				<polygon style="fill:#008A80;" points="33.812,113.925 45.105,94.507 47.787,106.879 				"/>
				<polygon style="fill:#008A80;" points="55.687,76.37 57.029,86.813 46.32,92.492 				"/>
				<polygon style="fill:#00B7AA;" points="55.687,76.37 78.594,92.481 57.029,86.813 				"/>
				<g>
					<polygon style="fill:#00B7AA;" points="64.062,62.145 80.576,74.493 59.923,74.344 					"/>
				</g>
				<polygon style="fill:#00B7AA;" points="45.105,94.507 47.787,106.879 76.235,113.933 				"/>
				<polygon style="fill:#006E66;" points="56.79,74.513 80.576,74.493 64.952,69.863 				"/>
				<polygon style="fill:#006E66;" points="46.32,92.492 78.594,92.481 57.029,86.813 				"/>
				<polygon style="fill:#006E66;" points="33.812,113.925 76.235,113.933 47.787,106.879 				"/>
				<polygon style="fill:#008A80;" points="64.062,62.145 64.952,69.863 56.79,74.513 				"/>
				<g>
					<polygon style="fill:#008A80;" points="86.029,24.48 74.662,54.757 64.749,60.804 					"/>
					<polygon style="fill:#35BBB0;" points="86.03,60.809 86.029,24.48 74.662,54.757 					"/>
					<polygon style="fill:#006E66;" points="86.03,60.809 64.749,60.804 74.662,54.757 					"/>
				</g>
			</g>
		</g>
	</g>
	<g>
		<g>
			<rect x="187.355" y="134.25" style="fill:#009A9E;" width="20.753" height="1.671"/>
			<rect x="507.47" y="134.25" style="fill:#009A9E;" width="20.753" height="1.671"/>
			<g>
				<path style="fill:#009A9E;" d="M217.109,144.544l8.026-18.971h2.034l7.999,18.971h-2.639l-2.309-5.557h-8.191l-2.282,5.557
					H217.109z M226.152,128.352l-3.629,8.764h7.146L226.152,128.352z"/>
				<path style="fill:#009A9E;" d="M253.748,144.544v-18.971h8.356c0.861,0,1.654,0.174,2.378,0.521
					c0.724,0.347,1.347,0.811,1.869,1.39c0.522,0.579,0.93,1.229,1.224,1.951c0.292,0.721,0.439,1.456,0.439,2.204
					c0,0.659-0.096,1.296-0.289,1.911s-0.468,1.171-0.825,1.67s-0.788,0.926-1.292,1.282c-0.504,0.356-1.068,0.614-1.691,0.775
					l4.728,7.268h-2.803l-4.453-6.814h-5.168v6.814H253.748z M256.222,135.593h5.91c0.513,0,0.976-0.107,1.388-0.321
					c0.412-0.214,0.765-0.503,1.058-0.868c0.293-0.365,0.522-0.788,0.688-1.27c0.165-0.48,0.247-0.979,0.247-1.496
					c0-0.535-0.097-1.037-0.289-1.509c-0.193-0.472-0.45-0.891-0.77-1.256c-0.321-0.365-0.696-0.65-1.127-0.855
					c-0.431-0.205-0.884-0.307-1.36-0.307h-5.745V135.593z"/>
				<path style="fill:#009A9E;" d="M286.732,134.925c0-1.14,0.206-2.275,0.618-3.407c0.412-1.131,1.017-2.146,1.814-3.046
					c0.797-0.899,1.773-1.625,2.927-2.177c1.155-0.552,2.464-0.828,3.93-0.828c1.74,0,3.234,0.383,4.48,1.149
					s2.172,1.763,2.777,2.992l-1.952,1.229c-0.294-0.605-0.646-1.112-1.059-1.523c-0.412-0.41-0.862-0.739-1.346-0.988
					c-0.486-0.25-0.986-0.428-1.498-0.535c-0.513-0.107-1.017-0.161-1.512-0.161c-1.082,0-2.039,0.219-2.873,0.655
					c-0.834,0.436-1.535,1.007-2.103,1.709c-0.569,0.704-0.994,1.497-1.278,2.379c-0.284,0.882-0.426,1.768-0.426,2.658
					c0,0.997,0.17,1.946,0.509,2.846c0.338,0.9,0.811,1.697,1.416,2.391c0.605,0.695,1.319,1.247,2.144,1.657
					s1.722,0.614,2.694,0.614c0.513,0,1.04-0.062,1.58-0.187c0.54-0.124,1.059-0.325,1.554-0.601
					c0.494-0.276,0.957-0.623,1.388-1.042c0.431-0.419,0.784-0.922,1.059-1.51l2.062,1.096c-0.312,0.713-0.747,1.34-1.306,1.884
					c-0.559,0.544-1.191,1.002-1.896,1.376c-0.706,0.374-1.453,0.659-2.24,0.855c-0.788,0.196-1.557,0.294-2.308,0.294
					c-1.338,0-2.566-0.285-3.684-0.855s-2.085-1.314-2.9-2.231c-0.815-0.917-1.447-1.959-1.896-3.126
					C286.956,137.325,286.732,136.137,286.732,134.925z"/>
				<path style="fill:#009A9E;" d="M338.407,125.573v18.971h-2.474v-8.63h-10.748v8.63h-2.474v-18.971h2.474v8.203h10.748v-8.203
					H338.407z"/>
				<path style="fill:#009A9E;" d="M359.049,144.544V125.6h2.474v18.944H359.049z"/>
				<path style="fill:#009A9E;" d="M396.265,127.711h-6.734v16.833h-2.474v-16.833h-6.734v-2.138h15.942V127.711z"/>
				<path style="fill:#009A9E;" d="M428.316,142.407v2.137h-13.249v-18.971h13.001v2.138H417.54v6.145h9.153v2.004h-9.153v6.546
					H428.316z"/>
				<path style="fill:#009A9E;" d="M446.566,134.925c0-1.14,0.206-2.275,0.618-3.407c0.412-1.131,1.017-2.146,1.814-3.046
					c0.797-0.899,1.773-1.625,2.927-2.177c1.155-0.552,2.464-0.828,3.93-0.828c1.74,0,3.234,0.383,4.48,1.149
					s2.172,1.763,2.777,2.992l-1.952,1.229c-0.294-0.605-0.646-1.112-1.059-1.523c-0.412-0.41-0.862-0.739-1.346-0.988
					c-0.486-0.25-0.986-0.428-1.498-0.535c-0.513-0.107-1.017-0.161-1.512-0.161c-1.082,0-2.039,0.219-2.873,0.655
					c-0.834,0.436-1.535,1.007-2.103,1.709c-0.569,0.704-0.994,1.497-1.278,2.379c-0.284,0.882-0.426,1.768-0.426,2.658
					c0,0.997,0.17,1.946,0.509,2.846c0.338,0.9,0.811,1.697,1.416,2.391c0.605,0.695,1.319,1.247,2.144,1.657
					s1.722,0.614,2.694,0.614c0.513,0,1.04-0.062,1.58-0.187c0.54-0.124,1.059-0.325,1.554-0.601
					c0.494-0.276,0.957-0.623,1.388-1.042c0.431-0.419,0.784-0.922,1.059-1.51l2.062,1.096c-0.312,0.713-0.747,1.34-1.306,1.884
					c-0.559,0.544-1.191,1.002-1.896,1.376c-0.706,0.374-1.453,0.659-2.24,0.855c-0.788,0.196-1.557,0.294-2.308,0.294
					c-1.338,0-2.566-0.285-3.684-0.855s-2.085-1.314-2.9-2.231c-0.815-0.917-1.447-1.959-1.896-3.126
					C446.79,137.325,446.566,136.137,446.566,134.925z"/>
				<path style="fill:#009A9E;" d="M496.454,127.711h-6.734v16.833h-2.474v-16.833h-6.734v-2.138h15.942V127.711z"/>
			</g>
		</g>
		<g>
			<path style="fill:#222222;" d="M353.661,30.339h-25.767v76.009h25.673c21.648,0,39.259-17.048,39.259-38.004
				C392.826,47.487,375.257,30.437,353.661,30.339z M383.99,68.343c0,16.275-13.733,29.517-30.614,29.517h-16.742V38.826h16.742
				C370.257,38.826,383.99,52.068,383.99,68.343z"/>
			<path style="fill:#222222;" d="M539.301,51.642c0-11.799-11.686-21.397-26.052-21.397h-33.213v76.102h8.766V72.959h20.572
				l22.643,33.264l0.085,0.124h10.534l-23.162-34.022C530.99,69.965,539.301,61.326,539.301,51.642z M530.33,51.642
				c0,7.172-7.664,13.061-17.081,13.131h-24.446V38.43h24.422C522.655,38.498,530.33,44.426,530.33,51.642z"/>
			<polygon style="fill:#222222;" points="259.941,106.347 318.757,106.347 318.757,97.86 268.793,97.86 268.793,71.753 
				309.2,71.753 309.2,63.264 268.793,63.264 268.793,38.826 318.757,38.826 318.757,30.337 259.941,30.337 			"/>
			<path style="fill:#00B7AA;" d="M243.531,84.282c-5.613,8.723-15.442,14.303-26.293,14.926c-0.674,0.039-1.359,0.059-2.035,0.059
				c-8.063,0-15.835-2.758-21.879-7.762c-6.601-5.469-10.532-13.015-11.071-21.244c-0.537-8.234,2.383-16.168,8.218-22.343
				c5.844-6.186,13.914-9.871,22.724-10.378c0.712-0.044,1.433-0.063,2.143-0.063c10.148,0,19.588,4.325,25.902,11.869l0.492,0.585
				l7.298-5.358l-0.53-0.631c-8.077-9.648-20.197-15.181-33.253-15.181c-0.836,0-1.712,0.026-2.608,0.079
				c-11.264,0.642-21.589,5.358-29.076,13.279c-7.488,7.93-11.233,18.113-10.541,28.679c0.69,10.563,5.732,20.242,14.195,27.253
				c7.738,6.408,17.663,9.937,27.948,9.937c0.831,0,1.718-0.026,2.637-0.079c13.874-0.795,26.45-7.934,33.642-19.1l0.442-0.688
				l-7.94-4.483L243.531,84.282z"/>
			<path style="fill:#222222;" d="M436.201,30.641h-8.206l-34.975,75.404h10.317l10.1-22.444h37.075l0.165,0.359l10.06,22.085
				h10.318L436.201,30.641z M415.08,77.257l0.193-0.423l16.836-37.09l0.56,1.276l15.95,36.237H415.08z"/>
		</g>
	</g>
</g>
<g id="Calque_3" style="display:none;">
</g>
</svg>
