<svg xmlns="http://www.w3.org/2000/svg" viewBox="0 -400 100 900">
  <g id="Calque_1">
    <g id="paysagiste">
      <path id="XMLID_3_" fill="#2DA8A4" d="M72.3 462.8l-12.5-37.1c-.1-.4-.5-.7-1-.7-.4 0-.8.3-.9.7L52 443.3c-2.6-3-6.3-5-10.6-5-7.6 0-13.9 6.2-13.9 13.9 0 7.3 5.6 13.3 12.9 13.8v8c0 .6.4 1 1 1s1-.4 1-1v-8c2.2-.2 4.3-.9 6.1-1.9h9.7v9.9c0 .6.4 1 1 1s1-.4 1-1v-9.9h11.2c.3 0 .6-.2.8-.4.2-.3.2-.6.1-.9zm-29.9-2.3l2.7-2.7c.4-.4.4-1 0-1.4-.4-.4-1-.4-1.4 0l-2.3 2.3-2.3-2.3c-.4-.4-1-.4-1.4 0-.4.4-.4 1 0 1.4l2.7 2.7v3.5c-6-.5-10.9-5.5-10.9-11.8 0-6.5 5.3-11.9 11.9-11.9 4.4 0 8.1 2.3 10.2 5.7.4.6.7 1.2.9 1.9 0 .1.1.2.1.4.1.2.1.4.2.6s.1.5.2.7c0 .2.1.3.1.5s.1.5.1.7v.3c0 .4.1.7.1 1.1 0 .5 0 .9-.1 1.4 0 .1 0 .3-.1.4 0 .3-.1.6-.2.9 0 .2-.1.3-.1.5l-.3.9c-.1.2-.1.3-.2.5-.2.4-.3.8-.6 1.2-.1.1-.1.2-.2.3-.2.3-.3.5-.5.8-.1.1-.2.3-.3.4-.2.3-.4.5-.6.7l-.3.3c-.7.7-1.4 1.3-2.2 1.8-1.6 1-3.4 1.7-5.3 1.8l.1-3.6zm17.9 1.6v-1.6l2.7-2.7c.4-.4.4-1 0-1.4-.4-.4-1-.4-1.4 0l-2.3 2.3-2.3-2.3c-.4-.4-1-.4-1.4 0-.4.4-.4 1 0 1.4l2.7 2.7v1.6h-7.1c.2-.2.3-.4.5-.5l.5-.5.2-.2c1.6-2 2.7-4.5 3-7.1v-.1c0-.5.1-.9.1-1.4 0-.4 0-.8-.1-1.2v-.3c0-.4-.1-.8-.2-1.1 0-.1-.1-.3-.1-.4-.1-.2-.1-.5-.2-.7s-.1-.4-.2-.5c-.1-.2-.1-.4-.2-.6-.1-.3-.2-.6-.4-.9-.1-.1-.1-.3-.2-.4l-.3-.6v-.1l5.4-16.2 11.2 33.1-9.9-.3z"/>
    </g>
    <path id="agent" fill="#2DA8A4" d="M68.1 361l-7.9-2-.1-.1-2.3-2.3v-2.3l.6-.6c2.2-2.5 3.5-6 3.7-9.6v-.4c0-.5.1-.9.1-1.4l.8-7.8c.2-2.4-.6-4.8-2.2-6.6-1.6-1.8-4-2.8-6.4-2.8h-8.7c-2.4 0-4.7 1-6.4 2.8-1.6 1.8-2.4 4.2-2.2 6.6l.8 7.8c0 .5.1.9.1 1.4v.4c.2 3.7 1.5 7.1 3.7 9.6l.6.6v2.3l-2.3 2.3-.1.1-7.9 2c-3.3.9-5.2 2.9-5.2 5.8v5.6c0 1.4 1.1 2.5 2.5 2.5h41.5c1.4 0 2.5-1.1 2.5-2.5v-5.6c0-2.9-1.9-4.9-5.2-5.8zm-19 8.8H51l.6 3.6h-3.3l.6-3.6h.2zm2.7-2.5c0 .5-.4.9-.9.9h-1.7c-.5 0-.9-.4-.9-.9V366l1.8-1.2 1.8 1.2c-.1 0-.1 1.3-.1 1.3zm-7.9-11.6c1.8 1.3 3.9 2 6.1 2 2.2 0 4.3-.7 6.1-2v.9l-6.1 6.1-6.1-6.1v-.9zm9.2 9.2s-.1 0 0 0l-1.8-1.2 5.6-5.6 1.6 1.6c-.5 1-1.8 3.2-3.6 6.4l-1.8-1.2zm-12.6-36c1.3-1.5 3.2-2.3 5.2-2.3h8.7c2 0 3.8.8 5.2 2.3 1.3 1.5 2 3.4 1.8 5.4l-.5 4.9c-1.1-2.6-2.3-4.3-2.4-4.4-.3-.4-.8-.4-1.1-.2-2.1 1.5-11.6 1.6-15.1 1.6-.2 0-.5.1-.6.3-1 1.1-1.8 2.3-2.3 3.4l-.6-5.7c-.3-1.9.3-3.8 1.7-5.3zm-.9 15.1v-.7c.2-.5 1.2-3.2 3-5.4 2.2 0 11.4 0 14.9-1.5.7 1.1 2.2 3.7 2.9 6.9v.7c-.4 6.8-4.9 12.1-10.4 12.1s-10-5.3-10.4-12.1zm3.5 14.1l5.6 5.6-1.8 1.2-1.8 1.2c-1.8-3.2-3-5.5-3.6-6.4l1.6-1.6zm-14.8 14.4v-5.6c0-2.1 1.3-3.6 4-4.2l7.9-2c.5.8 1.4 2.6 3.5 6.2.2.4.6.7 1.1.8h.4c.3 0 .6-.1.9-.3l.6-.4v.2c0 .7.3 1.4.8 1.9l-.7 4.2H36.1V369c0-.4-.4-.8-.8-.8s-.8.4-.8.8v4.4h-5.2c-.5 0-1-.4-1-.9zm43.4 0c0 .5-.4.9-.9.9h-5.2V369c0-.4-.4-.8-.8-.8s-.8.4-.8.8v4.4H53.3l-.7-4.2c.5-.5.8-1.1.8-1.9v-.2l.6.4c.3.2.6.3.9.3h.4c.4-.1.8-.4 1.1-.8 2-3.6 3-5.4 3.5-6.2l7.9 2c2.6.7 4 2.1 4 4.2-.1-.2-.1 5.5-.1 5.5z"/>
    <g id="promoteur" fill="#2DA8A4">
      <path d="M39.9 237.1c3.2.7 6.6 1.1 9.9 1.1 3.3 0 6.7-.3 9.9-1.1.3-.1.6-.4.5-.7-.5-4.5-3.7-8.1-7.7-9.3v-.8c.1-.2-.2-.6-.6-.6s-.6.3-.6.6v.5c-.5-.1-1-.1-1.4-.1-.5 0-1 .1-1.5.1v-.5c0-.3-.3-.6-.6-.6s-.6.3-.6.6v.7c-4.1 1.1-7.2 4.8-7.7 9.3-.1.4.1.7.4.8zm7.3-8.7v2c0 .3.3.6.6.6s.6-.3.6-.6V228c.5-.1 1-.2 1.5-.2s1 .1 1.4.2v2.4c0 .3.3.6.6.6s.6-.3.6-.6v-2c3.2 1.1 5.7 3.9 6.3 7.5-5.9 1.2-12.1 1.2-18 0 .6-3.5 3.1-6.4 6.4-7.5z"/>
      <path d="M54.4 234.5c-.1-.3-.4-.6-.8-.5-2.4.6-5 .6-7.5 0-.3-.1-.7.2-.8.5s.2.7.5.8c1.3.3 2.7.4 4.1.4 1.4 0 2.7-.2 4.1-.4.2-.1.5-.5.4-.8zM41.2 244c.6 6 5.4 8.8 8.6 8.8 3.2 0 8-2.7 8.6-8.8 1-.5 2.3-1.7 2.2-4 0-.4-.1-1.7-1-2-.9-.3-1.9.6-2 .8-.2.2-.2.6 0 .9.2.2.6.2.9 0 .2-.2.5-.4.6-.4.1.1.2.3.2.9.1 2.2-1.6 2.8-1.7 2.8-.2.1-.3.2-.4.4v.2c-.5 5.9-5.2 7.9-7.4 7.9s-6.9-1.9-7.4-7.9v-.2c-.1-.2-.2-.4-.4-.4 0 0-1.8-.6-1.7-2.8 0-.6.1-.8.2-.9.2.1.4.2.6.4.2.2.6.2.9 0 .2-.2.2-.6 0-.9-.2-.2-1.1-1.1-2-.8-.9.3-1 1.6-1 2 0 2.2 1.3 3.5 2.2 4z"/>
      <path d="M50.8 239.9c-.2 0-.4.1-.5.2 0 0-.1.1-.1.2h-.9c0-.1 0-.1-.1-.2-.2-.2-.3-.2-.5-.2h-5.1c-.2 0-.3.1-.5.2-.1.2-.2.3-.2.5 0 .6.1 2.7 1 3.4.6.5 1.5.7 2.4.7.8 0 1.5-.2 1.9-.7.5-.5.8-1.6 1-2.4h1.1c.2.8.5 1.9 1 2.4.4.5 1.1.7 1.9.7.9 0 1.8-.3 2.4-.7.9-.7 1-2.8 1-3.4 0-.2-.1-.3-.2-.5-.2-.2-.3-.2-.5-.2h-5.1zm-3.4 3.2c-.2.2-.6.3-1 .3-.6 0-1.1-.2-1.5-.5-.2-.2-.4-1-.5-1.7h3.7c-.2.7-.5 1.6-.7 1.9zm7.4-.2c-.3.2-1 .5-1.5.5s-.8-.1-1-.3c-.2-.2-.5-1.1-.6-1.9h3.7c-.2.7-.4 1.5-.6 1.7zm15.8 17.9c0 .3.2.6.6.6.3 0 .6-.2.6-.6l.4-8.7c0-.2-.1-.4-.2-.6s-.4-.2-.6-.1c-2.7.9-5.4 1.6-8.1 2.2-1.2-1.2-3-2.3-5-3l.1-.6c0-.3-.2-.6-.6-.6-.3 0-.6.2-.6.6l-.2 2.8-1.9-.7c-.3-.2-.7.1-.8.4-.1.3.1.7.4.8l2.8 1h.2c.2 0 .2 0 .3-.1.2-.1.2-.3.3-.5l.1-1.6c1.3.5 2.5 1.2 3.4 1.9-3.7.6-7.5 1.1-11.4 1.1-.3 0-.6.3-.6.6v1.6c-4.5 0-9.1-.5-13.6-1.5 1.2-1.7 3-3 5.4-3.9l.1 1.6c0 .2.1.4.3.5.1.1.2.1.3.1h.2l2.8-1c.3-.2.5-.5.4-.8s-.5-.5-.8-.4l-2.2.7-.2-2.8c0-.3-.3-.6-.6-.6s-.6.3-.6.6v.6c-3.1 1.1-5.3 2.8-6.7 5-2.2-.5-4.4-1.1-6.5-1.9-.2-.1-.4 0-.6.1-.2.2-.2.3-.2.6l.4 6c0 .3.3.6.6.6h.1c.3 0 .6-.3.6-.7l-.4-5c2 .6 4.1 1.2 6.1 1.7h.2c4.8 1.1 9.7 1.6 14.7 1.6V272c0 .3.3.6.6.6s.6-.3.6-.6v-15.7c6.8-.1 13.6-1.2 20-3.3l-.2 7.8z"/>
      <path d="M74.1 263c-.6-.6-1.5-.9-2.8-.9-1.3 0-2.2.3-2.8.9-.8.8-.7 1.9-.7 2.8v4.5c0 1.9 1.6 3.6 3.6 3.6 1.9 0 3.6-1.6 3.6-3.6v-4.5c-.2-.9-.2-2-.9-2.8zm-.6 7.4c0 1.2-1 2.3-2.3 2.3-.9 0-1.7-.6-2-1.3h1.3c.3 0 .6-.3.6-.6s-.3-.6-.6-.6H69V269h1.5c.3 0 .6-.3.6-.6s-.3-.6-.6-.6H69v-1.2h1.5c.3 0 .6-.3.6-.6s-.3-.6-.6-.6H69c0-.5.1-.9.4-1.1.3-.3 1-.5 1.9-.5.9 0 1.5.2 1.9.5.4.4.4 1.1.4 1.9-.1-.3-.1 4.2-.1 4.2zm-44.7-8.7c-1.4 0-2.4.3-3 .9-.8.8-.8 2-.8 3v4.9c0 2.1 1.7 3.8 3.8 3.8s3.8-1.7 3.8-3.8v-4.9c0-1.1 0-2.2-.8-3-.7-.5-1.6-.9-3-.9zm2.4 6h-1.7c-.3 0-.6.3-.6.6s.3.6.6.6h1.7v1.3h-1.7c-.3 0-.6.3-.6.6s.3.6.6.6H31c-.4.9-1.2 1.5-2.3 1.5-1.4 0-2.4-1.1-2.4-2.5v-4.9c0-.9 0-1.7.4-2.1.3-.4 1-.6 2-.6s1.7.2 2 .6c.3.3.4.8.4 1.4h-1.7c-.3 0-.6.3-.6.6s.3.6.6.6h1.7v1.7z"/>
    </g>
    <g id="batiment" fill="#2DA8A4">
      <path d="M31.8 172c-.1.2-.6.5-1 .5s-.9-.4-1-.6l-.8-.8c-.2-.1-.5-.6-.5-1s.4-.9.6-1l16-15.9-1.2-1.1L28 168c-.1.1-1.1 1-1.1 2.2 0 1.2 1 2.1 1 2.2l.8.8c.1.1 1 1.1 2.2 1.1 1.2 0 2.1-1 2.2-1l16-16.3-1.2-1.1L31.8 172zm20.9-26.6c.3-.3.3-.8 0-1.1-.3-.3-.8-.3-1.1 0l-2.7 2.7 1.1 1.2 2.7-2.8z"/>
      <path d="M69.6 141.1l-8.2-8.2c-.6-.6-1.5-.6-2.2-.1l-1.7.8-.7-.7.9-1.8c.5-1.1.1-1.8-.3-2.2l-2.7-2.7c-.3-.3-.7-.5-1.1-.5-.4 0-.8.2-1.1.5l-6.8 6.8c-.3.3-.5.7-.5 1.1 0 .4.2.8.5 1.1l2.8 2.8c.3.3 1 .8 2.2.2l1.8-.9.7.7-.8 1.7c-.2.3-.4.7-.4 1 0 .4.2.8.5 1.1l3.3 3.3c.3.3.8.3 1.1 0s.3-.8 0-1.1l-3.3-3.3.2-.2 1.1-2.3c.2-.3.1-.7-.2-.9l-1.5-1.5c-.2-.2-.6-.3-.9-.2l-2.3 1.1c-.2.1-.3.1-.3.1l-2.8-2.8 6.8-6.8 2.8 2.8s0 .1-.1.3l-1.1 2.3c-.2.3-.1.7.2.9L57 135c.2.2.6.3.9.2l2.3-1.1c.1 0 .2-.1.2-.2l8.2 8.2s4.9 4.1 4.9 8.5c0 1.8 0 3-.6 4.8-2.1-6.7-6-9.3-6.2-9.5-.2-.2-.5-.2-.8-.1l-4.8 2.1c-.2.1-.4.1-.4.1l-2-2c-.2-.2-.3-.3-.6-.2-.2 0-.4.1-.6.2l-4.9 4.9 1.1 1.2 4.3-4.3 1.4 1.4c.5.5 1.3.6 2.2.2l4.3-1.9c1.1.9 4.4 4 5.8 10.5.1.3.3.6.7.6.3 0 .7-.1.8-.4 1.7-3.4 1.7-5.2 1.7-7.6.1-4.9-5.1-9.3-5.3-9.5zm-24.7 12l3 2.8.9-1-2.9-2.8zm24.4 18.1c.3.3.3.9 0 1.2-.1.1-.1.1-.2.1l-.8.6L50 156l-.9.9 18 16.6c.9.8 2.3.8 3.2-.1.9-.9.9-2.3.1-3.2l-16.6-18-1 1 16.5 18zm-25.5-21L47 147l.8.9 1-1-1-1c0-.1.1-.3.1-.4 0-.4-.2-.8-.4-1l-1.7-1.7c0-.1.1-.2.1-.2.2-2.3-.5-4.5-2.2-6.1l-8-8c-.1-.1-.3-.2-.5-.2s-.4.1-.5.2l-9.6 9.6c-.1.1-.2.3-.2.5s.1.4.2.5l8 8c1.6 1.6 3.8 2.4 6.1 2.2.1 0 .2 0 .2-.1l1.7 1.7c.4.4 1 .5 1.5.4l1 1 1-1-.8-1.1zm-4.7-2.6l-.2.2c-1.8.1-3.5-.5-4.7-1.8l-7.5-7.5.6-.6 4.8 4.8c.3.3.7.3 1 0 .3-.3.3-.7 0-1l-4.8-4.8.6-.6 8 8c.3.3.7.3 1 0 .3-.3.3-.7 0-1l-8-8 .6-.6 2.2 2.2c.3.3.7.3 1 0 .3-.3.3-.7 0-1l-2.2-2.2.6-.6L38 139c.3.3.7.3 1 0 .3-.3.3-.7 0-1l-5.9-5.9.6-.6 2.7 2.7c.3.3.7.3 1 0 .3-.3.3-.7 0-1l-2.7-2.7.6-.6 7.5 7.5c1.2 1.2 1.9 2.9 1.8 4.7l-5.5 5.5zm3.2 2.1c-.1 0-.1 0 0 0l-1.7-1.6 4.3-4.3 1.6 1.6v.1l-4.2 4.2zm9.4 2.4l1-1-2.8-3-1 1z"/>
      <path d="M48.8 154.9l-.9 1 1.2 1.1.9-1zm-2.9-2.8l-1.2-1.1-1 1 1.2 1.1zm5.8 0l1.1 1.2 1-1-1.1-1.2zm-2.8-3l1-1-1.1-1.2-1 1zM39 134.8c-.3-.3-.7-.3-1 0-.1.1-.2.3-.2.5s.1.4.2.5l.5.5c.3.3.7.3 1 0 .3-.3.3-.7 0-1l-.5-.5zm-3.2 3.2c-.3-.3-.7-.3-1 0-.1.1-.2.3-.2.5s.1.4.2.5l1.1 1.1c.3.3.7.3 1 0 .3-.3.3-.7 0-1l-1.1-1.1zm3.2 3.2c-.3-.3-.7-.3-1 0-.1.1-.2.3-.2.5s.1.4.2.5l.5.5c.3.3.7.3 1 0 .3-.3.3-.7 0-1l-.5-.5z"/>
    </g>
    <g id="architecte" fill="#2DA8A4">
      <path d="M66.4 65.5l-1.2-1.1-.2.2-6.7-21.9c.8-1.1 1.4-2.5 1.4-3.9 0-3.6-2.9-6.5-6.5-6.5v-3c.2 0 .4.1.6.1l.3-1.6c-.3-.1-.7-.1-1-.1-.2-1.5-1.5-2.7-3.1-2.7s-2.9 1.1-3.2 2.7c-.3 0-.7.1-1 .1l.3 1.6c.2 0 .4-.1.6-.1v3c-3.5 0-6.4 2.9-6.4 6.5 0 1.5.5 2.9 1.4 3.9L35 64.6l-.2-.2-1.2 1.1.8.8-1.4 4.4V75l4.7-3.6.6-2.1c.2.1.3.2.5.3l.8-1.4c-.3-.1-.6-.3-.8-.5l3-9.7h16.3l3 9.7c-.3.2-.6.3-.8.5l.8 1.4c.2-.1.3-.2.5-.3l.6 2.1 4.7 3.5v-4.1l-1.4-4.5c.3-.2.6-.5.9-.8zM53.2 33.9c2.7 0 4.8 2.2 4.8 4.8 0 1.5-.7 2.9-1.9 3.8-.5-1.6-1.5-2.9-3-3.7v-.1c0-1.7-.7-3.3-1.8-4.5.7-.2 1.3-.3 1.9-.3zm-.2 6.7c.9.7 1.5 1.7 1.8 2.8-.5.1-1 .2-1.5.2-.6 0-1.2-.1-1.8-.4.6-.7 1.2-1.6 1.5-2.6zm-3 1.7c-.7-.7-1.3-1.5-1.5-2.6.5-.1 1-.2 1.5-.2s1 .1 1.5.2c-.2 1.1-.7 2-1.5 2.6zm0-4.4c-.6 0-1.1.1-1.6.2.1-1.2.7-2.2 1.6-3 .8.8 1.4 1.8 1.6 3-.5-.1-1.1-.2-1.6-.2zm-1.4 5.3c-.6.2-1.2.4-1.8.4-.5 0-1-.1-1.5-.2.3-1.1.9-2.1 1.8-2.8.2 1 .8 1.9 1.5 2.6zm-1.8 2c1.2 0 2.3-.3 3.2-.9 1 .6 2.1.9 3.2.9.6 0 1.1-.1 1.6-.2-.3 2.4-2.3 4.2-4.8 4.2s-4.5-1.8-4.8-4.2c.5.1 1 .2 1.6.2zm1.6-17c0-.9.7-1.6 1.6-1.6.9 0 1.6.7 1.6 1.6v4.3c-.6.1-1.1.4-1.6.7-.5-.3-1-.5-1.6-.7v-4.3zm-1.6 5.7c.6 0 1.2.1 1.8.4-1.1 1.2-1.8 2.7-1.8 4.5v.1c-1.4.8-2.5 2.2-3 3.7-1.1-.9-1.9-2.3-1.9-3.8 0-2.7 2.2-4.9 4.9-4.9zM36.4 70.5l-1.7 1.3v-.7L43 43.9c.2.1.4.3.6.4v.1c0 .6.1 1.3.3 1.8l-7.5 24.3zm6-14l2.5-8.2c1.2 1.5 3 2.5 5.1 2.5 2.1 0 3.9-1 5.1-2.5l2.5 8.2H42.4zm22.9 15.3l-1.7-1.3-7.4-24.3c.2-.6.3-1.2.3-1.8v-.1c.2-.1.4-.2.6-.4L65.4 71v.8zm-5-41.9c-1-.5-1.9-.9-3-1.2l-.5 1.5c.9.3 1.9.7 2.8 1.2l.7-1.5zm9.2 8.8c-.5-.9-1.1-1.8-1.8-2.7l-1.3 1c.6.8 1.2 1.6 1.7 2.5l1.4-.8zm-4-5.1c-.8-.7-1.6-1.4-2.5-2.1l-.9 1.3c.8.6 1.6 1.2 2.3 1.9l1.1-1.1zM70.4 45l1.6-.4c-.3-1-.6-2.1-1-3.1l-1.5.6c.3 1 .6 1.9.9 2.9zm2.1 2.8l-1.6.1c.1.7.1 1.4.1 2.1v.9l1.6.1v-1c0-.7-.1-1.5-.1-2.2zm-2.7 9l1.5.5c.3-1 .6-2.1.8-3.1l-1.6-.3c-.1 1-.3 2-.7 2.9zm-2.7 5.3l1.3.9c.6-.9 1.2-1.8 1.7-2.8l-1.4-.7c-.5.9-1 1.8-1.6 2.6z"/>
      <path d="M54.6 70.5l.4 1.6c1.1-.2 2.1-.6 3.2-1l-.6-1.5c-1.1.3-2 .6-3 .9zM50 71c-.5 0-1 0-1.5-.1l-.1 1.6c.6 0 1.1.1 1.6.1.6 0 1.1 0 1.7-.1l-.1-1.6c-.6.1-1.1.1-1.6.1zm-8.1.1c1 .4 2.1.7 3.2 1l.3-1.6c-1-.2-2-.5-2.9-.9l-.6 1.5zm1.3-40.9l-.5-1.5c-1 .3-2 .8-3 1.2l.7 1.4c1-.4 1.9-.8 2.8-1.1zM33.6 37l-1.3-1c-.7.8-1.3 1.7-1.8 2.7l1.4.8c.5-.9 1.1-1.7 1.7-2.5zm-3.7 23.3c.5 1 1.1 1.9 1.7 2.8l1.3-.9c-.6-.8-1.1-1.7-1.5-2.6l-1.5.7zm-.5-6.4l-1.6.3c.2 1.1.5 2.1.8 3.1l1.5-.5c-.3-.9-.5-1.9-.7-2.9zM29 50c0-.7 0-1.4.1-2.1l-1.6-.2c-.1.7-.1 1.5-.1 2.2v1l1.6-.1V50zm8.9-17.1l-.9-1.3c-.9.6-1.7 1.3-2.5 2l1.1 1.2c.7-.7 1.5-1.3 2.3-1.9zm-7.3 9.2l-1.5-.6c-.4 1-.7 2-1 3.1l1.6.4c.2-1 .5-2 .9-2.9z"/>
    </g>
    <path id="valoriser_2_" fill="#2DA8A4" d="M74.2-28.7v-32.5h-10v32.5h-2.5v-25.8h-10v25.8h-2.5v-19.2h-10v19.2h-2.5v-11.7h-10v11.7h-.8c-.5 0-.8.3-.8.8s.3.8.8.8h48.3c.5 0 .8-.3.8-.8s-.3-.8-.8-.8m-45.9-10H35v10h-6.7v-10zm12.5-7.5h6.7v17.5h-6.7v-17.5zm12.5-6.7H60v24.2h-6.7v-24.2zm12.5-6.7h6.7v30.8h-6.7v-30.8zm-34.1 7.8c.2 0 .2 0 .4-.1l30.3-17.4-1.9 4.2c-.2.4 0 .9.4 1.1.1.1.2.1.3.1.3 0 .6-.2.7-.5l3-6.5v-.8l-.1-.1s0-.1-.1-.1l-.1-.1-.1-.1s-.1 0-.1-.1h-.3l-7.1-.7c-.5-.1-.8.3-.9.8-.1.4.2.8.8.9l4.6.4-30.2 17.5c-.4.3-.5.8-.3 1.2.1.2.4.3.7.3"/>
    <g id="decorer_2_" fill="#2DA8A4">
      <path d="M30.5-156.8h39.1v17l-9.4-8.6c-.2-.1-.5-.2-.7-.2-.2 0-.5.1-.7.3l-8.8 9.7-4.3-4.3c-.3-.3-.9-.3-1.2 0l-14 12.3v-26.2zm39 27.3H31.9L45-141l9.3 9.3c.3.3.9.3 1.2 0s.3-.9 0-1.3l-4.3-4.3 8.3-9.1 10 9.1v7.8zm-40.9 1.8h42.7v-30.9H28.6v30.9z"/>
      <path d="M37.7-145.8c-1.8 0-3.3-1.5-3.3-3.3 0-1.8 1.5-3.3 3.3-3.3 1.8 0 3.3 1.5 3.3 3.3 0 1.8-1.5 3.3-3.3 3.3zm0-8.3c-2.8 0-5.1 2.3-5.1 5.1s2.3 5.1 5.1 5.1 5.1-2.3 5.1-5.1-2.2-5.1-5.1-5.1z"/>
      <path d="M26.8-160.5h46.4v34.5H26.8v-34.5zm19.1-10.9c0 2.5 2 4.5 4.5 4.5s4.5-2 4.5-4.5c3.8 2.7 8.6 6.9 11.2 9.1H34.7c2.6-2.2 7.5-6.3 11.2-9.1zm1.9-.5c.1-.6.3-1 .6-1.3.5-.6 1.2-.9 2-.9s1.5.3 2 .9c.2.2.5.7.6 1.1v.1c0 .2.1.3.1.6 0 1.5-1.2 2.7-2.7 2.7-1.5 0-2.7-1.2-2.7-2.7 0-.2 0-.3.1-.5zm21.2 9.6c-1.6-1.5-10.3-9.1-15.2-12.2-.8-.9-2-1.5-3.3-1.5-1.2 0-2.5.6-3.3 1.5-5 3.2-13.6 10.8-15.2 12.2h-7v38.2h50v-38.2h-6z"/>
    </g>
    <path id="amenager_2_" fill="#2DA8A4" d="M74.9-246l-1.7-6.5c-.2-.7-.7-1.1-1.3-1.2l-3.6-2.2v-6c0-2.4-2-4.3-4.3-4.3H53.6c-1.5 0-2.8.8-3.5 1.8-.8-1.1-2.1-1.8-3.5-1.8H36.1c-2.4 0-4.3 2-4.3 4.3v6l-3.7 2.2c-.7.1-1.2.6-1.3 1.2l-1.7 6.5c-.1.4-.1.8 0 1.2l1.7 6.5c.2.8.8 1.3 1.6 1.3H30v3.3h2l3.3-3.3h29.4l3.3 3.3h2v-3.3h1.7c.8 0 1.4-.5 1.6-1.3l1.7-6.5c0-.4 0-.7-.1-1.2m-4.8-6.5l-1.3 5.3-.9-1.2-1-1.3.3-.9 1-3.4 2.2 1.3c-.2 0-.3 0-.3.2m-35.5 3.7h30.9l2 2.5H32.6l2-2.5zm19-15.8H64c1.5 0 2.7 1.3 2.7 2.7v6.3l-1.5 5.1H50.8v-11.3c0-1.7 1.3-2.8 2.8-2.8m-20.3 2.7c0-1.5 1.3-2.7 2.7-2.7h10.4c1.5 0 2.7 1.2 2.7 2.7v11.4H34.8l-1.5-5v-6.4zm-1.3 7.7l1.3 4.3-2 2.5-1.3-5.2c0-.1-.1-.3-.1-.3l2.1-1.3zm-3.7 15.4l-1.7-6.5v-.3l1.7-6.5 1.7 6.5v6.8h-1.7zm3.4 3v-1.3H33l-1.3 1.3zm5.3-3h-5.3v-5.8h36.7v5.8H37zm31.3 3l-1.3-1.3h1.3v1.3zm5.1-9.5l-1.7 6.5H70v-6.8l1.7-6.5 1.7 6.5v.3"/>
    <g id="creer_2_" fill="#2DA8A4">
      <path d="M68.9-326.5H31v-28.7l19-17.6 19 17.6v28.7zm5.7-25.7l-24.7-23-24.7 23c-.3.3-.3.9 0 1.2.3.3.9.3 1.2 0l2.9-2.7v28.9h41.4v-28.8l2.9 2.7c.2.1.3.2.5.2s.4-.1.6-.3c.4-.3.4-.9-.1-1.2z"/>
      <path d="M37.9-355h8.6v8.6h-8.6v-8.6zm-1.8 10.3h12.1v-12.1H36.1v12.1zM53.4-355H62v8.6h-8.6v-8.6zm-1.7 10.3h12.1v-12.1H51.7v12.1zm-13.8 5.2h8.6v8.6h-8.6v-8.6zm-1.8 10.4h12.1v-12.1H36.1v12.1zm17.3-10.4H62v8.6h-8.6v-8.6zm-1.7 10.4h12.1v-12.1H51.7v12.1z"/>
    </g>
  </g>
</svg>