<svg xmlns="http://www.w3.org/2000/svg" id="Calque_1" viewBox="0 -150 100 400">
  <path id="amenager" fill="#2da8a4" d="M79.9 4.8l-2-7.8c-.2-.8-.8-1.3-1.6-1.4L72-7v-7.2c0-2.9-2.4-5.2-5.2-5.2H54.3c-1.8 0-3.3.9-4.2 2.2-1-1.3-2.5-2.2-4.2-2.2H33.3c-2.9 0-5.2 2.4-5.2 5.2V-7l-4.4 2.6c-.8.1-1.4.7-1.6 1.4l-2 7.8c-.1.5-.1 1 0 1.4l2 7.8c.2.9 1 1.5 1.9 1.5h2v4h2.4l4-4h35.2l4 4H74v-4h2c.9 0 1.7-.6 1.9-1.5l2-7.8c.1-.4.1-.8 0-1.4M74.1-3l-1.6 6.3-1.1-1.4L70.2.4l.3-1.1 1.2-4.1 2.6 1.6c-.1 0-.2 0-.2.2M31.5 1.5h37l2.4 3H29.1l2.4-3zm22.8-19h12.5c1.8 0 3.2 1.5 3.2 3.2v7.6L68.2-.6H51v-13.6c0-1.9 1.5-3.3 3.3-3.3M30-14.2c0-1.8 1.5-3.2 3.2-3.2h12.5c1.8 0 3.2 1.4 3.2 3.2V-.5H31.8l-1.8-6v-7.7zM28.4-5L29.9.2l-2.4 3L25.9-3c0-.1-.1-.3-.1-.4L28.4-5zM24 13.5l-2-7.8v-.4l2-7.8 2 7.8v8.2h-2zm4 3.6v-1.6h1.6L28 17.1zm6.4-3.6H28v-7h44v7H34.4zM72 17.1l-1.6-1.6H72v1.6zm6-11.4l-2 7.8h-2V5.3l2-7.8 2 7.8v.4"/>
  <g id="creer" fill="#2da8a4">
    <path d="M66.8-78.6H31.6v-26.6l17.6-16.3 17.6 16.3v26.6zm5.3-23.8l-22.9-21.3-22.9 21.3c-.3.3-.3.8 0 1.1s.8.3 1.1 0l2.7-2.5V-77h38.4v-26.7l2.7 2.5c.2.1.3.2.5.2s.4-.1.6-.3c.2-.3.2-.8-.2-1.1z"/>
    <path d="M38-105h8v8h-8v-8zm-1.6 9.6h11.2v-11.2H36.4v11.2zm16-9.6h8v8h-8v-8zm-1.6 9.6H62v-11.2H50.8v11.2zM38-90.6h8v8h-8v-8zM36.4-81h11.2v-11.2H36.4V-81zm16-9.6h8v8h-8v-8zM50.8-81H62v-11.2H50.8V-81z"/>
  </g>
  <path id="valoriser" fill="#2da8a4" d="M79 125.5v-39H67v39h-3v-31H52v31h-3v-23H37v23h-3v-14H22v14h-1c-.6 0-1 .4-1 1s.4 1 1 1h58c.6 0 1-.4 1-1s-.4-1-1-1m-55-12h8v12h-8v-12zm15-9h8v21h-8v-21zm15-8h8v29h-8v-29zm15-8h8v37h-8v-37zm-41 9.3c.2 0 .3 0 .5-.1l36.3-20.9-2.3 5c-.2.5 0 1.1.5 1.3.1.1.3.1.4.1.4 0 .7-.2.9-.6l3.6-7.8v-1l-.1-.1s0-.1-.1-.1l-.1-.1-.1-.1s-.1 0-.1-.1H67l-8.5-.8c-.6-.1-1 .3-1.1.9-.1.5.3 1 .9 1.1l5.5.5-36.3 21c-.5.3-.6.9-.4 1.4.2.3.6.4.9.4"/>
  <g id="decorer" fill="#2da8a4">
    <path d="M32.8 194h34.4v15l-8.3-7.6c-.2-.1-.4-.2-.6-.2s-.4.1-.6.3L50 210l-3.8-3.8c-.3-.3-.8-.3-1.1 0L32.8 217v-23zm34.4 24H34.1l11.5-10.1 8.2 8.2c.3.3.8.3 1.1 0s.3-.8 0-1.1l-3.8-3.8 7.3-8 8.8 8v6.8zm-36 1.6h37.6v-27.2H31.2v27.2z"/>
    <path d="M39.2 203.7c-1.6 0-2.9-1.3-2.9-2.9 0-1.6 1.3-2.9 2.9-2.9 1.6 0 2.9 1.3 2.9 2.9 0 1.6-1.3 2.9-2.9 2.9zm0-7.3c-2.5 0-4.5 2-4.5 4.5s2 4.5 4.5 4.5 4.5-2 4.5-4.5-2-4.5-4.5-4.5z"/>
    <path d="M29.6 190.8h40.8v30.4H29.6v-30.4zm16.8-9.6c0 2.2 1.8 4 4 4s4-1.8 4-4c3.3 2.4 7.6 6.1 9.9 8H36.5c2.3-2 6.6-5.6 9.9-8zm1.7-.5c.1-.5.3-.9.5-1.1.4-.5 1.1-.8 1.8-.8s1.3.3 1.8.8c.2.2.4.6.5 1v.1c0 .2.1.3.1.5 0 1.3-1.1 2.4-2.4 2.4-1.3 0-2.4-1.1-2.4-2.4 0-.2 0-.3.1-.5zm18.6 8.5c-1.4-1.3-9.1-8-13.4-10.7-.7-.8-1.8-1.3-2.9-1.3-1.1 0-2.2.5-2.9 1.3-4.4 2.8-12 9.5-13.4 10.7H28v33.6h44v-33.6h-5.3z"/>
  </g>
</svg>