<?xml version="1.0" encoding="utf-8"?>
<!-- Generator: Adobe Illustrator 18.1.1, SVG Export Plug-In . SVG Version: 6.00 Build 0)  -->
<svg version="1.1" baseProfile="tiny" id="Layer_1" xmlns="http://www.w3.org/2000/svg" xmlns:xlink="http://www.w3.org/1999/xlink"
	 x="0px" y="0px" viewBox="0 0 50 32" xml:space="preserve">
<path fill="#415560" d="M48,0H2H1.6h-1H0v32h50V0h-1.7H48z M46,2L26.6,21.3c-0.9,0.9-2.4,0.9-3.3,0L4,2H46z M2,2.8l13,13l-13,13V2.8
	z M3.6,30l12.8-12.8l5.5,5.5c0.8,0.8,1.9,1.3,3.1,1.3s2.2-0.5,3.1-1.3l5.5-5.5L46.4,30H3.6z M48,28.8l-13-13l13-13V28.8z"/>
</svg>
