<?xml version="1.0" encoding="utf-8"?>
<!-- Generator: Adobe Illustrator 18.1.1, SVG Export Plug-In . SVG Version: 6.00 Build 0)  -->
<svg version="1.1" baseProfile="tiny" id="Layer_1" xmlns="http://www.w3.org/2000/svg" xmlns:xlink="http://www.w3.org/1999/xlink"
	 x="0px" y="0px" viewBox="0 0 54 28" xml:space="preserve">
<g>
	<rect x="8" y="13" fill="#1C2021" width="8" height="2"/>
	<path fill="#1C2021" d="M14,0C6.3,0,0,6.3,0,14c0,7.7,6.3,14,14,14c6,0,11-3.7,13.1-9H54V9h-7l-3-3l-3,3H37l-5-5l-5,5
		C25,3.7,19.9,0,14,0z M25.2,9.7l0.5,1.4h2.1l0.7-0.7L32,6.8l3.6,3.6l0.6,0.6H37h0.8H41h0.8l0.6-0.6L44,8.8l1.6,1.6l0.6,0.6H47h5v6
		H27.1h-1.4l-0.5,1.3C23.4,23,19,26,14,26C7.4,26,2,20.6,2,14S7.4,2,14,2C19,2,23.4,5,25.2,9.7z"/>
</g>
</svg>
