<?xml version="1.0" encoding="utf-8"?>
<!-- Generator: Adobe Illustrator 18.1.1, SVG Export Plug-In . SVG Version: 6.00 Build 0)  -->
<svg version="1.1" baseProfile="tiny" id="Layer_1" xmlns="http://www.w3.org/2000/svg" xmlns:xlink="http://www.w3.org/1999/xlink"
	 x="0px" y="0px" viewBox="0 0 50 50" xml:space="preserve">
<g>
	<path fill="#465B47" d="M25,0C11.2,0,0,11.2,0,25c0,13.8,11.2,25,25,25s25-11.2,25-25C50,11.2,38.8,0,25,0z M25,48
		C12.3,48,2,37.7,2,25C2,12.3,12.3,2,25,2s23,10.3,23,23C48,37.7,37.7,48,25,48z"/>
	<path fill="#465B47" d="M24.9,11.9C19.8,11.9,17,15,17,20h2.2c-0.1-3.6,1.8-6.3,5.6-6.3c2.7,0,5,1.9,5,4.7c0,1.8-1,3.3-2.3,4.5
		c-2.7,2.5-3.4,3.6-3.5,7h2.2c0.1-3.1,0.1-3,2.7-5.7c1.8-1.7,3-3.4,3-6C32,14.3,28.8,11.9,24.9,11.9z"/>
	<circle fill="#465B47" cx="25" cy="36" r="2"/>
</g>
</svg>
