<?xml version="1.0" encoding="utf-8"?>
<!-- Generator: Adobe Illustrator 18.1.1, SVG Export Plug-In . SVG Version: 6.00 Build 0)  -->
<svg version="1.1" baseProfile="tiny" id="Rulers_and_Pencil"
	 xmlns="http://www.w3.org/2000/svg" xmlns:xlink="http://www.w3.org/1999/xlink" x="0px" y="0px" viewBox="0 0 15 14.2"
	 xml:space="preserve">
<path fill="#415560" d="M9.3,5.4L7.5,0L5.8,5.4H0l4.7,3.3l-1.8,5.4l4.6-3.4l4.6,3.4l-1.8-5.4L15,5.4H9.3z M9.8,8.9l1.3,3.8l-3.3-2.4
	l-0.3-0.2l-0.3,0.2l-3.3,2.4l1.3-3.8l0.1-0.4L5,8.3L1.7,6h4h0.4l0.1-0.4l1.2-3.8l1.2,3.8L8.9,6h0.4h4l-3.3,2.3L9.7,8.6L9.8,8.9z"/>
</svg>
