<?xml version="1.0" encoding="utf-8"?>
<!-- Generator: Adobe Illustrator 18.1.1, SVG Export Plug-In . SVG Version: 6.00 Build 0)  -->
<svg version="1.1" baseProfile="tiny" id="Key" xmlns="http://www.w3.org/2000/svg" xmlns:xlink="http://www.w3.org/1999/xlink"
	 x="0px" y="0px" viewBox="0 0 46.4 50.3" xml:space="preserve">
<g>
	<path fill="#FFFFFF" d="M40.1,11.7l1.7-1.7l1.7,1.7l2.1-2.1l-4.8-4.8l-2.1,2.1l1.7,1.7l-1.7,1.7c-3.7-3.4-8.6-5.6-14-6V0.2h-3v4.1
		C9.6,5.1,0.1,15,0.1,27.2c0,12.7,10.3,23,23,23s23-10.3,23-23C46.1,21.3,43.8,15.8,40.1,11.7z M23.1,48.2c-11.6,0-21-9.4-21-21
		c0-11.6,9.4-21,21-21s21,9.4,21,21C44.1,38.8,34.7,48.2,23.1,48.2z"/>
	<g>
		<path fill="none" d="M40.1,11.7l1.7-1.7l1.7,1.7l2.1-2.1l-4.8-4.8l-2.1,2.1l1.7,1.7l-1.7,1.7c-3.7-3.4-8.6-5.6-14-6V0.2h-3v4.1
			C9.6,5.1,0.1,15,0.1,27.2c0,12.7,10.3,23,23,23s23-10.3,23-23C46.1,21.3,43.8,15.8,40.1,11.7z M23.1,48.2c-11.6,0-21-9.4-21-21
			c0-11.6,9.4-21,21-21s21,9.4,21,21C44.1,38.8,34.7,48.2,23.1,48.2z"/>
		<g>
			<polygon fill="#FFFFFF" points="23.1,48.2 23.5,48.2 23.6,48.1 			"/>
			<path fill="#FFFFFF" d="M24.9,48.6c0,0,0.6-0.1,0.6-0.1c-0.4-0.3,0.1-0.2-0.9-0.5c-0.3,0.1-1.1,0.2-1,0.4c0.2,0,0.6-0.2,1-0.2
				c-0.2,0.1-0.5,0.1-0.7,0.3c0.6,0.1,0.4-0.1,1-0.1L24.9,48.6z"/>
			<path fill="#FFFFFF" d="M25.6,48.1c0,0.1-0.1,0.1-0.1,0.2C25.6,48.2,25.8,48.1,25.6,48.1z"/>
			<path fill="#FFFFFF" d="M26,48c0.4,0,0,0.1,0.1,0.2l0.4-0.3L26,48z"/>
			<path fill="#FFFFFF" d="M27.6,47.8c0.1,0,0.1,0,0.2-0.1C27.7,47.7,27.6,47.7,27.6,47.8z"/>
			<path fill="#FFFFFF" d="M28.4,47.5c-0.2,0-0.4,0.1-0.6,0.2c0,0,0,0,0,0c0.2,0,0.1,0.2-0.3,0.3c-0.4,0.1-0.4-0.1-0.7,0.1l0.5,0.1
				C27.9,48,28.1,47.7,28.4,47.5z"/>
			<path fill="#FFFFFF" d="M27.6,47.8c-0.1,0-0.1,0-0.2,0.1C27.5,47.8,27.5,47.8,27.6,47.8z"/>
			<polygon fill="#FFFFFF" points="26.8,47.9 26.6,48 26.6,48 			"/>
			<path fill="#FFFFFF" d="M29.6,47.2c0,0.3-0.9,0.2-1,0.4c0.5-0.1,1-0.1,0.9,0.1l0.5-0.3C30.3,47.2,30,47.2,29.6,47.2z"/>
			<path fill="#FFFFFF" d="M30.9,47.3c0,0,0.1-0.1,0.1-0.1C31,47.3,30.9,47.3,30.9,47.3z"/>
			<path fill="#FFFFFF" d="M33.5,45.7c0,0-1.1,0.8-1.1,0.8c0.1-0.1,0-0.2,0.3-0.3c-0.6,0.2-0.6,0.4-1,0.6c-0.2-0.1,0.8-0.4,0.5-0.5
				c-0.3,0.2-0.8,0.4-1,0.7l-0.6,0.1l0.3,0.2c0.2,0,0.4-0.3,0.6-0.2c0.1,0.1-0.1,0.2-0.3,0.2c0.3-0.1,1-0.2,1.7-0.6
				C33.4,46.3,33.1,46,33.5,45.7z"/>
			<polygon fill="#FFFFFF" points="33.7,45.9 33.8,45.9 33.7,45.8 			"/>
			<path fill="#FFFFFF" d="M34.8,44.8l-0.5,0.5c-0.1,0-0.1,0-0.2,0c0.1,0-0.1,0.2,0,0.2c0.4,0,0.7-0.5,1-0.8c0.9-0.5,0,0.1,0.5,0
				c-0.2,0.2-0.3,0.2-0.6,0.3c0.7-0.1,1.2-0.8,1.5-1.1c-0.1,0.1-0.2,0-0.3,0.2l0.3-0.3C35.9,44,35.6,44.2,34.8,44.8z"/>
			<path fill="#FFFFFF" d="M33.7,45.5c0.2-0.2,0.3-0.2,0.3-0.2C34,45.3,33.9,45.3,33.7,45.5z"/>
			<path fill="#FFFFFF" d="M36.6,43.9c0,0-0.1,0.1-0.2,0.1C36.4,44,36.5,44,36.6,43.9z"/>
			<path fill="#FFFFFF" d="M36.1,44l0.4-0.3l-0.2,0C36.2,43.8,36,43.9,36.1,44z"/>
			<path fill="#FFFFFF" d="M44.6,27.2c-0.1,0-0.1,0.2-0.1,0.6c-0.1-0.1,0-0.6-0.1-0.8c-0.1,0.5-0.1,0-0.2,0.1c0,0.6,0.1,0.8,0,1.4
				c0,0-0.1,0-0.1,0.1c0.1,0.7-0.1,2-0.3,2.7c-0.2,0.7-0.3,1.2-0.4,1.9c-0.8,2.4-1.9,4.8-3.6,6.9l-0.1,0.4c-0.2,0-0.4,0.5-0.5,0.3
				c0.1-0.1,0.2-0.2,0.3-0.4c-0.5,0.3-1,1.2-1.5,1.6c0.1,0,0.3,0,0.2,0.2c-0.1-0.2-0.6,0.6-1,0.5c-0.6,0.4,0.1,0.2-0.4,0.6
				c0,0.2,0.6-0.4,0.7-0.4c-0.1,0.2-0.5,0.4-0.4,0.5c0.9-0.7,2.3-2.5,3.2-4l0,0.2c0.2-0.4,0.6-0.9,0.9-1.4c0.3-0.5,0.7-0.9,0.9-1.2
				c-0.2,0.1,0.7-1.2,0.3-1.2c0.2-0.2,0.2-0.2,0.3-0.5l-0.1-0.1c0.2-0.4,0.3-0.3,0.5-0.8c-0.2,0.3-0.1-0.1-0.2-0.3
				c0.2-0.3,0.4-0.5,0.5-0.8c0.1-0.3,0.3-0.6,0.4-0.8c-0.1,0-0.1,0.1-0.2,0.2c0.1-0.3,0-0.3,0-0.4c0.1-0.3,0.2-0.3,0.3-0.2
				c0.2-0.6,0-1,0.1-1.5L44,30.9c0-0.7,0.3-1.2,0.3-2c0.2-0.3,0.1,0.6,0.1,0.9c0.1-0.1,0.1-0.5,0.2-0.6c-0.1-0.3-0.2-0.9-0.2-1.3
				C44.6,28.4,44.6,27.5,44.6,27.2z"/>
			<path fill="#FFFFFF" d="M44.6,29.3c0,0.1,0,0.2,0.1,0.2C44.7,29.5,44.7,29.4,44.6,29.3C44.7,29.3,44.6,29.3,44.6,29.3z"/>
			<path fill="#FFFFFF" d="M44.6,27.2C44.6,27.2,44.6,27.2,44.6,27.2C44.6,27.1,44.6,27.2,44.6,27.2z"/>
			<path fill="#FFFFFF" d="M43.7,31.4C43.7,31.4,43.8,31.4,43.7,31.4c0-0.1,0-0.2,0-0.2L43.7,31.4z"/>
			<path fill="#FFFFFF" d="M44.2,32.1c-0.1,0.1-0.2,0.3-0.3,0.5C44,32.6,44,32.6,44.2,32.1z"/>
			<path fill="#FFFFFF" d="M42.5,36.4c0,0.1,0,0.1,0,0.2C42.7,36.4,42.7,36.2,42.5,36.4z"/>
			<polygon fill="#FFFFFF" points="44.7,28.5 44.7,27.9 44.7,27.7 			"/>
			<path fill="#FFFFFF" d="M41.7,17.5c0.1,0.5,0.5,1.1,0.7,1.7c0.5,1,0.4,0,0.8,1l-0.4-0.1c0.1,0.2,0.2,0.5,0.3,0.8
				c0.1,0.3,0.2,0.6,0.3,0.9c0.2,0.6,0.4,1.2,0.6,1.6c0,0.1,0,0.3-0.1,0c0.1,0.7,0.5,0.3,0.6,1.3c-0.3-0.9-0.1,0.3-0.4,0.1l0-0.1
				c0.1,0.6,0.2,1.4,0.3,1.8c0.1,0,0.2-0.3,0.2,0.2c0-0.2,0.1-0.1,0.2-0.1c-0.1-0.6-0.1-0.9-0.2-1.2c0.1-0.3,0,0.2,0.1-0.1
				c0,0-0.2-0.4-0.2-0.4c0-0.3,0.2,0.3,0.1-0.2c-0.1-0.1-0.2-0.5-0.3-0.9l0.1,0.1c-0.1-0.3-0.1-0.7-0.3-0.6c0,0,0.1-0.4,0.1-0.4
				L44,23c-0.2-0.8,0.1-1.2-0.4-2.2c0.1,0.3-0.1,0.1-0.2-0.1c0.1,0.4,0.2,0.5,0.4,0.9c-0.1,0.1-0.4-0.6-0.4,0c0-0.6-0.3-1-0.1-1.3
				c-0.2-0.7-0.4-0.9-0.6-1.5l0.1,0c-0.2,0-0.2-0.6-0.6-0.9l0.1,0.4c-0.1,0-0.2-0.1-0.3-0.4c0,0,0,0,0-0.1c-0.2,0-0.5-0.7-0.6-0.7
				c0.2,0.3,0.4,0.6,0.6,0.9C41.9,17.7,41.8,17.8,41.7,17.5z"/>
			<path fill="#FFFFFF" d="M44.3,24l-0.1-0.2C44.3,23.9,44.3,24,44.3,24z"/>
			<path fill="#FFFFFF" d="M40.2,14.8c-0.2-0.4,0.2,0,0-0.3c-0.3-0.3,0.1,0.5-0.2,0.3c-0.1-0.3-0.5-0.5-0.6-0.7
				c0.2,0.1,0.3-0.1,0.3-0.2c-0.1-0.1-0.3-0.4-0.5-0.7c0.4,0.6-0.5-0.4-0.1,0.2c-0.1,0-0.6-0.4-0.7-0.6c0.1,0,0.2,0.1,0.3,0.3
				c0.2,0-0.2-0.4-0.2-0.6c-0.6-0.3-2.2-1.8-2-1.1c0.1,0.2,0.3,0.3,0.5,0.4c-0.5-0.5,0.1-0.1,0.2-0.2c0.2,0.2,0.6,0.5,0.5,0.5
				l-0.4-0.2c1.1,1,2.4,2.6,3.4,4c0,0-0.1-0.2-0.2-0.3c-0.1-0.1-0.2-0.3-0.2-0.3c0.1,0,0.4,0.3,0.5,0.5c0,0,0-0.4,0-0.4
				c0.1,0.2,0.2,0.4,0.2,0.4c0.2,0.2,0.2,0,0.2-0.1c0.3,0.5,0.3,0.6,0.7,0.9c-0.3-0.9-0.5-0.6-1-1.6L40.2,14.8z"/>
			<polygon fill="#FFFFFF" points="41.5,16.4 41.3,16.3 41.5,16.6 			"/>
			<path fill="#FFFFFF" d="M40.8,16.4c0,0,0.1,0.1,0.2,0C40.8,16,40.8,16.1,40.8,16.4z"/>
			<path fill="#FFFFFF" d="M38,12l-0.4-0.4l0.2,0.3C37.8,11.9,37.9,12,38,12z"/>
			<path fill="#FFFFFF" d="M34.6,10c0.6,0.4,1,0.5,1.6,1.1c0.4,0.1,0-0.3,0.3-0.3c-0.3-0.3-0.4-0.1-0.8-0.3
				c-0.1-0.2-0.5-0.4-0.9-0.6C34.7,10,34.7,10,34.6,10z"/>
			<path fill="#FFFFFF" d="M32.5,8.2c-0.3-0.2-0.7-0.2-0.9-0.4c0.1-0.1,0.3,0,0.5,0.1c0-0.2-0.4-0.2-0.7-0.4c0,0,0.1,0.1,0,0.1
				c-0.9-0.4-0.6,0-1.7-0.6c-0.2,0-0.4-0.1-0.4,0.1c-0.6-0.3-0.3-0.2-1.1-0.6c0,0.1,0.2,0.3,0.2,0.5c-0.6-0.3-0.9-0.3-1.1-0.4
				c-0.3,0-0.4,0-0.8-0.2c0.1,0,0.2,0,0.4,0c-0.1-0.2-0.6-0.1-1.1-0.2l0.1-0.2c-0.4-0.1-1.1,0-1.6-0.1l0.1-0.1c-0.5,0.1-1.1,0-1.6,0
				c-0.5,0-1,0.1-1.5,0.1L21,6c-0.6,0.2-0.3,0.1,0,0.1c0.3,0,0.7,0,0.3,0.2C21.1,6,20.7,6.5,20,6.5c-0.3-0.1,0.7-0.2,0.3-0.3
				c-0.1,0.2-0.3,0.1-0.7,0.2c0-0.2-0.7,0.1-0.6-0.1c0,0-1.2,0.6-1.2,0.6c-0.2,0-0.6,0.1-0.8,0.2c0.7-0.2-0.1,0.3,0.6,0.2
				c0.5-0.2,1.2-0.4,2-0.5c0.4-0.1,0.8-0.1,1.1-0.2c0.4,0,0.8,0,1.1,0c0.1-0.2,0.9,0,1.1-0.2c0,0.1,0.1,0.1,0.2,0.2
				c0.9,0-0.2-0.1,0-0.2c0.4,0,0.7,0.1,0.7,0.2c0.6,0,0.1-0.1,0.4-0.2l0.4,0.3c2,0.1,4.6,0.5,6.6,1.5l-0.1-0.2
				c0.9,0.5,1.7,0.4,2.4,1.2l0.3,0c-0.2,0,0,0.3-0.3,0.2c0.3,0.1,0.5,0.3,0.8,0.4L34,9.4c0.4,0.1,0.7,0.3,0.7,0.5
				c0.7,0.3-0.2-0.5-0.3-0.7c-1.1-0.3-0.8-0.8-1.8-1.2C32,7.8,32.6,8.2,32.5,8.2z"/>
			<path fill="#FFFFFF" d="M33.5,9.2c0.1,0,0.1,0,0.2,0C33.6,9.3,33.5,9.3,33.5,9.2z"/>
			<path fill="#FFFFFF" d="M17.1,7c-0.1,0-0.2,0-0.3,0.1C16.7,7.2,16.9,7.1,17.1,7z"/>
			<polygon fill="#FFFFFF" points="34.7,9.9 34.7,9.9 34.7,9.9 			"/>
			<polygon fill="#FFFFFF" points="35.3,9.9 35.1,9.7 35.1,9.8 			"/>
			<path fill="#FFFFFF" d="M14.2,7.9L14.2,7.9C14.2,8,14.2,7.9,14.2,7.9z"/>
			<path fill="#FFFFFF" d="M7.5,12.8l0.1-0.1C7.5,12.7,7.5,12.7,7.5,12.8z"/>
			<path fill="#FFFFFF" d="M2.3,31.2c0.1,0.5,0.4,1.2,0.6,1.5l-0.1,0C3,33,3.3,33.9,3.3,33.3l-0.1-0.1c-0.3-0.6,0-0.5-0.1-1
				c-0.2-0.6-0.6-0.9-0.6-1.5c0-0.2,0-0.2,0.1-0.2c-0.1-0.6-0.3-0.7-0.4-1.1c0.6-0.2-0.3-1.7,0.1-2.6c0-0.5,0-1.2,0-1.9
				c0.1,0.4,0.1-0.6,0.3-0.5c-0.3-0.2,0.5-1.9,0.1-2.1c0.4-0.9,0,0,0.3-1c0,0,0,0.2,0,0.3c0.2-0.4,0-0.7,0.3-0.9
				c0.3-0.8-0.1-0.2,0-0.7C3.7,19.2,3.7,19.4,4,19c-0.2-0.2,0.2-0.6,0.2-1c-0.1,0.1-0.4,0.6-0.3,0.2c0.5-0.9,0.2-0.8,0.7-1.7
				c0.5-0.3-0.5,0.8,0.1,0.2c-0.2,0.6-0.4,1-0.4,1.4c0.3-0.7,0.8-1.6,1.2-2.4c0.3-0.4,0,0.3,0.2,0c0.6-0.6,0.6-1.2,1.1-1.7l0,0.2
				C7,13.7,8,13,8.5,12.4c-0.1,0-0.2,0-0.1-0.1C8.5,12.5,9,11.4,9.8,11c-0.2-0.1,0.4-0.7,0.8-1c0.2-0.1,0.2,0,0.2,0.1
				c-0.7,0.4-0.5,0.6-1,1.1c0.4-0.4,1.1-0.8,1.4-1.2l-0.1,0.2c0.6-0.4,0.3-0.6,1.1-0.9l0,0.1c1.3-0.9,3.1-1.4,4.2-2
				c0.1-0.1-0.6-0.1-0.7-0.2c-0.7,0.3-1,0.6-1.5,1L14.2,8c-0.1,0.2-0.7,0.5-0.3,0.5c-0.4,0.3-0.4,0-0.8,0.3
				c-0.1-0.2,0.2-0.3,0.2-0.5c0,0-0.4,0.3-0.4,0.3c0.1-0.1-0.3,0.1-0.2,0c-0.6,0.7-1.1,0.5-1.8,1.1c0,0,0.4-0.3,0.4-0.3
				c0.1,0.1-0.2,0.2-0.3,0.4c-0.3,0-0.4,0.1-0.8,0.4c-0.3,0.3-0.3,0.6-0.7,0.9c0-0.2-0.7,0.5-0.9,0.5c0,0.2-0.7,0.8-0.7,0.9
				c-0.2,0.2-0.4,0.5-0.5,0.4c0,0,0.1-0.1,0.1-0.2L7.3,13c0,0,0,0,0-0.1c-0.2,0.2-0.1,0.3-0.4,0.5c0,0,0.1-0.2,0.2-0.3
				c-0.5,0.5-0.5,1.1-1,1.5c0,0.1-0.5,0.8-0.2,0.8c-0.2,0.1-0.3,0-0.6,0.5c0,0.4-0.4,0.5-0.5,0.9c0.1-0.6,0,0,0.1-0.6
				c-0.3,0.3-0.4,0.9-0.7,1.5c-0.1,0-0.1,0-0.2,0.1c-0.1,0.3-0.1,0.6-0.3,0.7l0.1,0c-0.3,0.4-0.5,1-0.8,1.4l0,0.6
				c-0.5,0.7-0.5,1.8-0.5,2.4c-0.1,0.3-0.2,0.7-0.2,0.7c0-0.1,0-0.2,0-0.3c-0.1,0.4-0.3,0.9-0.1,1.2c0,0.4-0.2,0.3-0.3,0.6
				c0.2,0.9-0.4,2.6,0.1,2.8c0-0.2,0-0.4,0-0.7c0-0.3,0.1-0.6,0.1-1c0,0.2,0.1,0,0.1,0.3c0,0.7-0.2,1-0.1,1.7L2,28.1
				C1.7,29.3,2.6,30.3,2.3,31.2z"/>
			<path fill="#FFFFFF" d="M2.5,22.6c0,0-0.3,0.4-0.3,0.5l0.1,0C2.4,22.8,2.4,22.7,2.5,22.6z"/>
			<path fill="#FFFFFF" d="M2.4,23c0,0.1,0,0.2,0,0.3C2.4,23.2,2.4,23.1,2.4,23L2.4,23z"/>
			<path fill="#FFFFFF" d="M2.8,33.1c0,0.1,0,0.3,0.1,0.5C3,33.5,2.9,33.2,2.8,33.1z"/>
			<path fill="#FFFFFF" d="M3.1,33.7c0,0,0-0.2,0-0.2l0,0C3,33.4,3.1,33.7,3.1,33.7z"/>
			<path fill="#FFFFFF" d="M11.7,44.7l0.8,0.3c0.1,0.1,0.9,0.5,0.6,0.5c0.5,0.1,1.3,0.6,1.1,0.2c-2.1-0.9-4.5-2.8-6.4-4.7l0.4,0.2
				c-1.1-0.8-1-1.6-2-2.2l0.3,0c-0.3-0.5-0.9-0.8-1.1-1.5l0,0.1c-0.1-0.1-0.1-0.2-0.2-0.4l0,0.1c-0.3-0.3-0.4-0.6-0.6-1.1
				c0.1-0.1,0.1,0.2,0.2,0.3c0-0.2-0.3-0.5-0.5-0.8c-0.1-0.3,0.1,0,0.1,0c-0.6-0.9-0.4-1.5-1-2c-0.1-0.1,0,0.3-0.2-0.1
				c0.1,0.7,0.5,1.2,0.8,1.7l-0.1-0.2c0.5,0.3,0.1,0.4,0.6,1.1c-0.2-0.1-0.4-0.5-0.5-0.6c0.2,1,0.7,1.1,0.8,1.8l0-0.1
				c0,0.1,0.2,0.3,0.4,0.5c0-0.1-0.1-0.3-0.1-0.4c0.1,0.2,0.3,0.2,0.4,0.2c0,0.3,0.2,0.2,0.4,0.6c0,0.2-0.3-0.2-0.4-0.3l0.3,0.3
				c0.2,0.4,0.1,0.4,0.2,0.7C6,39.4,5.7,38.9,6,39.1c0.1,0.2,0.4,0.7,0.8,1.3c0.4,0.5,1,1,1.3,1.3c-0.2-0.2-0.2,0-0.4-0.3
				c0.1,0.1,0.5,0.4,0.5,0.4c0.5,0.4,1.1,1,1.4,1.4L9.6,43c0.5,0.2,0.9,0.9,1.7,1.3l0,0c0.2,0.2,0.6,0.1,1,0.4
				C12,44.7,11.8,44.5,11.7,44.7z"/>
			<path fill="#FFFFFF" d="M14.6,45.9l-0.3,0c0.3,0.2,0.7,0.2,0.7,0.1c-0.2-0.1-0.4-0.2-0.5-0.2C14.5,45.9,14.4,45.9,14.6,45.9z"/>
			<path fill="#FFFFFF" d="M20.1,47.6c0.1,0,0.1-0.1,0.1-0.1c-1.2-0.1-2.7-0.5-3.1-0.7c-0.4-0.2-0.5,0-1-0.1L16,46.4
				c-0.3,0-1-0.5-0.9-0.1c0,0,0.3,0,0.5,0.1l-0.1,0.1l0.5,0.2l-0.2,0c0.7,0.4,0.6-0.1,1.5,0.3l-0.1,0.2c0.6,0.2,0.9,0.2,1.4,0.4
				c0,0,0-0.1-0.1-0.1c-0.1,0-0.2-0.2-0.1-0.2c0.9,0.1-0.2,0.1,0.5,0.3c0.8,0,2.3,0.1,2.8,0.3c-0.4-0.1,0.2-0.3,0.6-0.2
				c0.2,0.1-0.1,0.1-0.2,0.2c0.2,0,0.4,0.1,0.6,0.1c-0.3-0.1-0.1-0.3,0.4-0.3C22.1,47.4,21.2,47.8,20.1,47.6z"/>
			<path fill="#FFFFFF" d="M20.5,47.4c-0.1,0-0.2,0-0.2,0c0.1,0,0.3,0,0.4,0.1L20.5,47.4z"/>
		</g>
		<g>
			<polygon fill="#FFFFFF" points="40.1,11.7 40.4,12.1 40.6,12.1 			"/>
			<path fill="#FFFFFF" d="M41.2,13.7l0.5,0.6c0-0.6,0.3,0-0.2-1.2c-0.3-0.3-1.1-1-1.1-0.8c0.2,0.2,0.6,0.5,0.9,0.9
				c-0.2-0.1-0.5-0.5-0.8-0.6c0.4,0.7,0.4,0.3,0.9,1L41.2,13.7z"/>
			<path fill="#FFFFFF" d="M42.1,14.3c-0.1,0-0.2-0.1-0.2,0C41.9,14.3,42.2,14.6,42.1,14.3z"/>
			<path fill="#FFFFFF" d="M42.4,14.7c0.3,0.4-0.1,0.1-0.1,0.1l0.5,0.4L42.4,14.7z"/>
			<path fill="#FFFFFF" d="M43.5,16.5c0,0.1,0.1,0.1,0.1,0.2C43.6,16.6,43.5,16.6,43.5,16.5z"/>
			<path fill="#FFFFFF" d="M44,17.4c0-0.2-0.2-0.5-0.4-0.7c0,0,0,0,0,0c0.1,0.3-0.2,0.1-0.4-0.3c-0.3-0.4-0.1-0.5-0.4-0.8l0.2,0.6
				C43.4,16.9,43.8,17.2,44,17.4z"/>
			<path fill="#FFFFFF" d="M43.5,16.5c0-0.1-0.1-0.2-0.1-0.2C43.3,16.4,43.4,16.5,43.5,16.5z"/>
			<polygon fill="#FFFFFF" points="42.9,15.6 42.8,15.3 42.7,15.4 			"/>
			<path fill="#FFFFFF" d="M44.7,19.1c-0.2,0-0.5-1.2-0.7-1.2c0.3,0.6,0.3,1.2,0.2,1.1l0.3,0.7C44.6,19.8,44.7,19.5,44.7,19.1z"/>
			<path fill="#FFFFFF" d="M44.6,20.7c0,0,0.1,0.1,0.1,0.2C44.6,20.7,44.6,20.7,44.6,20.7z"/>
			<path fill="#FFFFFF" d="M45.8,24.3c0,0-0.1-0.4-0.2-0.9c-0.1-0.4-0.3-0.9-0.3-0.9c0.1,0.1,0.2,0.1,0.3,0.5
				c-0.1-0.8-0.3-0.9-0.4-1.5c0.2-0.2,0.3,1.1,0.4,0.7c-0.1-0.5-0.3-1.1-0.6-1.4l-0.1-0.7l-0.2,0.3c0,0.3,0.4,0.5,0.2,0.7
				c-0.1,0.1-0.2-0.2-0.2-0.4c0.2,0.4,0.2,1.3,0.4,2.2C45.2,24,45.6,23.7,45.8,24.3z"/>
			<polygon fill="#FFFFFF" points="45.5,24.4 45.4,24.6 45.6,24.5 			"/>
			<path fill="#FFFFFF" d="M46,26.4c0,0,0-0.2-0.1-0.5c-0.1-0.2-0.1-0.5-0.1-0.5c0-0.1,0.1-0.2,0.1-0.2c-0.1,0-0.2-0.2-0.2-0.2
				c-0.2,0.4,0.2,1.1,0.2,1.6c-0.1,1.3-0.1-0.1-0.3,0.5c0-0.4,0-0.4,0.1-0.9c-0.2,0.8,0,1.8,0,2.3c0-0.1,0.1-0.2,0.1-0.5l0,0.5
				C45.9,28.1,46.1,27.6,46,26.4z"/>
			<path fill="#FFFFFF" d="M45.9,24.7c0.1,0.3,0.1,0.5,0,0.5C45.9,25.1,46,25,45.9,24.7z"/>
			<path fill="#FFFFFF" d="M45.6,28.8c0-0.1,0-0.2,0-0.3C45.6,28.6,45.6,28.7,45.6,28.8z"/>
			<path fill="#FFFFFF" d="M45.9,28.3L45.8,29l0.1-0.2C45.9,28.6,45.9,28.3,45.9,28.3z"/>
			<path fill="#FFFFFF" d="M32.5,47.7c0.1,0.1,0.3,0,0.8-0.2c0,0.1-0.6,0.4-0.8,0.6c0.6-0.2,0,0.1,0.2,0.2c0.7-0.3,0.9-0.6,1.6-0.9
				c0,0,0,0.1,0.1,0.1c0.4-0.3,0.9-0.7,1.5-1c0.5-0.4,1-0.8,1.4-1c0.8-0.5,1.2-1,1.9-1.7c2.4-2.2,4.2-5.2,5.5-8.5l0-0.5
				c0.2-0.1,0.3-0.8,0.4-0.6c-0.1,0.2-0.1,0.4-0.2,0.6c0.2-0.3,0.3-0.8,0.5-1.3c0.1-0.5,0.2-1,0.3-1.5c-0.1,0.1-0.3,0.2-0.3-0.1
				c0.2,0.1,0.2-1,0.5-1.3c0.2-0.9-0.2-0.1-0.1-1c-0.1-0.1-0.2,0.9-0.3,1c-0.1-0.3,0.2-0.8,0-0.8c-0.3,1.4-0.4,4.2-1.3,6.4l0-0.3
				c-0.3,1.1-1.2,2.8-1.9,3.5c0.1-0.1-0.1,0.3-0.3,0.7c-0.2,0.4-0.5,0.7-0.3,0.7c-0.2,0.2-0.3,0.3-0.5,0.6l0,0.1
				c-0.4,0.5-0.4,0.3-0.9,0.8c0.4-0.2,0.1,0.1,0,0.4c-0.3,0.3-0.7,0.5-1,0.8c-0.3,0.2-0.7,0.5-1,0.6c0.1,0,0.1,0,0.4-0.1
				c-0.4,0.3-0.2,0.3-0.3,0.4c-0.3,0.3-0.4,0.2-0.4,0.1c-0.6,0.5-0.8,1-1.3,1.3l0.3,0c-0.3,0.3-0.7,0.5-1,0.7
				c-0.4,0.2-0.7,0.4-1.1,0.7c-0.5,0.1,0.6-0.5,0.9-0.8c-0.2,0.1-0.5,0.3-0.7,0.3c-0.3,0.3-0.8,0.8-1.2,1.1
				C33.9,47,32.8,47.5,32.5,47.7z"/>
			<path fill="#FFFFFF" d="M34.8,46.4c0.1-0.1,0.2-0.2,0.2-0.2C34.9,46.2,34.8,46.3,34.8,46.4C34.7,46.4,34.7,46.4,34.8,46.4z"/>
			<path fill="#FFFFFF" d="M32.5,47.7C32.5,47.7,32.5,47.7,32.5,47.7C32.4,47.7,32.4,47.7,32.5,47.7z"/>
			<path fill="#FFFFFF" d="M37.4,45.2c0,0-0.1,0-0.1,0.1c0,0-0.1,0.1-0.1,0.1L37.4,45.2z"/>
			<path fill="#FFFFFF" d="M37.6,44.3c0.2-0.1,0.4-0.2,0.6-0.4C38.1,43.9,38,43.9,37.6,44.3z"/>
			<path fill="#FFFFFF" d="M41.6,40.1c0.1-0.2,0-0.1,0-0.2C41.4,40.2,41.3,40.3,41.6,40.1z"/>
			<path fill="#FFFFFF" d="M33.9,46.9c0,0-0.6,0.4-0.6,0.4L33,47.4C33,47.4,33.9,46.9,33.9,46.9z"/>
			<path fill="#FFFFFF" d="M19.7,50c0.3,0.1,0.7,0.2,1.1,0.3c0.4,0,0.9,0,1.3,0.1c1.5,0,0.2-0.3,1.6-0.3l-0.2,0.3
				c0.7-0.1,1.5,0,2.4-0.2c0.8-0.2,1.6-0.3,2.1-0.6c0.1,0,0.4,0,0,0.1c0.9-0.2,0.4-0.6,1.6-0.8c-1.1,0.5,0.4,0.1,0.2,0.4l-0.2,0.1
				c0.8-0.2,1.7-0.7,2.2-0.9c0-0.1-0.5-0.1,0.2-0.3c-0.3,0.1-0.2,0-0.2-0.1c-0.6,0.3-1,0.4-1.4,0.7c-0.4,0,0.2-0.1-0.2-0.1
				c0,0-0.1,0.1-0.3,0.1c-0.1,0.1-0.3,0.1-0.3,0.1c-0.4,0.1,0.4-0.2-0.3-0.1c-0.1,0.1-0.5,0.3-1,0.4l0.1-0.1
				c-0.4,0.1-0.9,0.2-0.7,0.4c0,0-0.5-0.1-0.5-0.1l0.1,0.1c-0.5,0.1-0.9,0-1.3,0c-0.2,0-0.4,0-0.7,0c-0.2,0-0.5,0-0.9,0.1
				c0.3,0,0,0.1-0.1,0.1c0.6,0,0.7-0.1,1.2-0.2c0.1,0.1-0.8,0.3-0.1,0.4c-0.7-0.1-1.4,0.1-1.7-0.2c-0.9,0.1-1.2,0.1-2.1,0l0,0
				c-0.2,0.2-0.7-0.1-1.4,0l0.5,0.1c0,0.1-0.3,0-0.6,0c0,0,0,0-0.1-0.1c-0.1,0.1-1.1,0-1.3,0c0.4,0.1,1,0,1.5,0.1
				C20.1,50,20.2,50.1,19.7,50z"/>
			<path fill="#FFFFFF" d="M28.7,49l-0.3,0.1C28.6,49.1,28.7,49.1,28.7,49z"/>
			<path fill="#FFFFFF" d="M15.9,48.9c-0.5-0.2,0.2-0.1-0.3-0.3c-0.6-0.1,0.5,0.4,0,0.4c-0.3-0.2-0.9-0.3-1.1-0.3
				c0.3,0,0.2-0.2,0.1-0.3c-0.2,0-0.6-0.3-1-0.5c0.8,0.5-0.7-0.3,0,0.2c-0.1,0.1-0.9-0.2-1.2-0.5c0.1-0.1,0.3,0.1,0.5,0.2
				c0.2-0.1-0.5-0.3-0.5-0.5c-0.4-0.1-1.2-0.6-1.9-0.9c-0.6-0.3-1.1-0.6-0.9-0.2c0.2,0.2,0.5,0.3,0.7,0.5c-0.7-0.5,0.1-0.2,0.2-0.2
				c0.3,0.2,0.9,0.5,0.7,0.5l-0.6-0.2c1.6,1.2,4.2,2.2,6.4,2.8l-1-0.3c0.1-0.1,0.6,0,1,0.1l-0.4-0.3c0.3,0.1,0.5,0.1,0.5,0.2
				c0.4,0,0.2-0.1,0-0.2c0.7,0.1,0.8,0.3,1.4,0.2c-1.1-0.5-1-0.1-2.3-0.6L15.9,48.9z"/>
			<path fill="#FFFFFF" d="M18.5,49.4l-0.3,0c0,0,0.4,0.1,0.4,0L18.5,49.4z"/>
			<path fill="#FFFFFF" d="M17.9,49.8c0-0.1,0.2,0,0.2-0.1C17.5,49.6,17.6,49.6,17.9,49.8z"/>
			<path fill="#FFFFFF" d="M11.8,46.9l-0.6-0.3l0.4,0.3C11.5,46.7,11.7,46.8,11.8,46.9z"/>
			<path fill="#FFFFFF" d="M7.3,44.3c0.4,0.3,0.7,0.6,1,0.8c0.3,0.2,0.6,0.5,1.1,0.9c0.5,0.2,0-0.4,0.2-0.4c-0.4-0.4-0.5-0.1-1-0.4
				c-0.1-0.2-0.7-0.6-1.1-1C7.5,44.3,7.4,44.3,7.3,44.3z"/>
			<path fill="#FFFFFF" d="M5.3,41.4c-0.3-0.4-0.6-0.7-0.8-1c0.1,0,0.3,0.2,0.4,0.4c0-0.3-0.3-0.4-0.5-0.9c0,0,0.1,0.2,0,0.1
				c-0.6-1.1-0.5-0.5-1.2-1.9c-0.2-0.2-0.2-0.4-0.3-0.3c-0.3-0.9-0.1-0.5-0.4-1.5c0,0.1,0,0.5-0.2,0.5c-0.3-0.7-0.4-1.1-0.5-1.4
				c-0.1-0.3-0.2-0.5-0.3-1c0,0.1,0.1,0.2,0.2,0.5c0.2-0.2-0.4-0.8-0.4-1.3l0.2,0c-0.1-0.5-0.5-1.3-0.5-2l0.1,0.1
				c-0.2-0.6-0.3-1.3-0.4-2c-0.1-0.7-0.1-1.3-0.2-1.9l0.1-0.6c0-0.8-0.1-0.4-0.1,0c0,0.4,0,0.9-0.2,0.4c0.3-0.2-0.1-0.8,0.1-1.7
				c0.2-0.4,0,0.9,0.2,0.4c-0.2-0.2,0-0.5-0.1-0.9c0.1,0.1,0.1-0.2,0.1-0.4c0-0.2,0.1-0.4,0.1-0.3l-0.1-1.7c0.1-0.2,0.2-0.7,0.3-1
				c-0.2,0.9-0.2-0.3-0.5,0.7c-0.2,1.5-0.4,3.9-0.3,5.7c0.3,0.2,0,1.2,0.3,1.4c-0.1,0-0.1,0.2-0.2,0.2c0.2,1.2,0.1-0.3,0.2,0
				c0.1,0.5,0,0.9-0.1,0.9c0.1,0.8,0.1,0.1,0.3,0.5c0,0-0.2,0.6-0.1,0.6c0.2,0.6,0.4,1.3,0.6,2c0.3,0.7,0.6,1.4,0.9,2.1
				c0.4,0.7,0.7,1.4,1.1,2.1c0.4,0.7,0.8,1.3,1.2,2l0-0.3c0.7,1.1,1.6,1.6,2.2,2.7L6.6,43c-0.2-0.1,0,0.3-0.3,0.1
				c0.3,0.2,0.5,0.6,0.8,0.8c0,0-0.1-0.1-0.2-0.3c-0.1-0.1-0.2-0.3-0.2-0.3c0.4,0.3,0.8,0.6,0.8,0.8c0.8,0.6-0.3-0.6-0.3-0.8
				c-1.1-0.8-0.8-1.2-1.7-2.2C4.9,40.6,5.4,41.4,5.3,41.4z"/>
			<path fill="#FFFFFF" d="M6.1,43c0.1,0.1,0.1,0.1,0.2,0.1C6.2,43.1,6.2,43,6.1,43z"/>
			<path fill="#FFFFFF" d="M0.8,22.1c0-0.1,0-0.2,0.1-0.4C0.9,21.6,0.9,21.8,0.8,22.1z"/>
			<polygon fill="#FFFFFF" points="7.5,44.2 7.5,44.2 7.4,44.2 			"/>
			<polygon fill="#FFFFFF" points="8.2,44.4 7.9,44.1 7.9,44.2 			"/>
			<path fill="#FFFFFF" d="M2.2,18.4L2.2,18.4C2.2,18.4,2.2,18.4,2.2,18.4z"/>
			<path fill="#FFFFFF" d="M8.5,10l-0.2,0.1C8.4,10.1,8.4,10,8.5,10z"/>
			<path fill="#FFFFFF" d="M24.4,4.5c0.4,0,0.9,0,1.3,0c0.4,0,0.8,0,1,0l-0.1,0.1c0.4,0,1.6,0.1,0.9-0.2l-0.2,0
				c-0.9,0-0.6-0.2-1.3-0.4c-0.4,0-0.8,0-1,0.1c-0.4,0.2-0.3-0.2-0.3-0.5c0-0.3,0.1-0.3,0.1-0.2c0-0.7-0.2-1-0.2-1.5
				c0.4-0.1,0.3-0.7,0.2-1.8c-0.9,0.1-1.4,0.1-1.9-0.1c-0.2,0-0.4,0-0.6,0c-0.3,0-0.6,0-0.9,0c0,0.3,0,0.5,0,0.8
				c0,0.2,0,0.4,0.1,0.6c-0.2-0.5,0,0.8-0.2,0.6c0.2,0.1,0.1,0.8,0.1,1.4c0,0.1,0,0.2,0,0.4c0,0.1,0.1,0.2-0.1,0.2
				c-0.1,0-0.3,0.1-0.3,0.2c-1.2,0,0,0-1.4,0.1c0-0.1,0.2-0.1,0.3-0.1c-0.6,0-0.8,0.3-1.3,0.2c-1.1,0.2-0.2,0.2-0.8,0.4
				C16.7,5.1,17,5.1,16.4,5c0,0.2-0.7,0.3-1.2,0.6c0.1,0,0.9-0.2,0.4,0c-1.3,0.4-0.9,0.5-2.1,1.1c-0.7,0,1.1-0.5,0.1-0.2
				c0.7-0.4,1.2-0.6,1.6-1c-1,0.4-2.2,0.9-3.2,1.6c-0.6,0.3,0.2-0.3-0.2,0c-1.1,0.5-1.4,1.2-2.2,1.6l0.1-0.2C9.4,8.7,9,9,8.6,9.4
				C8.3,9.5,8.1,9.7,7.9,9.9c-0.2,0.2-0.4,0.4-0.6,0.6c0.1,0,0.2-0.1,0.2,0c-0.2-0.2-1,1.1-1.8,1.8c0.2,0.1-0.4,0.9-0.7,1.4
				c-0.2,0.2-0.2,0.1-0.3,0c0.7-0.8,0.4-1,0.9-1.7c-0.2,0.3-0.5,0.6-0.8,1c-0.3,0.4-0.5,0.7-0.6,1l0-0.3c-0.6,0.8-0.2,0.9-0.8,1.7
				l0-0.1C3,16,2.7,16.4,2.5,16.9c-0.2,0.5-0.5,1-0.7,1.5c-0.2,0.5-0.4,1-0.5,1.5C1.1,20.3,1,20.7,1,21.1c0.1,0.2,0.5-0.6,0.6-0.6
				C1.8,19.6,1.8,19,2,18.3l0.2,0.1c0-0.2,0.3-1,0-0.6c0.2-0.6,0.3-0.3,0.5-1c0.1,0.1,0,0.5,0.1,0.6c0,0,0.2-0.6,0.2-0.6
				c0,0.2,0.2-0.3,0.2-0.1c0.4-1.1,0.8-1.3,1.4-2.3l-0.4,0.5c-0.1-0.1,0.1-0.4,0.3-0.6c0.3-0.2,0.4-0.3,0.8-0.8
				C5.5,13,5.5,12.7,6,12.2c0,0.2,0.8-0.8,1.1-0.7c0-0.2,0.9-1,0.9-1.1C8.2,10,8.6,9.7,8.7,9.8c0,0-0.1,0.1-0.2,0.2l0.3-0.2
				c0,0,0,0,0,0.1C9,9.6,8.9,9.5,9.3,9.3c0,0-0.1,0.2-0.3,0.3c0.7-0.5,1-1.2,1.7-1.4c0.1-0.2,0.9-0.7,0.6-0.8
				c0.3-0.1,0.3,0.1,0.9-0.2c0.3-0.3,0.7-0.4,1.2-0.7c-0.6,0.5,0,0-0.5,0.5c0.5-0.2,1.1-0.6,1.9-1c0.1,0,0.1,0.1,0.2,0.1
				c0.3-0.2,0.6-0.4,0.9-0.4L16,5.6c0.6-0.1,1.4-0.4,2-0.4l0.7-0.4c0.3,0,0.5,0,0.8-0.1c0.3,0,0.6-0.1,0.8-0.1
				c0.3-0.1,0.5-0.1,0.8-0.2c0.1,0,0.3-0.1,0.4-0.1c0,0,0.1,0,0.1-0.1c0-0.1,0-0.1,0-0.2c0-0.3,0.1-0.9,0.1-0.9
				c0,0.1,0.1,0.2,0.1,0.4c0-0.5,0.1-1.2-0.1-1.5c-0.1-0.6,0.1-0.4,0.2-0.8c-0.1-0.3-0.1-0.5-0.1-0.8c0.5,0,1,0,1.5,0.1
				c0.2,0,0.5,0,0.6,0c0.1,0,0.2-0.1,0.3-0.2c-0.4,0-1.3-0.1-2.2-0.1c0.2-0.1,0.1-0.1,0.4-0.1c0.9,0,1.2,0.1,2.3,0.1c0,0,0,0,0,0.1
				c-0.1,0-0.1,0.1-0.2,0.1l-0.1,0.1l0,0c-0.1,0.5,0,1.3,0,2c0,0.3,0.1,0.7,0.1,1C24.6,3.7,24.5,4,24.4,4.5z"/>
			<path fill="#FFFFFF" d="M21.5,4.5c0,0,0.1,0,0.1,0c0.1,0,0.3,0.1,0.2-0.1c0-0.2,0.1-0.4,0.1-0.4L21.8,4c0,0.1,0,0.3,0,0.4
				c0,0,0,0.1-0.1,0l-0.1,0L21.5,4.5z"/>
			<path fill="#FFFFFF" d="M21.8,4c0-0.2,0-0.4-0.1-0.5C21.8,3.7,21.8,3.9,21.8,4L21.8,4z"/>
			<path fill="#FFFFFF" d="M27.1,4.7c0.1,0,0.4,0.1,0.7,0.1C27.6,4.8,27.3,4.7,27.1,4.7z"/>
			<polygon fill="#FFFFFF" points="27.9,4.8 27.6,4.7 27.5,4.7 			"/>
			<path fill="#FFFFFF" d="M39.7,5.5c0,0,0.2-0.2,0.3-0.4c0.2-0.3,0.5-0.6,0.5-0.6c0,0,0.1-0.1,0.2-0.2C41,4.5,41.2,4.8,41.4,5
				c0.2,0.2,0.2,0.2,0,0.2C42,5.4,42.8,6.5,42.7,6c-0.2-0.2-0.5-0.5-0.8-0.7c-0.4-0.4-0.7-0.7-1.1-1.1C39.9,5,38.9,5.9,38,6.9
				c0.4,0.4,0.8,0.8,1.2,1.2l0.4,0.4l0.2,0.1c0.1-0.1-1.1,1.1-1.1,1.2l-0.3-0.2c0.1,0.1,0.3,0.1,0.3,0.1c0,0-0.1,0-0.1,0
				c0,0-0.1,0-0.2-0.1c-0.2-0.1-0.3-0.2-0.4-0.4c-0.3-0.2-0.5-0.4-0.7-0.6c-0.4-0.4-0.9-0.7-1.6-0.9l0.3-0.1C35.1,7,34.3,7,33.6,6.4
				l0,0.1c-0.2-0.1-0.3-0.2-0.5-0.3l0.1,0.1c-0.6-0.2-0.9-0.3-1.5-0.6c0-0.1,0.3,0.1,0.5,0.1C32,5.6,31.5,5.5,31,5.4
				c-0.3-0.2,0-0.1,0.1-0.1c-1.4-0.4-1.9-0.8-3-0.7c-0.1,0,0.3,0.2-0.2,0.1c0.9,0.3,1.6,0.4,2.5,0.5l-0.2-0.1
				c0.7-0.1,0.5,0.2,1.5,0.5c-0.3,0-0.8-0.1-1-0.1c1.1,0.6,1.7,0.5,2.3,1.1l-0.1,0c0.2,0.1,0.5,0.2,0.7,0.3
				c-0.1-0.1-0.3-0.2-0.4-0.3c0.3,0.1,0.5,0,0.6,0c0.2,0.3,0.4,0.1,0.8,0.5c0.1,0.2-0.4-0.1-0.6-0.1l0.6,0.2
				c0.5,0.3,0.4,0.4,0.6,0.6c0.5,0.2-0.2-0.2,0.2-0.1c0.2,0.2,0.8,0.6,1.4,1.1c0.3,0.2,0.7,0.5,1,0.7c0.3,0.3,0.6,0.5,0.8,0.6
				c0-0.1,0.1-0.1,0.1-0.2c-0.1,0.1-0.1,0.1-0.1,0.2c-0.1,0,0,0.1-0.3-0.2c0.1,0.1,0.2,0.2,0.3,0.3c0.1-0.2,0.2-0.3,0.2-0.4L39,9.7
				l0.2-0.2c0.1-0.1,0.2-0.2,0.3-0.4c0.3-0.3,0.4-0.4,0.6-0.6c-0.1-0.1-0.2-0.3-0.3-0.4c0,0,0,0.2,0,0.2c-0.1,0-0.4-0.3-0.6-0.5
				c-0.2-0.2-0.5-0.6-0.8-0.9c0.3-0.2,0.6-0.5,0.8-0.8l0,0c0.2-0.3,0.3-0.7,0.8-1.1C39.9,5.2,39.6,5.5,39.7,5.5z"/>
			<path fill="#FFFFFF" d="M43.1,6.5l-0.4-0.2c0.3,0.3,0.8,0.6,0.8,0.4c-0.2-0.2-0.4-0.5-0.5-0.5C43,6.3,42.9,6.4,43.1,6.5z"/>
			<path fill="#FFFFFF" d="M42.6,11.5c-0.1-0.1-0.1,0-0.2,0c0.4,0.3,0.7,0.7,1.1,1.1c0.5-0.5,1.1-1.1,1.6-1.6
				c0.2-0.2,0.4-0.4,0.6-0.6c0.3-0.3,0.6-0.5,0.8-0.7c-0.2-0.2-0.3-0.4-0.4-0.5c-0.2-0.2-0.4-0.4-0.4-0.4c-0.1-0.1-0.2-0.1-0.2-0.1
				c-0.2-0.1-0.4-0.2-0.6-0.4l-0.1-0.3c-0.3-0.2-1-1.1-0.9-0.7c0,0,0.3,0.2,0.5,0.4l-0.1,0l0.5,0.5L44.3,8c0.3,0.4,0.5,0.5,0.7,0.6
				c0.1,0,0.2,0.1,0.3,0.2c0,0,0.2,0.1,0.3,0.3c0.1,0.1,0.3,0.3,0.5,0.5l-0.3,0c0,0,0.1,0.1,0.1,0.1c-0.8,0.8-1,1-1.6,1.5
				c0,0,0.1,0.1,0.1-0.1c0.1-0.1,0.3-0.2,0.3,0c-0.8,1,0-0.2-0.6,0.3c-0.1,0.2-0.4,0.5-0.7,0.8c-0.4-0.3-0.8-0.7-1.2-1.1
				c-0.1-0.1-0.3-0.2-0.4-0.4c-0.1-0.1-0.1-0.1-0.2-0.2c-0.1,0.1-0.1,0.1-0.2,0.1c0.2,0,0.2,0.2-0.4,0.7c-0.2,0.1,0-0.2,0.1-0.3
				c-0.2,0.2-0.4,0.3-0.6,0.5c0.3-0.2,0.3,0.1-0.1,0.6c0.3-0.3,0.6-0.6,0.9-0.9l0.2-0.2c0.1-0.1,0.1-0.2,0.1-0.2c0,0,0-0.1,0-0.1
				c0,0,0,0,0.1,0c0,0,0,0,0.2,0.1C42.2,11.1,42.4,11.3,42.6,11.5z"/>
			<path fill="#FFFFFF" d="M42.2,11.3c0.1,0.1,0.2,0.1,0.2,0.1c-0.1-0.1-0.3-0.3-0.4-0.4L42.2,11.3z"/>
		</g>
	</g>
</g>
<g>
	<path fill="#FFFFFF" d="M24.3,29.3l9.3,9.3l1.4-1.4l-9.3-9.3c0.5-1.1,0.3-2.5-0.6-3.4c-0.9-0.9-2.3-1.1-3.4-0.6l-3-3l-1.4,1.4l3,3
		c-0.5,1.1-0.3,2.5,0.6,3.4C21.9,29.6,23.2,29.8,24.3,29.3z"/>
	<g>
		<polygon fill="#FFFFFF" points="24.4,29.3 24.2,29.3 24.2,29.5 		"/>
		<path fill="#FFFFFF" d="M23.6,29.1c0,0-0.2,0.1-0.2,0.1c0.2,0.3,0,0.3,0.4,0.5c0.1-0.1,0.4-0.3,0.3-0.4c-0.1,0-0.2,0.2-0.3,0.2
			c0-0.1,0.2-0.1,0.2-0.3c-0.2,0-0.1,0.1-0.4,0.1L23.6,29.1z"/>
		<path fill="#FFFFFF" d="M23.4,29.5c0-0.1,0-0.1,0-0.2C23.4,29.4,23.3,29.5,23.4,29.5z"/>
		<path fill="#FFFFFF" d="M23.2,29.5c-0.2,0,0-0.1,0-0.2L23,29.6L23.2,29.5z"/>
		<path fill="#FFFFFF" d="M22.6,29.5L22.6,29.5C22.5,29.6,22.5,29.5,22.6,29.5z"/>
		<path fill="#FFFFFF" d="M22.3,29.5c0,0.1,0.1,0.1,0.2,0.1c0,0,0,0,0,0c-0.1-0.1,0-0.2,0.2-0.2c0.1,0,0.1,0.1,0.3,0l-0.2-0.2
			C22.5,29.2,22.4,29.4,22.3,29.5z"/>
		<path fill="#FFFFFF" d="M22.6,29.5C22.6,29.5,22.6,29.5,22.6,29.5C22.6,29.5,22.6,29.5,22.6,29.5z"/>
		<polygon fill="#FFFFFF" points="22.9,29.5 23,29.5 23,29.4 		"/>
		<path fill="#FFFFFF" d="M21.7,29.3c0.1-0.2,0.4,0.2,0.5,0C22,29.2,21.9,29,22,28.9c0,0-0.2,0-0.2,0C21.7,28.9,21.7,29.1,21.7,29.3
			z"/>
		<path fill="#FFFFFF" d="M21.7,28.6C21.6,28.6,21.6,28.6,21.7,28.6C21.6,28.6,21.6,28.6,21.7,28.6z"/>
		<path fill="#FFFFFF" d="M20.7,28.1c0,0,0.5,0.3,0.5,0.3c-0.1,0-0.1,0.1-0.2,0c0.1,0.2,0.2,0.1,0.4,0.2c-0.1,0.2-0.3-0.2-0.3,0
			c0.1,0.1,0.3,0.2,0.5,0.1c0,0,0.1,0.2,0.1,0.2l0.1-0.2c0-0.1-0.2,0.1-0.2-0.1c0-0.1,0.1-0.1,0.2,0c-0.1-0.1-0.1-0.3-0.3-0.5
			C21.1,27.9,20.9,28.2,20.7,28.1z"/>
		<polygon fill="#FFFFFF" points="20.9,27.9 20.9,27.8 20.8,27.9 		"/>
		<path fill="#FFFFFF" d="M20.4,27.5l0.2,0.2c0,0,0,0.1-0.1,0.1c0,0,0.2,0,0.2,0c0.1-0.2-0.2-0.3-0.3-0.4c0-0.4,0.1,0,0.3-0.2
			c0,0.1,0,0.1,0,0.2c0.2-0.3-0.1-0.4-0.2-0.6c0,0-0.1,0.1-0.1,0.1l-0.1-0.1C20.2,27,20.2,27.2,20.4,27.5z"/>
		<path fill="#FFFFFF" d="M20.6,28c-0.1-0.1-0.1-0.1-0.1-0.1C20.5,27.9,20.5,27.9,20.6,28z"/>
		<path fill="#FFFFFF" d="M20.5,26.8C20.5,26.8,20.5,26.8,20.5,26.8C20.5,26.8,20.5,26.8,20.5,26.8z"/>
		<path fill="#FFFFFF" d="M20.3,27l0-0.2l-0.1,0.1C20.2,26.9,20.2,27,20.3,27z"/>
		<path fill="#FFFFFF" d="M18.8,21.6C18.8,21.5,18.7,21.5,18.8,21.6c-0.1-0.2-0.1-0.2,0-0.4c-0.1,0,0-0.2-0.1-0.3
			c-0.2,0.2-0.2,0.4-0.3,0.5c0,0-0.1-0.1-0.1-0.1c-0.1,0.1-0.2,0.3-0.3,0.5c-0.1,0.1-0.2,0.3-0.4,0.3c0,0-0.1,0.1-0.1,0.1
			c0.1,0.1,0.3,0.3,0.5,0.4c0.7,0.8,1.5,1.4,2.2,2.3c0,0,0.3,0,0.3,0c-0.1,0.1,0.3,0.3,0.1,0.3c0-0.1-0.1-0.1-0.2-0.2
			c0,0.1,0,0.1,0.1,0.2c0,0.1-0.1,0.2-0.1,0.2c-0.1,0.2-0.1,0.3-0.1,0.5c0,0,0.2,0,0.3,0.1c-0.3-0.1-0.1,0.3-0.3,0.3
			c-0.1,0.3,0.2,0,0.2,0.3c0.1,0,0.1-0.3,0.2-0.3c0.1,0.1-0.1,0.2,0.1,0.2c0-0.2,0-0.4,0-0.8c0-0.1,0.1-0.3,0.1-0.4l0-0.2L20.6,25
			c-0.2-0.1-0.4-0.3-0.6-0.4l0.2,0c-0.3-0.2-0.7-0.6-0.8-1c0,0.1-0.3-0.4-0.5-0.2c0-0.1,0-0.1-0.1-0.2l-0.1,0
			c-0.1-0.1,0-0.2-0.2-0.4c0,0.2-0.1,0.1-0.2,0.1c0-0.1-0.1-0.3-0.1-0.4c0-0.1,0-0.2,0-0.2c0,0-0.1,0-0.1,0.1c0-0.1-0.1,0-0.2,0
			c-0.1-0.1,0.1-0.1,0.2-0.1c0,0,0,0-0.1,0c-0.1,0-0.2-0.1,0-0.2l-0.2,0c0.1-0.1,0.1-0.1,0.2-0.2c0.1-0.1,0.2-0.1,0.3-0.3
			c0.2,0-0.1,0.3-0.1,0.4c0.1,0,0.2-0.1,0.2-0.1c0-0.2,0.1-0.4,0.1-0.5C18.7,21.7,18.8,21.6,18.8,21.6z"/>
		<path fill="#FFFFFF" d="M18.5,22c0,0,0,0.1,0,0.1C18.5,22.1,18.5,22.1,18.5,22C18.6,22,18.6,22,18.5,22z"/>
		<path fill="#FFFFFF" d="M18.8,21.6L18.8,21.6C18.8,21.7,18.8,21.6,18.8,21.6z"/>
		<polygon fill="#FFFFFF" points="17.5,22.2 17.6,22.2 17.6,22.2 		"/>
		<path fill="#FFFFFF" d="M18.3,22.3c-0.1,0-0.1,0-0.1,0.1C18.2,22.4,18.2,22.4,18.3,22.3z"/>
		<path fill="#FFFFFF" d="M19.1,23.3c0.1,0,0.1,0,0.1,0C19.2,23.2,19.1,23.2,19.1,23.3z"/>
		<path fill="#FFFFFF" d="M18.8,21.8L18.8,21.8L18.8,21.8C18.8,21.7,18.8,21.8,18.8,21.8z"/>
		<path fill="#FFFFFF" d="M21.6,23.6c0-0.2-0.3-0.4-0.4-0.6c-0.4-0.3-0.3,0.2-0.6-0.1l0.3-0.2c-0.3-0.3-0.7-0.8-1.2-0.8
			c0-0.1,0-0.1,0.1-0.1c-0.2-0.2-0.4,0.2-0.6-0.1c0.4,0.1,0.1-0.2,0.3-0.3l0.1,0c-0.2-0.2-0.5-0.3-0.6-0.4c0,0.1,0,0.3-0.1,0.2
			c0,0.1,0,0.2,0,0.3c0.1-0.1,0.1,0,0.2,0c0,0.1,0,0-0.1,0.1c0,0,0.2,0,0.2,0c0.1,0.1-0.2,0,0,0.1c0.1,0,0.2,0,0.3,0.2l-0.1,0
			c0.1,0.1,0.2,0.2,0.3,0l0,0.2l0.1-0.1c0.2,0.3,0.1,0.6,0.5,0.8c0-0.1,0.1-0.1,0.1-0.1c-0.1-0.2-0.2-0.1-0.4-0.2
			c0.1-0.1,0.4,0,0.3-0.2c0.1,0.3,0.3,0.3,0.2,0.6c0.2,0.2,0.4,0.2,0.5,0.4l0,0c0.2-0.1,0.1,0.2,0.4,0.2l-0.1-0.1
			c0.1-0.1,0.1,0,0.2,0.1c0,0,0,0,0,0.1c0.1-0.1,0.4,0.1,0.4,0.1c-0.1-0.1-0.2-0.1-0.4-0.2C21.5,23.6,21.6,23.5,21.6,23.6z"/>
		<path fill="#FFFFFF" d="M19.3,22l0.1,0C19.3,22,19.3,22,19.3,22z"/>
		<path fill="#FFFFFF" d="M22.8,23.8c0.2,0,0,0.1,0.1,0.2c0.2-0.1-0.2-0.2-0.1-0.4c0.1,0.1,0.3-0.1,0.4-0.1c-0.1,0.1,0,0.3,0,0.3
			c0.1,0,0.2,0.1,0.3,0.1c-0.2-0.1,0.2-0.1,0-0.2c0-0.1,0.3-0.1,0.4,0c0,0.1-0.1,0-0.2,0c-0.1,0.1,0.1,0.1,0.1,0.3
			c0.1-0.1,0.4,0,0.6,0c0.2,0,0.4,0.1,0.4-0.1c0-0.1-0.2-0.1-0.3-0.1c0.2,0.2-0.1,0.2-0.1,0.2c-0.1-0.1-0.3-0.1-0.2-0.2l0.2,0
			c-0.5-0.4-1.5-0.5-2.2-0.2l0.3-0.1c0,0.1-0.2,0.1-0.3,0.2l0.2,0.2c-0.1,0-0.2,0.1-0.2,0c-0.1,0.1,0,0.2,0.1,0.2
			c-0.1,0.1-0.2,0.1-0.3,0.1c-0.1,0-0.2,0.1-0.3,0.2c0.3,0,0.4-0.1,0.5-0.2c0.1-0.1,0.1-0.1,0.3-0.1L22.8,23.8z"/>
		<polygon fill="#FFFFFF" points="21.9,24.2 22,24 21.9,24.1 		"/>
		<path fill="#FFFFFF" d="M22,23.6c0,0.1,0,0.1,0,0.1C22.2,23.7,22.1,23.6,22,23.6z"/>
		<path fill="#FFFFFF" d="M24,24.1l0.2,0L24,24.1C24.1,24.1,24.1,24.1,24,24.1z"/>
		<path fill="#FFFFFF" d="M25.6,24.5c-0.2-0.3-0.4-0.3-0.6-0.6c-0.2,0-0.1,0.3-0.2,0.3c0.1,0.1,0.3-0.1,0.4,0c0,0.1,0.2,0.2,0.3,0.3
			C25.5,24.6,25.6,24.5,25.6,24.5z"/>
		<path fill="#FFFFFF" d="M25.7,25.7c0,0.1,0.2,0.2,0.1,0.4c-0.1,0-0.1-0.1-0.1-0.2c-0.2,0.1,0.1,0.1,0,0.3c0,0,0-0.1,0.1,0
			c0,0.3,0.2,0.2,0.1,0.7c0,0.1,0,0.1,0.2,0.1c-0.2,0.2-0.2,0.1-0.4,0.4c0.1,0,0.3-0.1,0.4,0c-0.2,0.2-0.2,0.3-0.2,0.4l0,0.1
			c0,0,0,0,0.1,0.1c0,0,0.1,0.1,0.1,0.2c0,0-0.1,0-0.2-0.1c-0.2,0.1,0.3,0.2,0.3,0.3l-0.1,0.1c0.1,0.1,0.4,0.2,0.5,0.4l-0.1,0
			c0.4,0.2,0.7,0.6,1,0.8l0,0.2c0.4,0.2-0.3-0.4,0.2-0.3c-0.2,0.3,0.3,0.1,0.3,0.4c0,0.2-0.2-0.1-0.3,0.1c0.2-0.1,0.1,0.1,0.3,0.1
			c-0.1,0.1,0.2,0.2,0,0.3l0.6,0.1c0,0.1,0.1,0.2,0.2,0.3c-0.2-0.2,0.2-0.1,0.1-0.4c-0.4-0.3-0.9-0.7-1.3-1.2
			c-0.2,0.1-0.3-0.3-0.4-0.2c0-0.1,0.1-0.1,0.1-0.2c-0.3-0.2,0,0.1-0.1,0.1c-0.1-0.1-0.1-0.3-0.1-0.3c-0.2-0.2-0.1,0-0.2,0l0.1-0.3
			c-0.2-0.1-0.3-0.3-0.5-0.4l-0.2-0.2c0-0.1,0-0.2,0.1-0.3c0.1-0.4,0.2-1,0.2-1.5L26,26.2C26,26,25.9,25.8,25.7,25.7
			c0-0.2-0.1-0.3,0-0.5l-0.2,0c0.1,0,0.2-0.2,0.3-0.1c-0.1-0.1-0.1-0.2-0.2-0.3l0.1,0.2c-0.2-0.1-0.2-0.2-0.2-0.3
			c-0.3-0.1-0.1,0.3-0.2,0.4c0.5,0.2-0.1,0.5,0.2,0.7C25.6,26,25.6,25.7,25.7,25.7z"/>
		<path fill="#FFFFFF" d="M25.9,25C25.9,25,25.8,25,25.9,25C25.8,25,25.9,25,25.9,25z"/>
		<path fill="#FFFFFF" d="M28.6,30.8C28.6,30.9,28.6,30.9,28.6,30.8C28.7,30.9,28.7,30.9,28.6,30.8z"/>
		<polygon fill="#FFFFFF" points="25.5,24.6 25.5,24.6 25.5,24.6 		"/>
		<polygon fill="#FFFFFF" points="25.1,24.7 25.1,24.8 25.2,24.7 		"/>
		<path fill="#FFFFFF" d="M29.3,31.8L29.3,31.8C29.4,31.8,29.3,31.8,29.3,31.8z"/>
		<path fill="#FFFFFF" d="M31.6,34.2L31.6,34.2C31.6,34.2,31.6,34.2,31.6,34.2z"/>
		<path fill="#FFFFFF" d="M32.8,37.4c-0.2-0.1-0.4-0.3-0.6-0.3l0.1,0c-0.1-0.1-0.5-0.2-0.4,0.1l0.1,0c0.3,0.1,0,0.2,0.2,0.4
			c0.2,0.2,0.5,0,0.6,0.3c0.1,0.1,0,0.1-0.1,0.1c0.1,0.2,0.4,0.1,0.5,0.2c-0.3,0.3,0.3,0.5,0.5,0.7c0.1-0.1,0.2-0.2,0.3-0.2
			c0.1-0.1,0.2-0.3,0.3-0.4c0.1-0.1,0.2-0.2,0.2-0.4c0,0.2,0.2-0.2,0.3,0c-0.1-0.2,0.4-0.4,0.5-0.7C35.3,37.1,35.2,37,35,37
			c-0.1-0.3,0,0-0.3-0.4c0,0,0.1,0,0.1,0c-0.1-0.2-0.4-0.1-0.3-0.3c-0.2-0.3-0.1,0-0.4,0c-0.2-0.3-0.1-0.3-0.1-0.5
			c-0.2,0.1-0.3-0.1-0.5-0.1c0,0,0.2,0.2,0,0.2c-0.3-0.3-0.3-0.1-0.7-0.4c0-0.3,0.3,0.3,0.2-0.1c0.3,0.1,0.4,0.2,0.6,0.2
			c-0.2-0.2-0.5-0.5-0.9-0.7c-0.1-0.2,0.2,0,0.1-0.1c-0.2-0.3-0.6-0.2-0.7-0.5l0.1,0c-0.2,0-0.4-0.5-0.7-0.6c0,0.1,0,0.1-0.1,0.1
			c0.2-0.2-0.4-0.2-0.5-0.6c-0.1,0.2-0.4,0-0.6-0.1c0-0.1,0.1-0.1,0.1-0.2c0.1,0.3,0.4,0.1,0.6,0.2c-0.2-0.1-0.4-0.4-0.6-0.4
			l0.2-0.1c-0.2-0.2-0.4,0.1-0.6-0.3l0.1-0.1c-0.5-0.4-0.8-1.1-1.4-1.3c-0.1,0-0.1,0.4-0.1,0.4c0.3,0.2,0.5,0.2,0.7,0.3l-0.1,0.1
			c0.1,0,0.4,0.1,0.3-0.1c0.2,0.1,0,0.2,0.2,0.3c-0.1,0.1-0.2,0-0.4,0.2l0.2,0.1c-0.1,0,0,0.1-0.1,0.1c0.4,0.1,0.3,0.4,0.6,0.6
			l-0.1-0.2c0.1-0.1,0.1,0,0.2,0.1c0,0.2,0,0.2,0.1,0.4c0.2,0.1,0.4,0,0.5,0.1c-0.2,0.1,0.2,0.3,0.1,0.5c0.2-0.1,0.3,0.2,0.4,0.2
			c0.1,0.1,0.2,0.2,0.1,0.3c0,0-0.1,0-0.1,0l0.1,0.1c0,0,0,0,0,0c0.1,0.1,0.2,0,0.2,0.1c0,0-0.1,0-0.1,0c0.2,0.2,0.5,0.1,0.6,0.4
			c0.1,0,0.3,0.2,0.4,0c0,0.1-0.1,0.2,0.1,0.4c0.2,0,0.1,0.2,0.3,0.3c-0.3,0,0,0-0.3,0c0.1,0.2,0.4,0.2,0.6,0.4c0,0,0,0.1-0.1,0.1
			c0.1,0,0.3,0,0.3,0.2l0.1-0.1c0.1,0.2,0.3,0.3,0.3,0.6l0.3,0c0,0.1,0,0.2,0.1,0.2c0,0,0.1,0.1,0.1,0.1c0.1,0.1,0.3,0.1,0.5,0.2
			l0,0c-0.1,0.1-0.3,0.2-0.3,0.2c0,0,0-0.1,0-0.1c-0.1,0.1-0.3,0.1-0.2,0.3c-0.1,0.2-0.2,0-0.3,0.1c0,0.2-0.2,0.3-0.3,0.4
			c-0.1,0.1-0.2,0.1-0.3,0.3c0,0,0,0.1-0.1,0.1c0,0,0,0,0.1,0.1c0.1-0.1,0.3-0.2,0.4-0.4c0,0.1,0.1,0.1,0,0.2
			c-0.2,0.2-0.3,0.2-0.4,0.3c0-0.1-0.1-0.1-0.2-0.1l0.1-0.3c-0.1-0.3-0.2-0.2-0.4-0.4C33,37.8,32.8,37.7,32.8,37.4z"/>
		<path fill="#FFFFFF" d="M34.8,37.1L34.8,37.1l-0.2,0.1L34.8,37.1C34.8,37.2,34.8,37.2,34.8,37.1C34.8,37.2,34.8,37.1,34.8,37.1z"
			/>
		<path fill="#FFFFFF" d="M34.7,37.2C34.7,37.2,34.7,37.3,34.7,37.2C34.8,37.3,34.8,37.2,34.7,37.2L34.7,37.2z"/>
		<path fill="#FFFFFF" d="M32.2,36.9c0,0-0.1-0.1-0.2-0.2C32.1,36.8,32.1,36.9,32.2,36.9z"/>
		<polygon fill="#FFFFFF" points="32,36.8 32,36.9 32.1,36.9 		"/>
		<path fill="#FFFFFF" d="M27.7,32.9l-0.3-0.1c0-0.1-0.3-0.3-0.1-0.3c-0.3,0-0.4-0.4-0.5-0.1c0.7,0.6,1.5,1.6,2.5,2.2l-0.2,0
			c0.6,0.2,0.4,0.7,1,0.7l-0.2,0.1c0.1,0.2,0.6,0.1,0.6,0.5l0-0.1c0.1,0.1,0,0.1,0.1,0.2l0,0c0.2,0.1,0.3,0.2,0.4,0.3
			c0,0.1-0.1,0-0.1-0.1c0,0.1,0.2,0.1,0.3,0.2c0,0.1-0.1,0.1-0.1,0.1c0.4,0.2,0.3,0.5,0.8,0.5c0.1,0,0-0.2,0.1-0.1
			c-0.1-0.3-0.4-0.3-0.6-0.5l0.1,0.1c-0.4,0.1-0.1-0.2-0.4-0.3c0.2,0,0.3,0.1,0.4,0.1c-0.1-0.5-0.5-0.3-0.5-0.7l0,0
			c0-0.1-0.1-0.1-0.2-0.1c0,0,0,0.1,0.1,0.2c-0.1,0-0.2,0-0.3,0.1c0-0.2-0.1,0-0.2-0.2c0.1-0.1,0.2,0,0.3,0l-0.2-0.1
			c-0.1-0.1,0-0.2,0-0.3c-0.2,0,0,0.1-0.2,0.1c0-0.2-0.6-0.8-1-0.9c0.1,0.1,0.1-0.1,0.2,0.1c0-0.1-0.2-0.2-0.3-0.1
			c-0.2-0.1-0.4-0.4-0.5-0.6l0,0.1c-0.3,0-0.3-0.5-0.6-0.6l0,0c-0.1-0.1-0.3,0-0.5-0.1C27.6,32.9,27.6,33,27.7,32.9z"/>
		<path fill="#FFFFFF" d="M26.6,32.1l0.2,0c-0.1-0.1-0.3-0.1-0.4,0C26.5,32.1,26.6,32.3,26.6,32.1C26.7,32.2,26.7,32.2,26.6,32.1z"
			/>
		<path fill="#FFFFFF" d="M24.9,30.4c-0.1,0-0.1,0-0.1,0.1c0.4,0.3,0.9,0.8,0.9,1c0.1,0.2,0.3,0,0.5,0.1l0,0.2
			c0.1,0,0.3,0.4,0.4,0.1c0,0-0.2,0-0.2-0.1l0.1,0l-0.2-0.1l0.1,0c-0.1-0.3-0.4,0.1-0.6-0.3l0.1-0.1c-0.2-0.2-0.3-0.2-0.4-0.5
			c0,0-0.1,0.1,0,0.1c0,0,0,0.1-0.1,0.2c-0.4-0.2,0.1,0,0-0.3c-0.3-0.1-0.9-0.5-0.9-0.7c0,0.2-0.2,0.1-0.4,0c0-0.1,0.1,0,0.2-0.1
			c0-0.1-0.1-0.2-0.1-0.2c0,0.2-0.2,0.2-0.4,0.1C24.1,30.1,24.6,30.1,24.9,30.4z"/>
		<path fill="#FFFFFF" d="M24.7,30.5C24.7,30.5,24.8,30.5,24.7,30.5c0,0,0-0.1,0-0.1L24.7,30.5z"/>
	</g>
</g>
</svg>
