<?xml version="1.0" encoding="utf-8"?>
<!-- Generator: Adobe Illustrator 18.1.1, SVG Export Plug-In . SVG Version: 6.00 Build 0)  -->
<svg version="1.1" baseProfile="tiny" id="Rulers_and_Pencil"
	 xmlns="http://www.w3.org/2000/svg" xmlns:xlink="http://www.w3.org/1999/xlink" x="0px" y="0px" viewBox="0 0 13.2 11.1"
	 xml:space="preserve">
<g>
	<path fill="#1C2021" d="M0,0v11.1h13.2V0H0z M2.1,10.5H0.5V8.4h1.6V10.5z M2.1,7.9H0.5V5.8h1.6V7.9z M2.1,5.3H0.5V3.2h1.6V5.3z
		 M2.1,2.6H0.5V0.5h1.6V2.6z M10.5,3.5v1.8v0.5v2v2.8H2.6V7.8v-2V5.3V3.5v-3h7.9V3.5z M12.6,10.5h-1.6V8.4h1.6V10.5z M12.6,7.9h-1.6
		V5.8h1.6V7.9z M12.6,5.3h-1.6V3.2h1.6V5.3z M12.6,2.6h-1.6V0.5h1.6V2.6z"/>
	<path fill="#1C2021" d="M5.3,3.4v4.3l3.7-2.1L5.3,3.4z M5.8,4.3l2.1,1.2L5.8,6.7V4.3z"/>
</g>
</svg>
