<?xml version="1.0" encoding="utf-8"?>
<!-- Generator: Adobe Illustrator 18.1.1, SVG Export Plug-In . SVG Version: 6.00 Build 0)  -->
<svg version="1.1" baseProfile="tiny" id="Layer_1" xmlns="http://www.w3.org/2000/svg" xmlns:xlink="http://www.w3.org/1999/xlink"
	 x="0px" y="0px" viewBox="0 0 54 42.1" xml:space="preserve">
<path fill="#1C2021" d="M0,32.5c0,0.9,0,3.5,0,4c0,0.6,0.3,1.6,1.6,1.6c0.9,0,8.5,0,11.9,0c1,0,1.7,0,1.7,0h0.3c0,0,0.2,0,0.5,0
	c0,0.9,0,1.8,0,2.1c0,0.7,0.4,1.9,1.9,1.9c1.2,0,10.5,0,14.8,0c1.3,0,2.1,0,2.1,0h0.4c0,0,0.8,0,2.1,0c4.2,0,13.6,0,14.8,0
	c1.5,0,1.9-1.2,1.9-1.9s0-3.9,0-5s-0.4-2.3-1.9-3c-2-0.9-7.2-2.8-10.6-3.7c-0.3-0.1-0.3-0.1-0.3-1.2c0-1.2,0.1-2.1,0.4-2.7
	c0.4-0.9,0.9-2.3,1.1-3.6c0.5-0.6,1.2-1.7,1.6-3.8c0.4-1.9,0.2-2.6,0-3.2c0-0.1-0.1-0.1-0.1-0.2c-0.1-0.4,0-2.7,0.4-4.5
	c0.2-1.2-0.1-3.8-1.7-5.9c-1.1-1.3-3.1-3-6.7-3.2l-2,0c-3.7,0.2-5.7,1.9-6.8,3.2c-1.7,2.1-1.9,4.7-1.7,5.9c0.3,1.8,0.4,4,0.4,4.5
	c0,0.1,0,0.1-0.1,0.2c-0.2,0.6-0.4,1.3,0,3.2c0.4,2.1,1.1,3.2,1.6,3.8c0.2,1.3,0.7,2.8,1.1,3.6c0.4,0.8,0.8,1.7,0.8,2.7
	c0,1.1,0,1.2-0.3,1.2c-0.7,0.2-1.5,0.4-2.3,0.7c-1.9-0.7-4.3-1.5-6.1-2.1c-0.2-0.1-0.2-0.1-0.2-1c0-1,0.1-1.7,0.4-2.2
	c0.3-0.7,0.7-1.9,0.9-2.9c0.4-0.5,0.9-1.4,1.3-3.1c0.3-1.5,0.2-2.1,0-2.6c0-0.1,0-0.1-0.1-0.2c-0.1-0.3,0-2.2,0.3-3.6
	c0.2-1,0-3.1-1.4-4.8c-0.9-1.1-2.5-2.4-5.4-2.6h-1.6c-3,0.2-4.6,1.5-5.5,2.6c-1.3,1.7-1.6,3.8-1.4,4.8C8,12.9,8.1,14.7,8,15.1
	c0,0.1,0,0.1-0.1,0.2c-0.2,0.5-0.3,1.1,0,2.6c0.3,1.7,0.9,2.6,1.3,3.1c0.1,1.1,0.5,2.2,0.9,2.9c0.3,0.6,0.6,1.4,0.6,2.2
	c0,0.9,0,0.9-0.3,1c-2.6,0.8-6.8,2.2-8.5,3C0.6,30.5,0,31.6,0,32.5z M18,35.1c0-0.3,0.3-0.9,1.1-1.2c2.1-0.9,7.3-2.7,10.4-3.6
	c1.8-0.5,1.8-2.1,1.8-3.2c0-1.3-0.5-2.5-1-3.5c-0.3-0.7-0.7-2-0.9-3.1L29.3,20l-0.4-0.5c-0.2-0.2-0.8-1-1.1-2.9
	c-0.3-1.5-0.2-1.8,0-2.1l0,0l0,0c0-0.1,0.1-0.2,0.1-0.3l0-0.1l0-0.1c0.2-1-0.1-3.7-0.3-5.3c-0.1-0.7,0-2.7,1.3-4.3
	C30.1,3,31.8,2.2,34.1,2L36,2c2.8,0.2,4.4,1.4,5.2,2.5c1.3,1.7,1.5,3.6,1.3,4.3c-0.3,1.5-0.5,4.3-0.3,5.3l0,0l0,0
	c0,0.2,0.1,0.3,0.2,0.5c0.1,0.3,0.2,0.6-0.1,2.1c-0.4,1.9-0.9,2.6-1.1,2.9L40.8,20l-0.1,0.6c-0.1,1.1-0.6,2.4-0.9,3.1
	c-0.4,0.9-0.6,2.1-0.6,3.6c0,1.1,0,2.6,1.7,3.1c3.2,1,8.5,2.8,10.4,3.7c0.6,0.2,0.7,0.5,0.7,1.1v4.9H37.3h-2.1h-0.4h-2.1H18L18,35.1
	z M2,32.5c0-0.1,0.1-0.4,0.7-0.6c1.7-0.7,5.8-2.1,8.3-2.9c1.7-0.5,1.7-2,1.7-2.9c0-1.2-0.4-2.2-0.8-3c-0.3-0.6-0.6-1.5-0.7-2.4
	L11.1,20l-0.4-0.5c-0.1-0.1-0.5-0.7-0.8-2.2c-0.2-1.1-0.1-1.3-0.1-1.5l0,0l0,0c0-0.1,0.1-0.2,0.1-0.3l0-0.1l0-0.1
	c0.2-0.9-0.1-3.4-0.3-4.4c-0.1-0.5,0-2,1-3.2c0.9-1.1,2.2-1.7,3.9-1.8h1.5c2.1,0.2,3.3,1.1,3.9,1.8c1,1.2,1.1,2.7,1,3.2
	c-0.2,1.1-0.5,3.5-0.3,4.4l0,0l0,0c0,0.1,0.1,0.3,0.1,0.4c0.1,0.2,0.2,0.4-0.1,1.5c-0.3,1.5-0.7,2-0.8,2.2L19.7,20l-0.1,0.6
	c-0.1,0.8-0.4,1.8-0.7,2.4c-0.4,0.8-0.5,1.8-0.5,3.1c0,0.9,0,2.4,1.6,2.9c1,0.3,2.3,0.7,3.6,1.2c-2.1,0.7-4.1,1.5-5.3,1.9
	c-1.6,0.7-2.3,2-2.3,3.1c0,0.2,0,0.5,0,0.9h-0.5h-0.3h-1.7H2V32.5z"/>
</svg>
