<?xml version="1.0" standalone="no"?>
<!DOCTYPE svg PUBLIC "-//W3C//DTD SVG 20010904//EN"
 "http://www.w3.org/TR/2001/REC-SVG-20010904/DTD/svg10.dtd">
<svg version="1.0" xmlns="http://www.w3.org/2000/svg"
 width="700.000000pt" height="700.000000pt" viewBox="0 0 700.000000 700.000000"
 preserveAspectRatio="xMidYMid meet">
<metadata>
Created by potrace 1.11, written by Peter Selinger 2001-2013
</metadata>
<g transform="translate(0.000000,700.000000) scale(0.100000,-0.100000)"
fill="#000000" stroke="none">
<path d="M3668 6702 c-14 -26 -283 -487 -597 -1025 -314 -538 -573 -984 -574
-990 -1 -7 -6 -15 -12 -19 -5 -4 100 -7 235 -7 135 0 268 0 296 0 l51 -1 227
-227 227 -228 -6 -90 c-4 -49 -8 -117 -10 -150 -2 -33 -7 -89 -10 -125 -3 -36
-7 -101 -10 -144 -3 -44 -7 -82 -10 -84 -2 -2 -28 9 -57 26 -29 16 -89 49
-133 72 -44 24 -102 55 -130 70 -27 15 -77 42 -110 60 -33 18 -62 34 -64 36
-2 2 80 3 182 1 103 -1 193 0 201 3 10 3 -162 138 -453 355 l-468 350 -104
-175 c-57 -96 -150 -253 -207 -349 -57 -95 -101 -176 -98 -178 3 -3 164 -6
358 -5 l353 0 50 -39 c28 -21 64 -51 81 -66 17 -16 49 -41 70 -58 66 -53 319
-259 324 -265 3 -3 46 -39 97 -79 l92 -74 -4 -61 c-3 -34 -7 -94 -10 -133 -3
-40 -7 -108 -10 -150 -3 -43 -8 -103 -10 -133 -2 -30 -7 -104 -11 -165 -6 -96
-9 -136 -13 -168 -1 -5 -47 16 -103 46 -57 30 -166 87 -243 128 -260 135 -340
179 -330 180 6 0 131 0 278 1 l268 0 -38 29 c-21 16 -180 128 -353 249 -173
122 -340 238 -370 260 -30 21 -68 49 -85 60 -53 38 -389 273 -424 297 -19 13
-37 23 -40 23 -3 0 -21 -26 -38 -58 -60 -104 -85 -147 -114 -193 -16 -25 -29
-51 -29 -57 0 -5 -4 -12 -8 -14 -5 -1 -22 -28 -38 -58 -41 -74 -273 -470 -290
-495 -8 -11 -14 -25 -14 -31 0 -9 119 -12 485 -12 l484 0 103 -81 c57 -45 110
-87 118 -94 8 -7 92 -73 185 -146 94 -74 175 -139 180 -145 11 -12 214 -177
322 -261 l64 -50 -6 -120 c-6 -124 -11 -199 -19 -320 -3 -38 -8 -124 -12 -190
-3 -66 -8 -122 -11 -125 -4 -5 -63 15 -193 65 -47 18 -203 77 -347 132 l-263
98 307 3 306 2 -194 123 c-107 68 -275 174 -374 236 -362 226 -1161 728 -1185
744 -25 16 -26 15 -47 -16 -20 -31 -346 -589 -404 -692 -15 -28 -72 -127 -127
-220 l-100 -170 639 -3 638 -2 328 -198 c345 -209 549 -333 673 -412 41 -26
125 -78 185 -116 110 -67 128 -82 119 -95 -2 -4 -6 -45 -9 -91 -3 -45 -7 -101
-10 -123 -5 -51 -18 -238 -19 -290 l-1 -40 455 0 455 0 -1 45 c-2 57 -14 224
-19 270 -2 19 -7 82 -10 140 -4 58 -8 121 -10 140 -2 19 -6 73 -10 120 -3 47
-8 110 -10 140 -3 30 -7 97 -10 148 -4 50 -8 101 -10 112 -4 23 -1 27 99 115
38 33 74 65 80 70 6 6 49 44 96 85 47 41 87 77 90 80 3 3 61 55 130 115 146
129 189 166 204 180 6 6 52 46 101 90 50 43 97 86 106 94 8 9 42 39 73 66 l58
50 593 5 592 5 -230 390 c-126 215 -238 405 -249 424 -33 58 -149 253 -189
319 -22 35 -39 67 -39 73 0 22 -24 4 -200 -151 -36 -31 -101 -88 -145 -125
-44 -38 -82 -72 -85 -75 -3 -3 -70 -61 -150 -130 -80 -68 -147 -127 -150 -130
-3 -3 -57 -50 -120 -105 -63 -54 -122 -106 -131 -115 -9 -8 -25 -22 -35 -30
-22 -18 -174 -150 -190 -165 -6 -5 -42 -37 -79 -70 -38 -33 -80 -70 -93 -83
-14 -12 -30 -23 -36 -24 -6 -2 121 -5 282 -8 l292 -5 -341 -205 c-188 -113
-347 -206 -353 -208 -7 -1 -12 8 -13 20 -1 48 -15 264 -18 288 -2 14 -7 79
-11 145 -4 66 -8 136 -9 155 -2 19 -6 87 -9 150 -4 63 -9 125 -12 138 -4 18 9
38 58 89 35 36 74 78 88 93 14 15 84 89 156 166 72 76 148 157 169 179 20 22
95 101 165 175 l128 135 373 0 c206 0 380 1 387 3 10 4 10 9 -1 26 -8 11 -29
48 -47 81 -18 33 -44 77 -57 97 -12 21 -23 40 -23 44 0 3 -8 18 -19 32 -10 15
-29 47 -43 72 -35 63 -340 594 -345 600 -2 2 -77 -70 -166 -162 -89 -91 -297
-303 -462 -472 -165 -169 -301 -310 -303 -314 -1 -4 115 -7 257 -7 143 1 257
-3 255 -7 -3 -4 -109 -87 -237 -185 -128 -97 -262 -201 -299 -230 -53 -42 -68
-50 -69 -36 0 10 -2 25 -3 33 -2 8 -7 76 -11 150 -4 74 -8 160 -10 190 -2 30
-7 96 -10 145 -3 50 -8 127 -11 173 l-6 82 227 355 c125 196 232 358 237 361
4 3 132 6 283 6 l275 0 -21 34 c-11 19 -31 52 -42 73 -25 44 -36 63 -337 576
-120 204 -227 386 -238 405 -33 59 -142 244 -153 260 -5 8 -12 23 -15 33 -4 9
-10 17 -14 17 -4 0 -10 8 -14 18 -3 9 -14 31 -23 48 -10 17 -54 91 -98 165
-43 74 -96 163 -117 199 -20 36 -41 70 -46 75 -5 6 -22 35 -39 65 -16 30 -39
69 -49 87 l-20 32 -26 -47z m-130 -2041 c10 -1 11 -25 6 -113 -3 -62 -8 -115
-10 -117 -1 -2 -77 48 -168 110 -126 87 -160 115 -145 119 16 4 225 4 317 1z
m638 -4 c2 -2 -28 -34 -68 -72 -40 -37 -108 -102 -151 -143 -42 -41 -79 -73
-81 -71 -4 4 -12 81 -21 206 l-6 82 53 3 c69 4 269 0 274 -5z"/>
</g>
</svg>
