<?xml version="1.0" encoding="utf-8"?>
<!-- Generated by IcoMoon.io -->
<!DOCTYPE svg PUBLIC "-//W3C//DTD SVG 1.1//EN" "http://www.w3.org/Graphics/SVG/1.1/DTD/svg11.dtd">
<svg version="1.1" xmlns="http://www.w3.org/2000/svg" xmlns:xlink="http://www.w3.org/1999/xlink" width="29" height="32" viewBox="0 0 29 32">
<path fill="#000" d="M28.8 7.307s-0.053 0 0 0c0-0.053-0.053-0.107-0.053-0.107s0-0.053-0.053-0.053l-0.053-0.053s-0.053 0-0.053-0.053l-0.053-0.053h-0.053l-13.867-6.933c-0.053-0.053-0.107-0.053-0.213-0.053s-0.16 0-0.213 0.053l-13.867 6.933h-0.053s-0.053 0-0.053 0.053c0 0-0.053 0-0.053 0.053l-0.053 0.053s0 0.053-0.053 0.053c0 0.053-0.053 0.053-0.053 0.107v17.333c0 0.053 0 0.107 0.053 0.16l0.213 0.213 13.867 6.933c0.107 0.053 0.213 0.053 0.267 0.053s0.16 0 0.213-0.053l13.867-6.933c0.16-0.107 0.32-0.267 0.32-0.48v-17.227zM1.973 23.84c-0.107-0.267-0.427-0.373-0.693-0.267l-0.213 0.107v-15.36l12.8 5.92v16.373l-12.107-6.080c0.213-0.107 0.32-0.427 0.213-0.693zM14.4 1.6c0.213 0 0.32-0.107 0.427-0.267l12.213 6.133-12.107 5.547v-0.213c0-0.32-0.213-0.533-0.533-0.533s-0.533 0.213-0.533 0.533v0.213l-12.107-5.547 12.213-6.133c0.107 0.16 0.213 0.267 0.427 0.267zM14.933 18.987l0.853 0.427c0.053 0.053 0.16 0.053 0.213 0.053 0.213 0 0.373-0.107 0.48-0.32 0.107-0.267 0-0.587-0.267-0.693l-0.96-0.427c-0.107-0.053-0.213-0.053-0.373 0v-3.733l12.8-5.92v15.413l-0.853-0.373c-0.267-0.107-0.587 0-0.693 0.267s0 0.587 0.267 0.693l0.587 0.267-12.053 5.973v-11.627z"></path>
<path fill="#000" d="M9.227 21.067c0.053 0 0.16 0 0.213-0.053l0.96-0.427c0.267-0.107 0.373-0.427 0.267-0.693s-0.427-0.373-0.693-0.267l-0.96 0.427c-0.267 0.107-0.373 0.427-0.267 0.693 0.107 0.16 0.32 0.32 0.48 0.32zM6.347 22.4c0.053 0 0.16 0 0.213-0.053l0.96-0.427c0.267-0.107 0.373-0.427 0.267-0.693s-0.427-0.373-0.693-0.267l-0.96 0.427c-0.267 0.107-0.373 0.427-0.267 0.693 0.107 0.213 0.267 0.32 0.48 0.32zM3.413 23.733c0.053 0 0.16 0 0.213-0.053l0.96-0.427c0.267-0.107 0.373-0.427 0.267-0.693s-0.427-0.373-0.693-0.267l-0.96 0.427c-0.267 0.107-0.373 0.427-0.267 0.693 0.107 0.213 0.32 0.32 0.48 0.32zM22.080 21.067l-0.96-0.427c-0.267-0.107-0.587 0-0.693 0.267s0 0.587 0.267 0.693l0.96 0.427c0.053 0.053 0.16 0.053 0.213 0.053 0.213 0 0.373-0.107 0.48-0.32s0-0.533-0.267-0.693zM24.96 22.4l-0.96-0.427c-0.267-0.107-0.587 0-0.693 0.267s0 0.587 0.267 0.693l0.96 0.427c0.053 0.053 0.16 0.053 0.213 0.053 0.213 0 0.373-0.107 0.48-0.32s0-0.533-0.267-0.693zM19.147 19.733l-0.96-0.427c-0.267-0.107-0.587 0-0.693 0.267s0 0.587 0.267 0.693l0.96 0.427c0.053 0.053 0.16 0.053 0.213 0.053 0.213 0 0.373-0.107 0.48-0.32 0.107-0.267 0-0.587-0.267-0.693zM12.16 19.68c0.053 0 0.16 0 0.213-0.053l0.96-0.427c0.267-0.107 0.373-0.427 0.267-0.693s-0.427-0.373-0.693-0.267l-0.96 0.427c-0.267 0.107-0.373 0.427-0.267 0.693 0.107 0.213 0.267 0.32 0.48 0.32zM14.4 4.8c0.32 0 0.533-0.213 0.533-0.533v-1.067c0-0.32-0.213-0.533-0.533-0.533s-0.533 0.213-0.533 0.533v1.067c0 0.32 0.213 0.533 0.533 0.533zM14.4 8c0.32 0 0.533-0.213 0.533-0.533v-1.067c0-0.32-0.213-0.533-0.533-0.533s-0.533 0.213-0.533 0.533v1.067c0 0.32 0.213 0.533 0.533 0.533zM14.4 11.2c0.32 0 0.533-0.213 0.533-0.533v-1.067c0-0.32-0.213-0.533-0.533-0.533s-0.533 0.213-0.533 0.533v1.067c0 0.32 0.213 0.533 0.533 0.533z"></path>
</svg>
