<svg xmlns="http://www.w3.org/2000/svg" width="32" height="32" viewBox="0 0 32 32"><path d="M16 7a.5.5 0 0 1 0 1c-5.327 0-10 2.804-10 6a.5.5 0 0 1-1 0c0-3.794 5.037-7 11-7zm0-5C7.163 2 0 7.373 0 14c0 4.127 2.779 7.766 7.008 9.926 0 .027-.008.045-.008.074 0 1.793-1.339 3.723-1.928 4.736h.002A.906.906 0 0 0 5.906 30c.094 0 .259-.025.255-.014 3.125-.512 6.069-3.383 6.753-4.215.927.145 1.996.228 3.085.229C24.835 26 32 20.627 32 14S24.836 2 16 2zm0 22c-.917 0-1.858-.07-2.796-.207a1.997 1.997 0 0 0-1.834.706c-.431.524-1.649 1.687-3.088 2.542.39-.895.695-1.898.716-2.932a2 2 0 0 0-1.07-1.959c-3.717-1.897-5.929-4.942-5.929-8.149 0-5.514 6.28-10 14-10 7.718 0 14 4.486 14 10s-6.281 10-14 10z"/></svg>