<?xml version="1.0" encoding="utf-8"?>
<!-- Generated by IcoMoon.io -->
<!DOCTYPE svg PUBLIC "-//W3C//DTD SVG 1.1//EN" "http://www.w3.org/Graphics/SVG/1.1/DTD/svg11.dtd">
<svg version="1.1" xmlns="http://www.w3.org/2000/svg" xmlns:xlink="http://www.w3.org/1999/xlink" width="32" height="32" viewBox="0 0 32 32">
<path fill="#000" d="M23.9 12.1l-9.6 9.6c-0.1 0.1-0.3 0.2-0.4 0.2-0.2 0-0.3-0.1-0.4-0.2l-5.4-5.4c-0.1-0.1-0.2-0.3-0.2-0.4s0.1-0.3 0.2-0.4l0.9-0.9c0.1-0.1 0.2-0.2 0.4-0.2s0.3 0.1 0.4 0.2l4.1 4.1 8.3-8.3c0.1-0.1 0.3-0.2 0.4-0.2s0.3 0.1 0.4 0.2l0.9 0.9c0.1 0.1 0.2 0.2 0.2 0.4-0.1 0.1-0.1 0.3-0.2 0.4z"></path>
<path fill="#000" d="M16 32c-8.8 0-16-7.2-16-16s7.2-16 16-16c8.8 0 16 7.2 16 16s-7.2 16-16 16zM16 1.9c-7.8 0-14.1 6.3-14.1 14.1s6.3 14.1 14.1 14.1 14.1-6.3 14.1-14.1-6.3-14.1-14.1-14.1z"></path>
</svg>
