<?xml version="1.0" encoding="utf-8"?>
<!-- Generated by IcoMoon.io -->
<!DOCTYPE svg PUBLIC "-//W3C//DTD SVG 1.1//EN" "http://www.w3.org/Graphics/SVG/1.1/DTD/svg11.dtd">
<svg version="1.1" xmlns="http://www.w3.org/2000/svg" xmlns:xlink="http://www.w3.org/1999/xlink" width="30" height="32" viewBox="0 0 30 32">
<path fill="#000" d="M15.933 20.267c0.533-0.067 1.067-0.333 1.4-0.8l5-6.933c0.133-0.2 0.133-0.533-0.067-0.667-0.2-0.2-0.467-0.2-0.667-0.067l-6.933 5c-0.467 0.333-0.733 0.867-0.8 1.4s0.133 1.067 0.533 1.467c0.333 0.333 0.867 0.533 1.333 0.533 0.067 0.067 0.133 0.067 0.2 0.067zM14.933 18.333c0-0.267 0.133-0.467 0.333-0.6l4.2-3.067-3.067 4.2c-0.133 0.2-0.4 0.333-0.6 0.333-0.267 0-0.467-0.067-0.667-0.267-0.133-0.133-0.2-0.4-0.2-0.6z"></path>
<path fill="#000" d="M27.867 10.467c0-0.067 0-0.067 0 0 0-0.067 0-0.067 0 0-0.6-1-1.2-1.867-1.933-2.6l1.133-1.133 0.733 0.733 2.267-2.267-2.267-2.267-2.267 2.267 0.733 0.733-1.133 1.133c-0.8-0.733-1.667-1.333-2.533-1.933h-0.067c-1.667-0.933-3.533-1.6-5.467-1.8v-0.667h0.8c0.733 0 1.333-0.6 1.333-1.333s-0.6-1.333-1.333-1.333h-4.8c-0.733 0-1.333 0.6-1.333 1.333s0.6 1.333 1.333 1.333h0.8v0.6c-0.6 0.067-1.133 0.133-1.733 0.267-0.267 0.067-0.467 0.333-0.4 0.667 0.067 0.267 0.333 0.467 0.667 0.4 0.467-0.133 1-0.2 1.467-0.267l0.6-0.067h0.467v1.067c0 0.267 0.267 0.533 0.533 0.533s0.533-0.267 0.533-0.533v-1.067c2 0.067 3.867 0.6 5.6 1.533l-0.533 0.933c-0.133 0.267-0.067 0.6 0.2 0.733 0.067 0.067 0.2 0.067 0.267 0.067 0.2 0 0.333-0.067 0.467-0.267l0.533-0.933c1.667 1.067 3.067 2.467 4.133 4.133l-0.933 0.533c-0.267 0.133-0.333 0.467-0.2 0.733 0.067 0.2 0.267 0.267 0.467 0.267 0.067 0 0.2 0 0.267-0.067l0.933-0.533c0.867 1.733 1.467 3.6 1.533 5.667h-1.067c-0.267 0-0.533 0.267-0.533 0.533s0.267 0.533 0.533 0.533h1.067c-0.067 2.067-0.6 3.933-1.533 5.667l-0.933-0.533c-0.267-0.133-0.6-0.067-0.733 0.2s-0.067 0.6 0.2 0.733l0.933 0.533c-1.067 1.667-2.467 3.067-4.133 4.133l-0.533-0.933c-0.133-0.267-0.467-0.333-0.733-0.2s-0.333 0.467-0.2 0.733l0.533 0.933c-1.667 0.867-3.6 1.4-5.6 1.533v-1.067c0-0.267-0.267-0.533-0.533-0.533s-0.533 0.267-0.533 0.533v1.067c-0.867 0-1.733-0.133-2.533-0.333-0.267-0.067-0.6 0.133-0.667 0.4s0.133 0.6 0.4 0.667c1.067 0.267 2.133 0.4 3.2 0.4h0.067c2.533 0 5-0.733 7.067-1.933h0.067c2.133-1.267 3.933-3.067 5.2-5.2v-0.133c1.2-2.133 1.933-4.533 1.933-7.2 0.133-2.6-0.6-5.067-1.8-7.133zM27.8 4.4l0.733 0.733-0.733 0.733-0.733-0.733 0.733-0.733zM14.933 3.2v-1.6h-1.867c-0.133 0-0.267-0.133-0.267-0.267s0.133-0.267 0.267-0.267h4.8c0.133 0 0.267 0.133 0.267 0.267s-0.133 0.267-0.267 0.267h-1.867v1.6h-1.067zM10.667 7.467h-2.667c-0.267 0-0.533 0.267-0.533 0.533s0.267 0.533 0.533 0.533h2.667c0.267 0 0.533-0.267 0.533-0.533s-0.267-0.533-0.533-0.533zM10.667 11.2h-5.333c-0.267 0-0.533 0.267-0.533 0.533s0.267 0.533 0.533 0.533h5.333c0.267 0 0.533-0.267 0.533-0.533s-0.267-0.533-0.533-0.533zM10.667 14.933h-8c-0.267 0-0.533 0.267-0.533 0.533s0.267 0.533 0.533 0.533h8c0.267 0 0.533-0.267 0.533-0.533s-0.267-0.533-0.533-0.533zM10.667 18.667h-10.133c-0.267 0-0.533 0.267-0.533 0.533s0.267 0.533 0.533 0.533h10.133c0.267 0 0.533-0.267 0.533-0.533s-0.267-0.533-0.533-0.533zM10.667 22.4h-6.933c-0.267 0-0.533 0.267-0.533 0.533s0.267 0.533 0.533 0.533h6.933c0.267 0 0.533-0.267 0.533-0.533s-0.267-0.533-0.533-0.533zM10.667 26.133h-3.733c-0.267 0-0.533 0.267-0.533 0.533s0.267 0.533 0.533 0.533h3.733c0.267 0 0.533-0.267 0.533-0.533s-0.267-0.533-0.533-0.533z"></path>
</svg>
