<?xml version="1.0" encoding="utf-8"?>
<!-- Generated by IcoMoon.io -->
<!DOCTYPE svg PUBLIC "-//W3C//DTD SVG 1.1//EN" "http://www.w3.org/Graphics/SVG/1.1/DTD/svg11.dtd">
<svg version="1.1" xmlns="http://www.w3.org/2000/svg" xmlns:xlink="http://www.w3.org/1999/xlink" width="38" height="32" viewBox="0 0 38 32">
<path fill="#000" d="M32 10.196c-0.314-5.647-5.020-10.196-10.588-10.196-3.373 0-6.667 1.647-8.784 4.392-0.078 0-0.078 0-0.157-0.078-0.157-0.078-0.235-0.078-0.392-0.157-0.078 0-0.157-0.078-0.235-0.078-0.157-0.078-0.235-0.078-0.392-0.157h-0.157c-0.157 0-0.314-0.078-0.471-0.078h-0.784c-3.137 0-5.647 2.51-5.647 5.647v0.235c-2.588 1.333-4.392 4.314-4.392 7.294 0 4.471 3.608 8.078 8.078 8.078h3.216c0.314 0 0.627-0.314 0.627-0.627s-0.314-0.627-0.627-0.627h-3.216c-3.765 0-6.824-3.059-6.824-6.824 0-2.588 1.726-5.333 4-6.431l0.392-0.157v-1.020c0-2.431 1.961-4.392 4.392-4.392 0.157 0 0.392 0 0.549 0.078h0.157c0.157 0 0.314 0.078 0.471 0.078h0.078c0.157 0.078 0.314 0.157 0.549 0.235 0.078 0 0.078 0.078 0.157 0.078l0.471 0.235c1.176 0.784 2.039 2.118 2.039 3.686 0 0.314 0.314 0.627 0.627 0.627s0.627-0.314 0.627-0.627c0-1.726-0.784-3.294-2.039-4.314 1.804-2.353 4.784-3.843 7.686-3.843 4.863 0 8.863 3.843 9.333 8.706-0.627-0.078-1.569-0.078-2.588 0.078-0.314 0.078-0.549 0.392-0.549 0.706 0.078 0.314 0.314 0.549 0.627 0.549h0.078c1.412-0.235 2.824 0 2.902 0 2.902 0.549 5.098 3.216 5.098 6.274 0 3.451-2.824 6.274-6.274 6.274h-2.51c-0.314 0-0.627 0.314-0.627 0.627s0.314 0.627 0.627 0.627h2.51c4.157 0 7.529-3.373 7.529-7.529 0.078-3.451-2.353-6.588-5.569-7.373z"></path>
<path fill="#000" d="M24 25.882l-3.922 3.922v-12.863c0-0.314-0.314-0.627-0.627-0.627s-0.627 0.314-0.627 0.627v12.941l-3.922-3.922c-0.235-0.235-0.627-0.235-0.863 0s-0.235 0.627 0 0.863l5.020 5.020c0.078 0.078 0.157 0.078 0.235 0.157 0.078 0 0.157 0.078 0.235 0.078s0.157 0 0.235-0.078c0.078 0 0.157-0.078 0.235-0.157l5.020-5.020c0.235-0.235 0.235-0.627 0-0.863-0.314-0.314-0.784-0.314-1.020-0.078z"></path>
</svg>
