<svg xmlns="http://www.w3.org/2000/svg" width="32" height="32" viewBox="0 0 32 32"><path d="M17.9 1.3v3.1l1 .2c1.1.3 2.1.8 3.1 1.3l.9.5 2.2-2.2 2.7 2.7-2.3 2.3.5.8c.5.9.9 2 1.2 3l.2 1h3.3v3.8h-3.4l-.3.9c-.3 1-.7 2-1.2 2.9l-.5.9 2.4 2.4-2.7 2.7-1.7-1.6-.7-.7-.8.5c-.9.5-1.8.9-2.8 1.2l-1 .2v3.6h-3.8v-3.6l-1-.2c-1-.3-2-.6-2.8-1.2l-.8-.5-.9.7-1.8 1.8-2.7-2.7 2.5-2.5-.5-.9c-.5-.9-1-1.9-1.2-2.9l-.3-.9H1.3v-3.8h3.3l.2-1c.3-1.1.7-2.1 1.2-3l.5-.8-.7-.8-1.6-1.6 2.7-2.7 2.2 2.2.9-.5c1-.6 2-1 3.1-1.3l1-.2V1.3h3.8zM16 21.8c3.2 0 5.8-2.6 5.8-5.8s-2.6-5.8-5.8-5.8-5.8 2.6-5.8 5.8c0 3.2 2.6 5.8 5.8 5.8zM19.2 0h-6.4v3.4c-1.2.3-2.4.8-3.4 1.4L6.9 2.4 2.4 6.9l2.5 2.5c-.6 1-1.1 2.2-1.3 3.4H0v6.4h3.7c.3 1.1.8 2.2 1.4 3.2L2.5 25 7 29.5l2.7-2.7c1 .6 2 1 3.2 1.3V32h6.4v-3.8c1.1-.3 2.2-.7 3.2-1.3l2.7 2.7 4.5-4.5-2.6-2.6c.6-1 1.1-2.1 1.4-3.2H32v-6.4h-3.6c-.3-1.2-.7-2.3-1.3-3.4L29.6 7l-4.5-4.5-2.4 2.4c-1.1-.6-2.2-1.1-3.4-1.4V0h-.1zM16 20.5c-2.5 0-4.5-2-4.5-4.5s2-4.5 4.5-4.5 4.5 2 4.5 4.5-2 4.5-4.5 4.5z"/></svg>