<?xml version="1.0" encoding="utf-8"?>
<!-- Generated by IcoMoon.io -->
<!DOCTYPE svg PUBLIC "-//W3C//DTD SVG 1.1//EN" "http://www.w3.org/Graphics/SVG/1.1/DTD/svg11.dtd">
<svg version="1.1" xmlns="http://www.w3.org/2000/svg" xmlns:xlink="http://www.w3.org/1999/xlink" width="32" height="32" viewBox="0 0 32 32">
<path fill="#000" d="M17.9 1.3v3.1l1 0.2c1.1 0.3 2.1 0.8 3.1 1.3l0.9 0.5 2.2-2.2 2.7 2.7-2.3 2.3 0.5 0.8c0.5 0.9 0.9 2 1.2 3l0.2 1h3.3v3.8h-3.4l-0.3 0.9c-0.3 1-0.7 2-1.2 2.9l-0.5 0.9 2.4 2.4-2.7 2.7-1.7-1.6-0.7-0.7-0.8 0.5c-0.9 0.5-1.8 0.9-2.8 1.2l-1 0.2v3.6h-3.8v-3.6l-1-0.2c-1-0.3-2-0.6-2.8-1.2l-0.8-0.5-0.9 0.7-1.8 1.8-2.7-2.7 2.5-2.5-0.5-0.9c-0.5-0.9-1-1.9-1.2-2.9l-0.3-0.9h-3.4v-3.8h3.3l0.2-1c0.3-1.1 0.7-2.1 1.2-3l0.5-0.8-0.7-0.8-1.6-1.6 2.7-2.7 2.2 2.2 0.9-0.5c1-0.6 2-1 3.1-1.3l1-0.2v-3.1h3.8zM16 21.8c3.2 0 5.8-2.6 5.8-5.8s-2.6-5.8-5.8-5.8-5.8 2.6-5.8 5.8c0 3.2 2.6 5.8 5.8 5.8zM19.2 0h-6.4v3.4c-1.2 0.3-2.4 0.8-3.4 1.4l-2.5-2.4-4.5 4.5 2.5 2.5c-0.6 1-1.1 2.2-1.3 3.4h-3.6v6.4h3.7c0.3 1.1 0.8 2.2 1.4 3.2l-2.6 2.6 4.5 4.5 2.7-2.7c1 0.6 2 1 3.2 1.3v3.9h6.4v-3.8c1.1-0.3 2.2-0.7 3.2-1.3l2.7 2.7 4.5-4.5-2.6-2.6c0.6-1 1.1-2.1 1.4-3.2h3.5v-6.4h-3.6c-0.3-1.2-0.7-2.3-1.3-3.4l2.5-2.5-4.5-4.5-2.4 2.4c-1.1-0.6-2.2-1.1-3.4-1.4v-3.5h-0.1zM16 20.5c-2.5 0-4.5-2-4.5-4.5s2-4.5 4.5-4.5 4.5 2 4.5 4.5c0 2.5-2 4.5-4.5 4.5v0z"></path>
</svg>
