<?xml version="1.0" encoding="utf-8"?>
<!-- Generated by IcoMoon.io -->
<!DOCTYPE svg PUBLIC "-//W3C//DTD SVG 1.1//EN" "http://www.w3.org/Graphics/SVG/1.1/DTD/svg11.dtd">
<svg version="1.1" xmlns="http://www.w3.org/2000/svg" xmlns:xlink="http://www.w3.org/1999/xlink" width="32" height="32" viewBox="0 0 32 32">
<path fill="#000" d="M31.7 17.9l-14-15.5c-0.4-0.5-1-0.7-1.7-0.7-0.6 0-1.2 0.3-1.7 0.7l-14 15.5c-0.3 0.3-0.3 0.8 0.1 1.1 0.2 0.1 0.3 0.2 0.5 0.2s0.4-0.1 0.6-0.3l3.4-3.7v12.7c0 1.3 1.1 2.4 2.4 2.4h17.5c1.3 0 2.4-1.1 2.4-2.4v-12.7l3.4 3.7c0.3 0.3 0.8 0.4 1.1 0.1 0.2-0.3 0.3-0.8 0-1.1zM19.2 28.7h-6.3v-7.1c0-0.4 0.4-0.8 0.8-0.8h4.8c0.4 0 0.8 0.4 0.8 0.8v7.1zM25.5 27.9c0 0.4-0.4 0.8-0.8 0.8h-4v-7.1c0-1.3-1.1-2.4-2.4-2.4h-4.8c-1.3 0-2.4 1.1-2.4 2.4v7.1h-4c-0.4 0-0.8-0.4-0.8-0.8v-14.4l9-10c0.1-0.1 0.3-0.2 0.5-0.2s0.3 0.1 0.5 0.2l9 10v14.4z"></path>
</svg>
