<svg xmlns="http://www.w3.org/2000/svg" width="32" height="32" viewBox="0 0 32 32"><path d="M31.7 17.9l-14-15.5c-.4-.5-1-.7-1.7-.7-.6 0-1.2.3-1.7.7L.3 17.9c-.3.3-.3.8.1 1.1.2.1.3.2.5.2s.4-.1.6-.3l3.4-3.7v12.7c0 1.3 1.1 2.4 2.4 2.4h17.5c1.3 0 2.4-1.1 2.4-2.4V15.2l3.4 3.7c.3.3.8.4 1.1.1.2-.3.3-.8 0-1.1zM19.2 28.7h-6.3v-7.1c0-.4.4-.8.8-.8h4.8c.4 0 .8.4.8.8v7.1zm6.3-.8c0 .4-.4.8-.8.8h-4v-7.1c0-1.3-1.1-2.4-2.4-2.4h-4.8c-1.3 0-2.4 1.1-2.4 2.4v7.1h-4c-.4 0-.8-.4-.8-.8V13.5l9-10c.1-.1.3-.2.5-.2s.3.1.5.2l9 10v14.4z"/></svg>