<?xml version="1.0" encoding="utf-8"?>
<!-- Generated by IcoMoon.io -->
<!DOCTYPE svg PUBLIC "-//W3C//DTD SVG 1.1//EN" "http://www.w3.org/Graphics/SVG/1.1/DTD/svg11.dtd">
<svg version="1.1" xmlns="http://www.w3.org/2000/svg" xmlns:xlink="http://www.w3.org/1999/xlink" width="32" height="32" viewBox="0 0 32 32">
<path fill="#000" d="M4.7 15.4h4.7v1.2h-4.7v-1.2z"></path>
<path fill="#000" d="M8.3 7.7c-4.6 0-8.3 3.7-8.3 8.3s3.7 8.3 8.3 8.3c3.5 0 6.5-2.2 7.7-5.3h16v-5.9h-4.1l-1.8-1.8-1.8 1.8h-2.3l-3-3-3 2.9c-1.2-3.1-4.2-5.3-7.7-5.3zM14.9 13.4l0.3 0.8h1.2l2.5-2.5 2.4 2.4h3.4l1.3-1.3 1.3 1.3h3.4v3.6h-15.5l-0.3 0.8c-1.1 2.8-3.7 4.6-6.6 4.6-3.9 0-7.1-3.2-7.1-7.1s3.2-7.1 7.1-7.1c3 0 5.6 1.8 6.6 4.5z"></path>
</svg>
