<?xml version="1.0" encoding="utf-8"?>
<!-- Generated by IcoMoon.io -->
<!DOCTYPE svg PUBLIC "-//W3C//DTD SVG 1.1//EN" "http://www.w3.org/Graphics/SVG/1.1/DTD/svg11.dtd">
<svg version="1.1" xmlns="http://www.w3.org/2000/svg" xmlns:xlink="http://www.w3.org/1999/xlink" width="46" height="32" viewBox="0 0 46 32">
<path fill="#000" d="M6.756 15.137h6.756v1.725h-6.756v-1.725z"></path>
<path fill="#000" d="M11.931 4.069c-6.613 0-11.931 5.319-11.931 11.931s5.319 11.931 11.931 11.931c5.031 0 9.344-3.163 11.069-7.619h23v-8.481h-5.894l-2.588-2.588-2.588 2.588h-3.306l-4.313-4.313-4.313 4.169c-1.725-4.456-6.038-7.619-11.069-7.619zM21.419 12.262l0.431 1.15h1.725l3.594-3.594 3.45 3.45h4.888l1.869-1.869 1.869 1.869h4.888v5.175h-22.282l-0.431 1.15c-1.581 4.025-5.319 6.613-9.488 6.613-5.606 0-10.206-4.6-10.206-10.206s4.6-10.206 10.206-10.206c4.313 0 8.050 2.588 9.488 6.469z"></path>
</svg>
