<svg xmlns="http://www.w3.org/2000/svg" width="27" height="32" viewBox="0 0 27 32"><path opacity=".3" d="M1.143 0v32"/><path d="M2.286 0v32"/><path opacity=".3" d="M3.429 0v32"/><path d="M4.571 0v32"/><path opacity=".3" d="M5.714 0v32"/><path d="M6.857 0v32"/><path opacity=".3" d="M8 0v32"/><path d="M9.143 0v32"/><path opacity=".3" d="M10.286 0v32"/><path d="M11.429 0v32"/><path opacity=".3" d="M12.571 0v32"/><path d="M13.714 0v32"/><path opacity=".3" d="M14.857 0v32"/><path d="M16 0v32"/><path opacity=".3" d="M17.143 0v32"/><path d="M18.286 0v32"/><path opacity=".3" d="M19.429 0v32"/><path d="M20.571 0v32"/><path opacity=".3" d="M21.714 0v32"/><path d="M22.857 0v32"/><path opacity=".3" d="M24 0v32"/><path d="M25.143 0v32"/><path opacity=".3" d="M26.286 0v32M0 1.143h27.429"/><path d="M0 2.286h27.429"/><path opacity=".3" d="M0 3.429h27.429"/><path d="M0 4.571h27.429"/><path opacity=".3" d="M0 5.714h27.429"/><path d="M0 6.857h27.429"/><path opacity=".3" d="M0 8h27.429"/><path d="M0 9.143h27.429"/><path opacity=".3" d="M0 10.286h27.429"/><path d="M0 11.429h27.429"/><path opacity=".3" d="M0 12.571h27.429"/><path d="M0 13.714h27.429"/><path opacity=".3" d="M0 14.857h27.429"/><path d="M0 16h27.429"/><path opacity=".3" d="M0 17.143h27.429"/><path d="M0 18.286h27.429"/><path opacity=".3" d="M0 19.429h27.429"/><path d="M0 20.571h27.429"/><path opacity=".3" d="M0 21.714h27.429"/><path d="M0 22.857h27.429"/><path opacity=".3" d="M0 24h27.429"/><path d="M0 25.143h27.429"/><path opacity=".3" d="M0 26.286h27.429"/><path d="M0 27.429h27.429"/><path opacity=".3" d="M0 28.571h27.429"/><path d="M0 29.714h27.429"/><path opacity=".3" d="M0 30.857h27.429"/><path d="M27.429 16q0 3.732-1.839 6.884t-4.991 4.991-6.884 1.839q-1.982 0-3.893-.571 1.054-1.661 1.393-2.929.161-.607.964-3.768.357.696 1.304 1.205t2.036.509q2.161 0 3.857-1.223t2.625-3.366.929-4.821q0-2.036-1.063-3.821t-3.08-2.911-4.554-1.125q-1.875 0-3.5.518T7.974 8.786t-1.946 1.973-1.196 2.313-.384 2.393q0 1.857.714 3.268t2.089 1.982q.536.214.679-.357.036-.125.143-.554t.143-.536q.107-.411-.196-.768-.911-1.089-.911-2.696 0-2.696 1.866-4.634t4.884-1.938q2.696 0 4.205 1.464t1.509 3.804q0 3.036-1.223 5.161t-3.134 2.125q-1.089 0-1.75-.777t-.411-1.866q.143-.625.473-1.67t.536-1.839.205-1.348q0-.893-.482-1.482t-1.375-.589q-1.107 0-1.875 1.018t-.768 2.536q0 1.304.446 2.179l-1.768 7.464q-.304 1.25-.232 3.161-3.679-1.625-5.946-5.018T.001 16.001q0-3.732 1.839-6.884t4.991-4.991 6.884-1.839 6.884 1.839 4.991 4.991 1.839 6.884z"/></svg>