<?xml version="1.0" encoding="utf-8"?>
<!-- Generated by IcoMoon.io -->
<!DOCTYPE svg PUBLIC "-//W3C//DTD SVG 1.1//EN" "http://www.w3.org/Graphics/SVG/1.1/DTD/svg11.dtd">
<svg version="1.1" xmlns="http://www.w3.org/2000/svg" xmlns:xlink="http://www.w3.org/1999/xlink" width="29" height="32" viewBox="0 0 29 32">
<path fill="#000" d="M4.285 23.297c-1.473 0-2.678 1.205-2.678 2.678s1.205 2.678 2.678 2.678 2.678-1.205 2.678-2.678-1.205-2.678-2.678-2.678zM4.285 27.582c-0.87 0-1.607-0.736-1.607-1.607s0.736-1.607 1.607-1.607c0.87 0 1.607 0.736 1.607 1.607s-0.736 1.607-1.607 1.607z"></path>
<path fill="#000" d="M29.456 19.013c0-1.339-0.736-1.941-1.473-2.276 0.536-0.469 0.937-1.205 0.937-2.008 0-1.473-1.205-2.678-2.678-2.678h-7.699l0.402-1.808c0.536-2.41 0.201-5.222 0.067-6.025-0.268-1.874-1.941-3.95-3.749-3.95h-0.134c-0.87 0-2.276 0.469-2.276 3.749 0 4.285-1.071 6.293-1.941 7.163-0.937 0.87-1.741 0.87-1.808 0.87h-0.536v-1.071h-8.569v20.351h8.569v-1.071h14.996c1.473 0 2.678-1.205 2.678-2.678 0-0.602-0.201-1.205-0.602-1.674 1.272-0.268 2.209-1.339 2.209-2.611 0-0.602-0.201-1.205-0.602-1.674 1.272-0.201 2.209-1.272 2.209-2.611zM1.071 12.050h6.427v18.209h-6.427v-18.209zM26.778 20.619h-5.891c-0.268 0-0.536 0.268-0.536 0.536s0.268 0.536 0.536 0.536h4.285c0.87 0 1.607 0.736 1.607 1.607s-0.736 1.607-1.607 1.607h-5.356c-0.268 0-0.536 0.268-0.536 0.536s0.268 0.536 0.536 0.536h3.749c0.87 0 1.607 0.736 1.607 1.607s-0.736 1.607-1.607 1.607h-14.996v-16.067h0.536c0.067 0 1.272 0 2.477-1.138 1.54-1.473 2.343-4.151 2.343-7.967 0-1.004 0.134-2.678 1.205-2.678h0.134c1.205 0 2.477 1.674 2.678 3.013 0.134 0.736 0.402 3.347-0.067 5.623l-0.669 3.146h9.038c0.87 0 1.607 0.736 1.607 1.607s-0.736 1.607-1.607 1.607h-5.356c-0.268 0-0.536 0.268-0.536 0.536s0.268 0.536 0.536 0.536h3.749c0.469 0 1.54 0 2.075 0.134 1.406 0.201 1.674 0.736 1.674 1.473 0 0.87-0.736 1.607-1.607 1.607z"></path>
</svg>
