<?xml version="1.0" encoding="utf-8"?>
<!-- Generated by IcoMoon.io -->
<!DOCTYPE svg PUBLIC "-//W3C//DTD SVG 1.1//EN" "http://www.w3.org/Graphics/SVG/1.1/DTD/svg11.dtd">
<svg version="1.1" xmlns="http://www.w3.org/2000/svg" xmlns:xlink="http://www.w3.org/1999/xlink" width="32" height="32" viewBox="0 0 32 32">
<path fill="#000" d="M16 0c-8.8 0-16 7.2-16 16s7.2 16 16 16 16-7.2 16-16-7.2-16-16-16zM16 30.7c-8.1 0-14.7-6.6-14.7-14.7s6.6-14.7 14.7-14.7 14.7 6.6 14.7 14.7-6.6 14.7-14.7 14.7z"></path>
<path fill="#000" d="M15.9 7.6c-3.3 0-5.1 2-5.1 5.2h1.4c-0.1-2.3 1.2-4 3.6-4 1.7 0 3.2 1.2 3.2 3 0 1.2-0.6 2.1-1.5 2.9-1.7 1.6-2.2 2.3-2.2 4.5h1.4c0.1-2 0.1-1.9 1.7-3.6 1.2-1.1 1.9-2.2 1.9-3.8 0.2-2.6-1.9-4.2-4.4-4.2z"></path>
<path fill="#000" d="M17.3 23c0 0.718-0.582 1.3-1.3 1.3s-1.3-0.582-1.3-1.3c0-0.718 0.582-1.3 1.3-1.3s1.3 0.582 1.3 1.3z"></path>
</svg>
