<svg xmlns="http://www.w3.org/2000/svg" width="32" height="32" viewBox="0 0 32 32"><path d="M20 .005c-6.627 0-12 5.373-12 12 0 2.026.507 3.933 1.395 5.608l-8.344 8.342.007.006A3.506 3.506 0 0 0 0 28.475v.003a3.529 3.529 0 0 0 3.529 3.529c.985 0 1.874-.406 2.515-1.059l-.002-.002 8.341-8.34c1.676.891 3.586 1.4 5.617 1.4 6.627 0 12-5.373 12-12s-5.373-12-12-12zM4.795 29.697a1.742 1.742 0 0 1-1.266.543h-.001c-.974 0-1.764-.79-1.764-1.764 0-.498.21-.943.543-1.266l-.009-.008 8.066-8.066a12.221 12.221 0 0 0 2.463 2.476l-8.032 8.085zM20 22.006c-5.522 0-10-4.479-10-10s4.478-10 10-10c5.521 0 10 4.478 10 10s-4.479 10-10 10zm0-17.001a.5.5 0 0 1 0 1 6 6 0 0 0-6 6 .5.5 0 0 1-1 0 7 7 0 0 1 7-7z"/></svg>