<?xml version="1.0" encoding="utf-8"?>
<!-- Generated by IcoMoon.io -->
<!DOCTYPE svg PUBLIC "-//W3C//DTD SVG 1.1//EN" "http://www.w3.org/Graphics/SVG/1.1/DTD/svg11.dtd">
<svg version="1.1" xmlns="http://www.w3.org/2000/svg" xmlns:xlink="http://www.w3.org/1999/xlink" width="32" height="32" viewBox="0 0 32 32">
<path fill="#000" d="M31.391 13.883l-5-8c-0.719-1.136-1.968-1.879-3.391-1.88h-19c-2.209 0-4 1.791-4 4v16c0 2.209 1.791 4 4 4h19c1.379 0 2.66-0.711 3.391-1.881l5-8c0.382-0.601 0.609-1.334 0.609-2.119s-0.227-1.518-0.619-2.136zM29.695 17.062l-5 8.002c-0.357 0.567-0.98 0.939-1.689 0.939h-19.007c-1.103 0-2-0.898-2-2v-16c0-1.103 0.897-2 2-2h19.005c0.71 0 1.333 0.372 1.685 0.931l5.005 8.008c0.19 0.301 0.302 0.667 0.302 1.060s-0.113 0.759-0.307 1.068zM23 13.003l-0.078-0.001c-1.657 0-3 1.343-3 3s1.343 3 3 3l0.080-0.001c1.624-0.043 2.924-1.369 2.924-2.999s-1.299-2.955-2.918-2.999zM23 18.004c-0.013 0-0.029 0-0.045 0-1.105 0-2-0.895-2-2s0.895-2 2-2c0.016 0 0.031 0 0.047 0.001 1.083 0.025 1.953 0.91 1.953 1.999s-0.87 1.974-1.952 1.999z"></path>
</svg>
