<svg xmlns="http://www.w3.org/2000/svg" width="32" height="32" viewBox="0 0 32 32"><path d="M31.391 13.883l-5-8A4.002 4.002 0 0 0 23 4.003H4a4 4 0 0 0-4 4v16a4 4 0 0 0 4 4h19c1.379 0 2.66-.711 3.391-1.881l5-8c.382-.601.609-1.334.609-2.119s-.227-1.518-.619-2.136zm-1.696 3.179l-5 8.002a1.99 1.99 0 0 1-1.689.939H3.999c-1.103 0-2-.898-2-2v-16c0-1.103.897-2 2-2h19.005c.71 0 1.333.372 1.685.931l5.005 8.008c.19.301.302.667.302 1.06s-.113.759-.307 1.068zM23 13.003l-.078-.001a3 3 0 1 0 0 6l.08-.001a3 3 0 0 0 .002-5.998zm0 5.001a2 2 0 1 1-.001-3.999A2 2 0 0 1 23 18.004z"/></svg>