<svg xmlns="http://www.w3.org/2000/svg" width="29" height="32" viewBox="0 0 29 32"><path d="M25.563 7.356l1.103-1.103 1.103 1.103 1.379-1.379-3.126-3.126-1.379 1.379 1.103 1.103-1.103 1.103c-2.391-2.207-5.517-3.586-9.011-3.862V-.001h-1.839v2.575C6.161 3.034 0 9.471 0 17.287 0 25.379 6.621 32 14.713 32s14.713-6.621 14.713-14.713c0-3.862-1.471-7.356-3.862-9.931zm-10.85 23.357c-7.448 0-13.425-6.069-13.425-13.425 0-7.448 5.977-13.425 13.425-13.425s13.425 6.069 13.425 13.425c0 7.356-5.977 13.425-13.425 13.425z"/><path d="M13.517 15.724l5.977 5.977.92-.92-5.977-5.977c.368-.736.184-1.563-.368-2.207-.552-.552-1.471-.736-2.207-.368l-1.931-1.931-.92.92 1.931 1.931c-.368.736-.184 1.563.368 2.207.644.552 1.471.644 2.207.368z"/></svg>