<?xml version="1.0" encoding="utf-8"?>
<!-- Generated by IcoMoon.io -->
<!DOCTYPE svg PUBLIC "-//W3C//DTD SVG 1.1//EN" "http://www.w3.org/Graphics/SVG/1.1/DTD/svg11.dtd">
<svg version="1.1" xmlns="http://www.w3.org/2000/svg" xmlns:xlink="http://www.w3.org/1999/xlink" width="29" height="32" viewBox="0 0 29 32">
<path fill="#000" d="M25.563 7.356l1.103-1.103 1.103 1.103 1.379-1.379-3.126-3.126-1.379 1.379 1.103 1.103-1.103 1.103c-2.391-2.207-5.517-3.586-9.011-3.862v-2.575h-1.839v2.575c-7.632 0.46-13.793 6.897-13.793 14.713 0 8.092 6.621 14.713 14.713 14.713s14.713-6.621 14.713-14.713c0-3.862-1.471-7.356-3.862-9.931zM14.713 30.713c-7.448 0-13.425-6.069-13.425-13.425 0-7.448 5.977-13.425 13.425-13.425s13.425 6.069 13.425 13.425c0 7.356-5.977 13.425-13.425 13.425z"></path>
<path fill="#000" d="M13.517 15.724l5.977 5.977 0.92-0.92-5.977-5.977c0.368-0.736 0.184-1.563-0.368-2.207-0.552-0.552-1.471-0.736-2.207-0.368l-1.931-1.931-0.92 0.92 1.931 1.931c-0.368 0.736-0.184 1.563 0.368 2.207 0.644 0.552 1.471 0.644 2.207 0.368z"></path>
</svg>
