<svg xmlns="http://www.w3.org/2000/svg" width="32" height="32" viewBox="0 0 32 32"><path d="M16 0C7.1 0 0 7.1 0 16s7.1 16 16 16 16-7.1 16-16S24.9 0 16 0zm11.3 25.3c-1.5-.6-4.9-1.8-7.1-2.5-.2-.1-.2-.1-.2-.8 0-.6.3-1.3.5-1.8.3-.6.6-1.5.7-2.4.3-.4.7-1.1 1.1-2.5.3-1.3.1-1.7 0-2.1 0-.1-.1-.1-.1-.1-.1-.3 0-1.8.3-3 .1-.8-.1-2.5-1.1-3.9-.7-.9-2.1-2-4.5-2.1h-1.3c-2.4.1-3.7 1.3-4.5 2.1C10 7.6 9.8 9.3 10 10.1c.2 1.2.3 2.7.3 3 0 .1 0 .1-.1.1-.1.4-.3.9 0 2.1.3 1.4.7 2.1 1.1 2.5.1.9.5 1.9.7 2.4.2.4.3 1 .3 1.8 0 .7 0 .8-.2.8-2.2.7-5.7 1.9-7.1 2.5-2.3-2.5-3.6-5.7-3.6-9.3C1.4 7.9 8 1.3 16.1 1.3S30.8 7.9 30.8 16c-.1 3.5-1.4 6.8-3.5 9.3z"/></svg>