<?xml version="1.0" encoding="utf-8"?>
<!-- Generated by IcoMoon.io -->
<!DOCTYPE svg PUBLIC "-//W3C//DTD SVG 1.1//EN" "http://www.w3.org/Graphics/SVG/1.1/DTD/svg11.dtd">
<svg version="1.1" xmlns="http://www.w3.org/2000/svg" xmlns:xlink="http://www.w3.org/1999/xlink" width="32" height="32" viewBox="0 0 32 32">
<path fill="#000" d="M0 22.8v2.4c0 0.3 0.2 0.9 0.9 0.9h8.6v1.2c0 0.4 0.2 1.1 1.1 1.1h20.3c0.9 0 1.1-0.7 1.1-1.1v-3c0-0.6-0.2-1.4-1.1-1.7-1.2-0.5-4.3-1.6-6.3-2.2-0.2 0-0.2-0.1-0.2-0.7 0-0.7 0.1-1.2 0.3-1.6 0.2-0.5 0.5-1.4 0.6-2.2 0.3-0.3 0.7-1 0.9-2.3 0.2-1.1 0.1-1.5 0-1.9v-0.1c-0.1-0.3 0-1.6 0.2-2.7 0.1-0.7 0-2.2-1-3.5-0.6-0.8-1.8-1.8-4-1.9h-1.2c-2.2 0.1-3.4 1.1-4 1.9-1 1.3-1.2 2.8-1 3.5 0.2 1 0.3 2.4 0.2 2.7v0.1c-0.1 0.4-0.3 0.8 0 1.9 0.3 1.3 0.6 1.9 0.9 2.3 0.1 0.8 0.4 1.6 0.6 2.2 0.2 0.5 0.5 1 0.5 1.6 0 0.7 0 0.7-0.2 0.7-0.4 0.1-0.9 0.3-1.3 0.4-1.1-0.4-2.6-0.9-3.6-1.2-0.1 0-0.1 0-0.1-0.6s0.1-1 0.2-1.3c0.2-0.4 0.4-1.1 0.5-1.7 0.2-0.3 0.6-0.8 0.8-1.8 0.2-0.9 0.1-1.2 0-1.5v-0.1c0-0.2 0-1.3 0.2-2.1 0.1-0.6 0-1.8-0.8-2.8-0.5-0.6-1.5-1.4-3.2-1.5h-1c-2-0.1-3 0.6-3.5 1.3-0.8 1-0.9 2.3-0.8 2.8 0.2 0.8 0.2 1.9 0.2 2.1v0.1c-0.1 0.3-0.2 0.6 0 1.5 0.2 1 0.5 1.6 0.8 1.8 0.1 0.6 0.3 1.3 0.5 1.7s0.4 0.8 0.4 1.3 0 0.6-0.2 0.6c-1.5 0.5-4 1.3-5.1 1.8-0.8 0.4-1.2 1.1-1.2 1.6zM10.7 24.4c0-0.2 0.2-0.5 0.6-0.7 1.2-0.5 4.3-1.6 6.2-2.1 1-0.3 1-1.2 1-1.9 0-0.8-0.3-1.5-0.6-2.1-0.2-0.4-0.4-1.2-0.5-1.8v-0.4l-0.2-0.3c-0.1-0.1-0.4-0.6-0.7-1.7-0.2-0.9-0.1-1.1 0-1.2 0-0.1 0-0.1 0.1-0.2 0.1-0.6 0-2.2-0.2-3.1-0.1-0.4 0-1.6 0.8-2.6 0.7-0.9 1.7-1.4 3.1-1.5h1.1c1.6 0 2.6 0.8 3 1.4 0.8 1 0.9 2.2 0.8 2.6-0.2 0.9-0.3 2.6-0.2 3.1 0 0.1 0.1 0.2 0.1 0.3 0.1 0.2 0.1 0.4 0 1.2-0.2 1.1-0.5 1.6-0.7 1.7l-0.2 0.3v0.4c-0.1 0.7-0.3 1.4-0.5 1.8-0.3 0.5-0.4 1.2-0.4 2.1 0 0.7 0 1.5 1 1.9 1.9 0.6 5 1.7 6.1 2.2 0.3 0.1 0.4 0.3 0.4 0.7v2.9h-20.1v-3zM1.2 22.8s0.1-0.3 0.4-0.4c1-0.4 3.5-1.3 4.9-1.7 1-0.3 1-1.2 1-1.7 0-0.7-0.2-1.3-0.5-1.8-0.2-0.3-0.3-0.9-0.4-1.4v-0.4l-0.2-0.3c-0.1-0.1-0.3-0.4-0.5-1.3-0.1-0.6-0.1-0.8 0-0.9 0-0.1 0-0.1 0.1-0.2 0.1-0.5-0.1-2-0.2-2.6-0.1-0.3 0-1.1 0.5-1.9 0.5-0.7 1.3-1 2.3-1.1h0.9c1.3 0.1 2 0.6 2.3 1.1 0.6 0.7 0.6 1.6 0.6 1.9-0.1 0.7-0.3 2.1-0.2 2.6 0 0.1 0 0.2 0.1 0.2 0 0.1 0.1 0.2 0 0.9-0.2 0.9-0.4 1.2-0.5 1.3l-0.2 0.3v0.4c-0.1 0.5-0.3 1.1-0.4 1.4-0.2 0.5-0.3 1-0.3 1.8 0 0.5 0 1.4 1 1.7 0.6 0.2 1.4 0.4 2.1 0.7-1.2 0.4-2.4 0.9-3.1 1.1-0.9 0.4-1.4 1.2-1.4 1.8v0.5h-8.3v-2z"></path>
</svg>
