<?xml version="1.0" encoding="utf-8"?>
<!-- Generated by IcoMoon.io -->
<!DOCTYPE svg PUBLIC "-//W3C//DTD SVG 1.1//EN" "http://www.w3.org/Graphics/SVG/1.1/DTD/svg11.dtd">
<svg version="1.1" xmlns="http://www.w3.org/2000/svg" xmlns:xlink="http://www.w3.org/1999/xlink" width="32" height="32" viewBox="0 0 32 32">
<path fill="#000" d="M16 0c-8.9 0-16 7.1-16 16s7.1 16 16 16 16-7.1 16-16-7.1-16-16-16zM27.3 25.3c-1.5-0.6-4.9-1.8-7.1-2.5-0.2-0.1-0.2-0.1-0.2-0.8 0-0.6 0.3-1.3 0.5-1.8 0.3-0.6 0.6-1.5 0.7-2.4 0.3-0.4 0.7-1.1 1.1-2.5 0.3-1.3 0.1-1.7 0-2.1 0-0.1-0.1-0.1-0.1-0.1-0.1-0.3 0-1.8 0.3-3 0.1-0.8-0.1-2.5-1.1-3.9-0.7-0.9-2.1-2-4.5-2.1h-1.3c-2.4 0.1-3.7 1.3-4.5 2.1-1.1 1.4-1.3 3.1-1.1 3.9 0.2 1.2 0.3 2.7 0.3 3 0 0.1 0 0.1-0.1 0.1-0.1 0.4-0.3 0.9 0 2.1 0.3 1.4 0.7 2.1 1.1 2.5 0.1 0.9 0.5 1.9 0.7 2.4 0.2 0.4 0.3 1 0.3 1.8 0 0.7 0 0.8-0.2 0.8-2.2 0.7-5.7 1.9-7.1 2.5-2.3-2.5-3.6-5.7-3.6-9.3 0-8.1 6.6-14.7 14.7-14.7s14.7 6.6 14.7 14.7c-0.1 3.5-1.4 6.8-3.5 9.3z"></path>
</svg>
