<svg xmlns="http://www.w3.org/2000/svg" width="32" height="32" viewBox="0 0 32 32"><path d="M0 22.8v2.4c0 .3.2.9.9.9h8.6v1.2c0 .4.2 1.1 1.1 1.1h20.3c.9 0 1.1-.7 1.1-1.1v-3c0-.6-.2-1.4-1.1-1.7-1.2-.5-4.3-1.6-6.3-2.2-.2 0-.2-.1-.2-.7 0-.7.1-1.2.3-1.6.2-.5.5-1.4.6-2.2.3-.3.7-1 .9-2.3.2-1.1.1-1.5 0-1.9v-.1c-.1-.3 0-1.6.2-2.7.1-.7 0-2.2-1-3.5-.6-.8-1.8-1.8-4-1.9h-1.2c-2.2.1-3.4 1.1-4 1.9-1 1.3-1.2 2.8-1 3.5.2 1 .3 2.4.2 2.7v.1c-.1.4-.3.8 0 1.9.3 1.3.6 1.9.9 2.3.1.8.4 1.6.6 2.2.2.5.5 1 .5 1.6 0 .7 0 .7-.2.7-.4.1-.9.3-1.3.4-1.1-.4-2.6-.9-3.6-1.2-.1 0-.1 0-.1-.6s.1-1 .2-1.3c.2-.4.4-1.1.5-1.7.2-.3.6-.8.8-1.8.2-.9.1-1.2 0-1.5v-.1c0-.2 0-1.3.2-2.1.1-.6 0-1.8-.8-2.8-.5-.6-1.5-1.4-3.2-1.5h-1c-2-.1-3 .6-3.5 1.3-.8 1-.9 2.3-.8 2.8.2.8.2 1.9.2 2.1v.1c-.1.3-.2.6 0 1.5.2 1 .5 1.6.8 1.8.1.6.3 1.3.5 1.7s.4.8.4 1.3 0 .6-.2.6c-1.5.5-4 1.3-5.1 1.8-.8.4-1.2 1.1-1.2 1.6zm10.7 1.6c0-.2.2-.5.6-.7 1.2-.5 4.3-1.6 6.2-2.1 1-.3 1-1.2 1-1.9 0-.8-.3-1.5-.6-2.1-.2-.4-.4-1.2-.5-1.8v-.4l-.2-.3c-.1-.1-.4-.6-.7-1.7-.2-.9-.1-1.1 0-1.2 0-.1 0-.1.1-.2.1-.6 0-2.2-.2-3.1-.1-.4 0-1.6.8-2.6.7-.9 1.7-1.4 3.1-1.5h1.1c1.6 0 2.6.8 3 1.4.8 1 .9 2.2.8 2.6-.2.9-.3 2.6-.2 3.1 0 .1.1.2.1.3.1.2.1.4 0 1.2-.2 1.1-.5 1.6-.7 1.7l-.2.3v.4c-.1.7-.3 1.4-.5 1.8-.3.5-.4 1.2-.4 2.1 0 .7 0 1.5 1 1.9 1.9.6 5 1.7 6.1 2.2.3.1.4.3.4.7v2.9H10.7v-3zm-9.5-1.6s.1-.3.4-.4c1-.4 3.5-1.3 4.9-1.7 1-.3 1-1.2 1-1.7 0-.7-.2-1.3-.5-1.8-.2-.3-.3-.9-.4-1.4v-.4l-.2-.3c-.1-.1-.3-.4-.5-1.3-.1-.6-.1-.8 0-.9 0-.1 0-.1.1-.2.1-.5-.1-2-.2-2.6-.1-.3 0-1.1.5-1.9.5-.7 1.3-1 2.3-1.1h.9c1.3.1 2 .6 2.3 1.1.6.7.6 1.6.6 1.9-.1.7-.3 2.1-.2 2.6 0 .1 0 .2.1.2 0 .1.1.2 0 .9-.2.9-.4 1.2-.5 1.3l-.2.3v.4c-.1.5-.3 1.1-.4 1.4-.2.5-.3 1-.3 1.8 0 .5 0 1.4 1 1.7.6.2 1.4.4 2.1.7-1.2.4-2.4.9-3.1 1.1-.9.4-1.4 1.2-1.4 1.8v.5H1.2v-2z"/></svg>