<svg xmlns="http://www.w3.org/2000/svg" width="32" height="32" viewBox="0 0 32 32"><path d="M22.857 16q0-.661-.536-.964l-9.143-5.714q-.554-.357-1.161-.036-.589.321-.589 1v11.429q0 .679.589 1 .286.143.554.143.357 0 .607-.179l9.143-5.714q.536-.304.536-.964zM32 16q0 1.714-.018 2.679t-.152 2.438-.402 2.634q-.286 1.304-1.232 2.196t-2.214 1.036q-3.964.446-11.982.446t-11.982-.446q-1.268-.143-2.223-1.036T.554 23.751Q.304 22.59.17 21.117t-.152-2.438T0 16t.018-2.679.152-2.438.402-2.634q.286-1.304 1.232-2.196t2.214-1.036Q7.982 4.571 16 4.571t11.982.446q1.268.143 2.223 1.036t1.241 2.196q.25 1.161.384 2.634t.152 2.438T32 16z"/></svg>