<svg xmlns="http://www.w3.org/2000/svg" width="1024" height="1024" viewBox="0 0 1024 1024"><path d="M764.8 387.2L457.6 694.4c-3.2 3.2-9.6 6.4-12.8 6.4-6.4 0-9.6-3.2-12.8-6.4L259.2 521.6c-3.2-3.2-6.4-9.6-6.4-12.8s3.2-9.6 6.4-12.8l28.8-28.8c3.2-3.2 6.4-6.4 12.8-6.4s9.6 3.2 12.8 6.4l131.2 131.2 265.6-265.6c3.2-3.2 9.6-6.4 12.8-6.4s9.6 3.2 12.8 6.4l28.8 28.8c3.2 3.2 6.4 6.4 6.4 12.8-3.2 3.2-3.2 9.6-6.4 12.8z"/><path d="M512 1024C230.4 1024 0 793.6 0 512S230.4 0 512 0s512 230.4 512 512-230.4 512-512 512zm0-963.2C262.4 60.8 60.8 262.4 60.8 512S262.4 963.2 512 963.2 963.2 761.6 963.2 512 761.6 60.8 512 60.8z"/></svg>