<svg xmlns="http://www.w3.org/2000/svg" viewBox="0 0 55.2 55.3"><path d="M52.6 2.6c-3.5-3.5-9.2-3.5-12.7 0L3.8 38.7v.1s0 .1-.1.1c-.1.1-.1.2-.1.2v.1L0 54v.2c0 .1 0 .2.1.3v.1c0 .1.1.2.2.3.1.1.2.2.3.2.1 0 .2.1.4.1h.2l14.9-3.5h.2c.1 0 .1-.1.2-.1l.1-.1 36.1-36.1c3.4-3.5 3.4-9.3-.1-12.8M51.2 4c2.5 2.5 2.7 6.4.7 9.1l-9.8-9.8c2.7-2 6.6-1.7 9.1.7m-4.9 14.9L36.4 9l1.4-1.4 9.9 9.9-1.4 1.4zM5 50.3c-.4-.4-1-.4-1.4 0l-.8.7 2.6-10.7 4.4-.5-.6 5.1v.5c0 .1.1.1.1.2l.1.1c0 .1.1.1.2.1l.1.1c.1 0 .1 0 .2.1h.3l5.1-.6-.5 4.4-10.6 2.7.8-.8c.4-.4.4-1 0-1.4m12.5-5.5l22.4-22.4c.4-.4.4-1 0-1.4s-1-.4-1.4 0L16.1 43.4l-4.8.5.5-4.8 22.4-22.4c.4-.4.4-1 0-1.4-.4-.4-1-.4-1.4 0L10.4 37.7l-3.2.4 27.7-27.7 9.9 9.9L17.2 48l.3-3.2zm31.6-28.7l-9.9-9.9 1.4-1.4 9.9 9.9-1.4 1.4z"/></svg>