<svg xmlns="http://www.w3.org/2000/svg" viewBox="0 0 100 100"><path fill="#3C3C3B" d="M83.7 57.6L57.8 73.1l-.9-13.3 17.5-18.6-18 13.8-.7-11.3L66 27.6 55.3 37.7 52.8 3.6v92.9h6.6l-1.2-16.3z"/><path fill="#048A81" d="M79.7 49.5L59.6 67l19.2-7z"/><path fill="#38BBB0" d="M79.7 49.5L78.8 60 90 67zm-8.6-6.2l-.1-8.8 7.9 13.7z"/><path fill="#048A81" d="M57.6 48.2l13.5-4.9-.1-8.8z"/><path fill="#006F67" d="M59.6 67H90l-11.2-7zm-2-18.8h21.3l-7.8-4.9z"/><path fill="#38BBB0" d="M52.8 3.6l9.4 24.9 8.1 4.9z"/><path fill="#048A81" d="M52.8 33.4V3.6l9.4 24.9z"/><path fill="#006F67" d="M52.8 33.4h17.5l-8.1-4.9z"/><path fill="#222" d="M52.8 96.5v-93l-2.3 33.3-10.8-7.5 10.6 10.6-.6 8.6-16.7-9 16.4 13.4-.8 11.7-23.4-12.3s18 14 23 18.3l-.7 10.8-31.9-12s24 14.3 31.3 19l-.6 8.1h6.5z"/><path fill="#048A81" d="M10 77l9.3-16 2.2 10.2zm18-30.8l1 8.5-8.7 4.7z"/><path fill="#03B7AA" d="M28 46.2l18.8 13.2L29 54.7zm6.9-11.7l13.5 10.1-17-.1zM19.3 61l2.2 10.2L44.8 77z"/><path fill="#006F67" d="M28.9 44.6h19.5l-12.8-3.7zm-8.6 14.8h26.5L29 54.7zM10 77h34.8l-23.3-5.8z"/><path fill="#048A81" d="M34.9 34.5l.7 6.4-6.7 3.7zM52.8 3.6l-9.2 24.9-8.2 4.9z"/><path fill="#38BBB0" d="M52.8 33.4V3.6l-9.2 24.9z"/><path fill="#006F67" d="M52.8 33.4H35.4l8.2-4.9z"/></svg>