<?xml version="1.0" encoding="utf-8"?>
<!-- Generator: Adobe Illustrator 18.1.1, SVG Export Plug-In . SVG Version: 6.00 Build 0)  -->
<svg version="1.1" id="Calque_1" xmlns="http://www.w3.org/2000/svg" xmlns:xlink="http://www.w3.org/1999/xlink" x="0px" y="0px"
	 viewBox="0 0 100 100" enable-background="new 0 0 100 100" xml:space="preserve">
<path d="M68.9,41.2h-8.7c-0.4,0-0.8,0.4-0.8,0.8c0,0.4,0.4,0.8,0.8,0.8h7.3l2.3,21.6H29.3L32,42.8h7.3c0.4,0,0.8-0.4,0.8-0.8
	c0-0.4-0.4-0.8-0.8-0.8h-8.7L27.5,66h44L68.9,41.2z"/>
<path d="M41.8,31.8c0.6-4.5,3.2-6.6,7.9-6.6c4.7,0,7.3,2.2,7.9,6.6c0.2,1.6,0.1,3.2-0.2,5c-1.8,8.6-6.1,14.1-7.6,15.7
	c-1.5-1.7-5.8-7.1-7.6-15.7C41.7,35.1,41.6,33.4,41.8,31.8z M48.8,54c-0.1,0.1-0.2,0.1-0.4,0.2c-0.2,0.1-0.3,0.2-0.5,0.4
	c-0.4,0.3-0.4,0.8-0.2,1.1c0.2,0.2,0.4,0.3,0.6,0.3c0.2,0,0.3-0.1,0.5-0.2c0.1-0.1,0.3-0.2,0.4-0.3c0.3-0.2,0.5-0.3,0.8-0.5
	c0.4-0.2,0.5-0.6,0.4-1c0,0,0,0,0,0c1.4-1.5,6.3-7.3,8.3-16.8c0.4-1.9,0.5-3.8,0.3-5.5c-0.7-5.3-4-8-9.4-8c-5.5,0-8.8,2.8-9.4,8
	c-0.2,1.7-0.1,3.6,0.3,5.5C42.5,46.6,47.3,52.4,48.8,54z"/>
<path d="M49.7,28.6c2.4,0,4.3,1.9,4.3,4.3c0,2.4-1.9,4.3-4.3,4.3c-2.4,0-4.3-1.9-4.3-4.3C45.4,30.5,47.3,28.6,49.7,28.6z M49.7,38.7
	c3.2,0,5.9-2.6,5.9-5.9S52.9,27,49.7,27c-3.2,0-5.9,2.6-5.9,5.9S46.5,38.7,49.7,38.7z"/>
<path d="M52.6,52.5c-0.4,0.1-0.7,0.5-0.6,0.9c0.1,0.4,0.4,0.6,0.8,0.6c0.1,0,0.1,0,0.2,0c0.5-0.1,1-0.2,1.5-0.2
	c0.4-0.1,0.8-0.5,0.7-0.9c-0.1-0.4-0.5-0.8-0.9-0.7C53.7,52.3,53.2,52.4,52.6,52.5z"/>
<path d="M56.8,52.8c0,0.4,0.4,0.8,0.8,0.8c0,0,0,0,0,0l1.6-0.1c0.4,0,0.8-0.4,0.8-0.8c0-0.4-0.4-0.8-0.8-0.8L57.5,52
	C57.1,52,56.8,52.4,56.8,52.8z"/>
<path d="M45.4,56.5c-0.4,0.3-0.8,0.6-1.3,0.9c-0.4,0.2-0.5,0.7-0.2,1.1c0.2,0.2,0.4,0.4,0.7,0.4c0.1,0,0.3,0,0.4-0.1
	c0.5-0.3,0.9-0.6,1.4-0.9c0.4-0.3,0.4-0.8,0.2-1.1C46.3,56.3,45.8,56.3,45.4,56.5z"/>
<path d="M63.3,51.3c-0.3,0.2-0.6,0.3-1.1,0.4c-0.4,0.1-0.7,0.5-0.6,0.9c0.1,0.4,0.4,0.6,0.8,0.6c0.1,0,0.1,0,0.2,0
	c0.7-0.1,1.2-0.4,1.7-0.7l0.1-0.1c0.4-0.3,0.4-0.8,0.2-1.1C64.2,51,63.7,50.9,63.3,51.3L63.3,51.3z"/>
<path d="M34.6,57.5c0.1-0.4-0.1-0.9-0.6-1c-0.4-0.1-0.9,0.1-1,0.6c-0.1,0.4-0.2,0.8-0.2,1.1c0,0.1,0,0.2,0,0.3c0,0.2,0,0.3,0,0.5
	c0,0.4,0.4,0.7,0.8,0.7c0,0,0.1,0,0.1,0c0.4,0,0.8-0.4,0.7-0.9c0-0.1,0-0.2,0-0.3c0-0.1,0-0.1,0-0.2C34.5,58,34.5,57.8,34.6,57.5z"
	/>
<path d="M63.3,45c-0.6-0.1-1.3,0-1.9,0.1c-0.4,0.1-0.7,0.6-0.6,1c0.1,0.4,0.4,0.6,0.8,0.6c0.1,0,0.1,0,0.2,0
	c0.4-0.1,0.8-0.2,1.3-0.1c0.4,0.1,0.8-0.2,0.9-0.7C64,45.5,63.7,45.1,63.3,45z"/>
<path d="M64.9,49c-0.1,0.4,0.1,0.9,0.5,1c0.1,0,0.2,0,0.2,0c0.3,0,0.7-0.2,0.8-0.6c0.1-0.3,0.1-0.5,0.1-0.8c0-0.1,0-0.1,0-0.2
	c0-0.4-0.1-0.8-0.2-1.1c-0.2-0.4-0.6-0.6-1-0.5c-0.4,0.2-0.6,0.6-0.5,1c0.1,0.2,0.1,0.4,0.1,0.6v0.1C64.9,48.7,64.9,48.9,64.9,49z"
	/>
<path d="M41.5,58.9c-0.5,0.2-0.9,0.4-1.4,0.6c-0.4,0.2-0.6,0.6-0.5,1c0.1,0.3,0.4,0.5,0.7,0.5c0.1,0,0.2,0,0.3-0.1
	c0.5-0.2,1-0.4,1.5-0.7c0.4-0.2,0.6-0.7,0.4-1.1C42.4,58.9,41.9,58.7,41.5,58.9z"/>
<path d="M35.7,55.6c0.1,0,0.3,0,0.4-0.1c0.2-0.1,0.5-0.2,0.7-0.2c0.1,0,0.2,0,0.3,0c0.4,0.1,0.8-0.2,0.9-0.7
	c0.1-0.4-0.3-0.8-0.7-0.9c-0.2,0-0.5,0-0.7,0c-0.5,0.1-0.9,0.2-1.3,0.4c-0.4,0.2-0.5,0.7-0.3,1.1C35.1,55.4,35.4,55.6,35.7,55.6z"/>
<path d="M35.5,61.9c0.2,0,0.3,0.1,0.5,0.1c0.2,0,0.4,0,0.6,0c0.2,0,0.5,0,0.8,0c0.4-0.1,0.7-0.5,0.7-0.9c-0.1-0.4-0.5-0.7-0.9-0.7
	c-0.3,0-0.6,0.1-1,0c-0.1,0-0.2,0-0.3-0.1c-0.4-0.1-0.9,0.1-1,0.6C34.8,61.3,35.1,61.8,35.5,61.9z"/>
</svg>
