<?xml version="1.0" encoding="utf-8"?>
<!-- Generator: Adobe Illustrator 18.1.1, SVG Export Plug-In . SVG Version: 6.00 Build 0)  -->
<svg version="1.1" id="Calque_3" xmlns="http://www.w3.org/2000/svg" xmlns:xlink="http://www.w3.org/1999/xlink" x="0px" y="0px"
	 viewBox="0 0 100 100" enable-background="new 0 0 100 100" xml:space="preserve">
<path d="M49,71.4c-12.4,0-22.4-10-22.4-22.4s10-22.4,22.4-22.4s22.4,10,22.4,22.4S61.4,71.4,49,71.4z M49,25c-13.2,0-24,10.8-24,24
	s10.8,24,24,24s24-10.8,24-24S62.2,25,49,25z"/>
<path d="M49,50.5c-0.9,0-1.6-0.7-1.6-1.6c0-0.9,0.7-1.6,1.6-1.6s1.6,0.7,1.6,1.6C50.6,49.8,49.9,50.5,49,50.5z M49.8,45.8v-8.1
	c0-0.4-0.4-0.8-0.8-0.8s-0.8,0.4-0.8,0.8v8.1c-1.1,0.3-2,1.2-2.3,2.3h-5.7c-0.4,0-0.8,0.4-0.8,0.8c0,0.4,0.4,0.8,0.8,0.8h5.7
	c0.4,1.4,1.6,2.4,3.1,2.4c1.8,0,3.2-1.4,3.2-3.2C52.2,47.4,51.2,46.2,49.8,45.8z"/>
<path d="M49,32.9c0.4,0,0.8-0.4,0.8-0.8v-0.8c0-0.4-0.4-0.8-0.8-0.8s-0.8,0.4-0.8,0.8v0.8C48.2,32.5,48.6,32.9,49,32.9z"/>
<path d="M49,64.9c-0.4,0-0.8,0.4-0.8,0.8v0.8c0,0.4,0.4,0.8,0.8,0.8s0.8-0.4,0.8-0.8v-0.8C49.8,65.3,49.4,64.9,49,64.9z"/>
<path d="M66.6,48.1h-0.8c-0.4,0-0.8,0.4-0.8,0.8c0,0.4,0.4,0.8,0.8,0.8h0.8c0.4,0,0.8-0.4,0.8-0.8C67.4,48.5,67,48.1,66.6,48.1z"/>
<path d="M32.2,48.1h-0.8c-0.4,0-0.8,0.4-0.8,0.8c0,0.4,0.4,0.8,0.8,0.8h0.8c0.4,0,0.8-0.4,0.8-0.8C33,48.5,32.6,48.1,32.2,48.1z"/>
<path d="M60.9,35.9l-0.6,0.6c-0.3,0.3-0.3,0.8,0,1.1c0.2,0.2,0.4,0.2,0.6,0.2c0.2,0,0.4-0.1,0.6-0.2L62,37c0.3-0.3,0.3-0.8,0-1.1
	C61.7,35.6,61.2,35.6,60.9,35.9z"/>
<path d="M36.6,60.2L36,60.8c-0.3,0.3-0.3,0.8,0,1.1c0.2,0.2,0.4,0.2,0.6,0.2c0.2,0,0.4-0.1,0.6-0.2l0.6-0.6c0.3-0.3,0.3-0.8,0-1.1
	C37.4,59.9,36.9,59.9,36.6,60.2z"/>
<path d="M61.4,60.2c-0.3-0.3-0.8-0.3-1.1,0c-0.3,0.3-0.3,0.8,0,1.1l0.6,0.6c0.2,0.2,0.4,0.2,0.6,0.2c0.2,0,0.4-0.1,0.6-0.2
	c0.3-0.3,0.3-0.8,0-1.1L61.4,60.2z"/>
<path d="M37.1,35.9c-0.3-0.3-0.8-0.3-1.1,0c-0.3,0.3-0.3,0.8,0,1.1l0.6,0.6c0.2,0.2,0.4,0.2,0.6,0.2c0.2,0,0.4-0.1,0.6-0.2
	c0.3-0.3,0.3-0.8,0-1.1L37.1,35.9z"/>
</svg>
