<?xml version="1.0" encoding="utf-8"?>
<!-- Generator: Adobe Illustrator 18.1.1, SVG Export Plug-In . SVG Version: 6.00 Build 0)  -->
<svg version="1.1" id="Calque_2" xmlns="http://www.w3.org/2000/svg" xmlns:xlink="http://www.w3.org/1999/xlink" x="0px" y="0px"
	 viewBox="0 0 100 100" enable-background="new 0 0 100 100" xml:space="preserve">
<path d="M59.1,71.4H38.9c-1.1,0-1.9-0.9-1.9-1.9v-6.1h24v6.1C61,70.5,60.1,71.4,59.1,71.4z M38.9,26.6h20.2c1.1,0,1.9,0.9,1.9,1.9
	v1.3H37v-1.3C37,27.5,37.9,26.6,38.9,26.6z M37,31.4h24v30.4H37V31.4z M59.1,25H38.9c-1.9,0-3.5,1.6-3.5,3.5v41
	c0,1.9,1.6,3.5,3.5,3.5h20.2c1.9,0,3.5-1.6,3.5-3.5v-41C62.6,26.6,61,25,59.1,25z"/>
<path d="M49,69c-0.9,0-1.6-0.7-1.6-1.6c0-0.9,0.7-1.6,1.6-1.6s1.6,0.7,1.6,1.6C50.6,68.3,49.9,69,49,69z M49,64.2
	c-1.8,0-3.2,1.4-3.2,3.2c0,1.8,1.4,3.2,3.2,3.2s3.2-1.4,3.2-3.2C52.2,65.6,50.8,64.2,49,64.2z"/>
<path d="M45.8,29H49c0.4,0,0.8-0.4,0.8-0.8c0-0.4-0.4-0.8-0.8-0.8h-3.2c-0.4,0-0.8,0.4-0.8,0.8C45,28.6,45.4,29,45.8,29z"/>
<path d="M51.4,29h0.8c0.4,0,0.8-0.4,0.8-0.8c0-0.4-0.4-0.8-0.8-0.8h-0.8c-0.4,0-0.8,0.4-0.8,0.8C50.6,28.6,51,29,51.4,29z"/>
<path d="M70.3,28.7c-0.3-0.3-0.8-0.3-1.1,0c-0.3,0.3-0.3,0.8,0,1.1c3,3,3,7.9,0,10.8c-0.3,0.3-0.3,0.8,0,1.1
	c0.2,0.2,0.4,0.2,0.6,0.2c0.2,0,0.4-0.1,0.6-0.2C73.9,38.1,73.9,32.3,70.3,28.7z"/>
<path d="M66.9,30.5c-0.3-0.3-0.8-0.3-1.1,0c-0.3,0.3-0.3,0.8,0,1.1c1,1,1.5,2.3,1.5,3.7c0,1.4-0.5,2.7-1.5,3.7
	c-0.3,0.3-0.3,0.8,0,1.1c0.2,0.2,0.4,0.2,0.6,0.2c0.2,0,0.4-0.1,0.6-0.2c1.3-1.3,2-3,2-4.8C68.9,33.5,68.2,31.8,66.9,30.5z"/>
<path d="M28.8,29.8c0.3-0.3,0.3-0.8,0-1.1c-0.3-0.3-0.8-0.3-1.1,0c-3.6,3.6-3.6,9.5,0,13.1c0.2,0.2,0.4,0.2,0.6,0.2
	c0.2,0,0.4-0.1,0.6-0.2c0.3-0.3,0.3-0.8,0-1.1C25.9,37.6,25.9,32.8,28.8,29.8z"/>
<path d="M32.2,30.3c-0.3-0.3-0.8-0.3-1.1,0c-1.3,1.3-2,3-2,4.8c0,1.8,0.7,3.5,2,4.8c0.2,0.2,0.4,0.2,0.6,0.2c0.2,0,0.4-0.1,0.6-0.2
	c0.3-0.3,0.3-0.8,0-1.1c-1-1-1.5-2.3-1.5-3.7c0-1.4,0.5-2.7,1.5-3.7C32.5,31.1,32.5,30.6,32.2,30.3z"/>
</svg>
