<?xml version="1.0" encoding="utf-8"?>
<!-- Generator: Adobe Illustrator 18.1.1, SVG Export Plug-In . SVG Version: 6.00 Build 0)  -->
<svg version="1.1" id="Calque_1" xmlns="http://www.w3.org/2000/svg" xmlns:xlink="http://www.w3.org/1999/xlink" x="0px" y="0px"
	 viewBox="0 0 100 100" enable-background="new 0 0 100 100" xml:space="preserve">
<circle opacity="0.1" fill="#2B4D7E" cx="50" cy="50" r="50"/>
<circle opacity="0.4" fill="#2B4D7E" cx="50" cy="50" r="45"/>
<circle fill="#2B4D7E" cx="50" cy="50" r="40"/>
<g id="neuf" display="none">
	<path display="inline" fill="#FFFFFF" d="M64.2,41h-6.7c-0.5,0-0.8,0.4-0.8,0.8v7.5c0,0.5,0.4,0.8,0.8,0.8h6.7
		c0.5,0,0.8-0.4,0.8-0.8v-7.5C65,41.4,64.6,41,64.2,41 M63.3,48.5h-5v-5.8h5V48.5z"/>
	<path display="inline" fill="#FFFFFF" d="M74.6,37.8L48.8,21.1c-0.3-0.2-0.6-0.2-0.9,0c-0.3,0.1-0.4,0.4-0.4,0.7V26
		c0,0.3,0.1,0.5,0.4,0.7l1.3,0.8v13.7l-23.7,9.8c-0.3,0.1-0.5,0.4-0.5,0.8v18.3c0,0.5,0.4,0.8,0.8,0.8H30h15.8H50h6.7H65h6.7
		c0.5,0,0.8-0.4,0.8-0.8V42.6l1.2,0.8c0.1,0.1,0.3,0.1,0.5,0.1c0.1,0,0.3,0,0.4-0.1c0.3-0.1,0.4-0.4,0.4-0.7v-4.2
		C75,38.2,74.9,38,74.6,37.8 M45,69.3H30.8v-1.7H45V69.3z M45,66H30.8v-1.7H45V66z M45,62.7H30.8V61H45V62.7z M45,59.3H30.8v-1.7H45
		V59.3z M45,56H30.8v-1.7H45V56z M49.2,69.3h-2.5v-1.7V66v-1.7v-1.7V61v-1.7v-1.7V56v-2.5c0-0.5-0.4-0.8-0.8-0.8H30
		c-0.5,0-0.8,0.4-0.8,0.8V56v1.7v1.7V61v1.7v1.7V66v1.7v1.7h-2.5V52.4l22.5-9.3V69.3z M64.2,69.3h-6.7V57.7h6.7V69.3z M70.8,69.3h-5
		V56.8c0-0.5-0.4-0.8-0.8-0.8h-8.3c-0.5,0-0.8,0.4-0.8,0.8v12.5h-5V41.8V28.6l20,12.9V69.3z M73.3,41.1L49.2,25.5v-2.2L73.3,39V41.1
		z"/>
</g>
<g id="renovation">
	<path fill="#FFFFFF" d="M31.8,72c-0.1,0.1-0.6,0.5-1,0.5c-0.4,0-0.9-0.4-1-0.6l-0.8-0.8c-0.1-0.1-0.5-0.6-0.5-1
		c0-0.4,0.4-0.9,0.6-1l15.9-15.9L43.7,52L27.8,67.9c-0.1,0.1-1.1,1-1.1,2.2c0,1.2,1,2.1,1,2.2l0.8,0.8c0.1,0.1,1,1.1,2.2,1.1
		c1.2,0,2.1-1,2.2-1L49.1,57l-1.2-1.1L31.8,72z"/>
	<path fill="#FFFFFF" d="M52.6,45.3c0.3-0.3,0.3-0.8,0-1.1c-0.3-0.3-0.8-0.3-1.1,0l-2.7,2.7l1.1,1.2L52.6,45.3z"/>
	<path fill="#FFFFFF" d="M69.6,41.1l-8.2-8.2c-0.6-0.6-1.5-0.6-2.2-0.1l-1.7,0.8L56.9,33l0.9-1.8c0.5-1.1,0.1-1.8-0.3-2.2l-2.7-2.7
		c-0.3-0.3-0.7-0.5-1.1-0.5h0c-0.4,0-0.8,0.2-1.1,0.5l-6.8,6.8c-0.3,0.3-0.5,0.7-0.5,1.1c0,0.4,0.2,0.8,0.5,1.1l2.8,2.8
		c0.3,0.3,1,0.8,2.1,0.2l1.8-0.9l0.7,0.7l-0.8,1.7c-0.2,0.3-0.4,0.6-0.4,1c0,0.4,0.2,0.8,0.5,1.1l3.3,3.3c0.3,0.3,0.8,0.3,1.1,0
		c0.3-0.3,0.3-0.8,0-1.1l-3.3-3.3c0.1-0.1,0.1-0.1,0.2-0.2l1.1-2.3c0.2-0.3,0.1-0.7-0.2-0.9L53.1,36c-0.2-0.2-0.6-0.3-0.9-0.2
		L49.9,37c-0.2,0.1-0.3,0.1-0.3,0.1l-2.8-2.8l6.8-6.8l2.8,2.8c0,0,0,0.1-0.1,0.3l-1.1,2.3c-0.2,0.3-0.1,0.7,0.2,0.9l1.5,1.5
		c0.2,0.2,0.6,0.3,0.9,0.2l2.3-1.1c0.1,0,0.1-0.1,0.2-0.2l8.2,8.2c0,0,4.9,4.1,4.9,8.5c0,1.8,0,3-0.6,4.8c-2.1-6.7-6-9.3-6.2-9.5
		c-0.2-0.1-0.5-0.2-0.8-0.1l-4.8,2.1c-0.2,0.1-0.4,0.1-0.4,0.1l-2-2c-0.2-0.2-0.3-0.3-0.6-0.2c-0.2,0-0.4,0.1-0.6,0.2l-4.9,4.9
		l1.1,1.2l4.3-4.3l1.4,1.4c0.5,0.5,1.3,0.6,2.2,0.2l4.3-1.9c1.1,0.9,4.4,4,5.8,10.5c0.1,0.3,0.3,0.6,0.7,0.6c0.3,0,0.7-0.1,0.8-0.4
		C75,55,75,53.2,75,50.8C75,45.7,69.8,41.3,69.6,41.1"/>
	<polygon fill="#FFFFFF" points="44.9,53.1 47.9,55.9 48.8,54.9 45.9,52.1 	"/>
	<path fill="#FFFFFF" d="M69.3,71.2c0.3,0.3,0.3,0.9,0,1.2c-0.1,0.1-0.1,0.1-0.2,0.1l-0.8,0.6L50,56L49.1,57l18,16.6
		c0.9,0.8,2.3,0.8,3.2-0.1c0.9-0.9,0.9-2.3,0.1-3.2l-16.6-18l-1,1L69.3,71.2z"/>
	<path fill="#FFFFFF" d="M43.8,50.2L47,47l0.8,0.9l1-1l-0.9-1c0-0.1,0.1-0.3,0.1-0.4c0-0.4-0.2-0.8-0.4-1l-1.7-1.7
		c0-0.1,0.1-0.2,0.1-0.2c0.2-2.3-0.5-4.5-2.1-6.1l-8-8c-0.1-0.1-0.3-0.2-0.5-0.2c-0.2,0-0.4,0.1-0.5,0.2L25.2,38
		c-0.1,0.1-0.2,0.3-0.2,0.5s0.1,0.4,0.2,0.5l8,8c1.6,1.6,3.8,2.4,6.1,2.1c0.1,0,0.2,0,0.2-0.1l1.7,1.7c0.4,0.4,1,0.5,1.5,0.4l1,1
		l1-1L43.8,50.2z M39.1,47.6C39.1,47.6,39.1,47.6,39.1,47.6C39.1,47.6,39.1,47.6,39.1,47.6l-0.2,0.2c-1.8,0.1-3.5-0.5-4.7-1.8
		l-7.5-7.5l0.6-0.6l4.8,4.8c0.3,0.3,0.7,0.3,1,0c0.3-0.3,0.3-0.7,0-1l-4.8-4.8l0.6-0.6l8,8c0.3,0.3,0.7,0.3,1,0c0.3-0.3,0.3-0.7,0-1
		l-8-8l0.6-0.6l2.2,2.2c0.3,0.3,0.7,0.3,1,0c0.3-0.3,0.3-0.7,0-1l-2.2-2.2l0.6-0.6L38,39c0.3,0.3,0.7,0.3,1,0c0.3-0.3,0.3-0.7,0-1
		l-5.9-5.9l0.6-0.6l2.7,2.7c0.3,0.3,0.7,0.3,1,0c0.3-0.3,0.3-0.7,0-1l-2.7-2.7l0.6-0.6l7.5,7.5c1.2,1.2,1.9,2.9,1.8,4.7L39.1,47.6z
		 M42.3,49.7C42.2,49.7,42.2,49.7,42.3,49.7l-1.7-1.6l4.3-4.3l1.6,1.6c0,0,0,0,0,0.1L42.3,49.7z"/>
	<polygon fill="#FFFFFF" points="51.7,52.1 52.7,51.1 49.9,48.1 48.9,49.1 	"/>
	<polygon fill="#FFFFFF" points="48.8,54.9 47.9,55.9 49.1,57 50,56 	"/>
	<polygon fill="#FFFFFF" points="45.9,52.1 44.7,51 43.7,52 44.9,53.1 	"/>
	<polygon fill="#FFFFFF" points="51.7,52.1 52.8,53.3 53.8,52.3 52.7,51.1 	"/>
	<polygon fill="#FFFFFF" points="48.9,49.1 49.9,48.1 48.8,46.9 47.8,47.9 	"/>
	<polygon fill="#FFFFFF" points="43.8,50.2 44.7,51 44.7,51 	"/>
	<polygon fill="#FFFFFF" points="44.7,51 44.7,51 45.9,52.1 45.9,52.1 	"/>
	<path fill="#FFFFFF" d="M39,34.8c-0.3-0.3-0.7-0.3-1,0c-0.1,0.1-0.2,0.3-0.2,0.5c0,0.2,0.1,0.4,0.2,0.5l0.5,0.5
		c0.3,0.3,0.7,0.3,1,0c0.3-0.3,0.3-0.7,0-1L39,34.8z"/>
	<path fill="#FFFFFF" d="M35.8,38c-0.3-0.3-0.7-0.3-1,0c-0.1,0.1-0.2,0.3-0.2,0.5c0,0.2,0.1,0.4,0.2,0.5l1.1,1.1
		c0.3,0.3,0.7,0.3,1,0c0.3-0.3,0.3-0.7,0-1L35.8,38z"/>
	<path fill="#FFFFFF" d="M39,41.2c-0.3-0.3-0.7-0.3-1,0c-0.1,0.1-0.2,0.3-0.2,0.5c0,0.2,0.1,0.4,0.2,0.5l0.5,0.5
		c0.3,0.3,0.7,0.3,1,0c0.3-0.3,0.3-0.7,0-1L39,41.2z"/>
</g>
<g id="agencement-interieur" display="none">
	<path display="inline" fill="#FFFFFF" d="M40.2,43.5c0.2,0.2,0.4,0.2,0.6,0.2c0.2,0,0.4-0.1,0.6-0.2l0.8-0.8
		c0.4,0.2,0.8,0.3,1.1,0.3s0.8-0.1,1.1-0.3l0.8,0.8c0.2,0.2,0.4,0.2,0.6,0.2s0.4-0.1,0.6-0.2c0.3-0.3,0.3-0.9,0-1.2l-0.8-0.8
		c0.4-0.7,0.4-1.6,0-2.3l0.8-0.8c0.3-0.3,0.3-0.9,0-1.2c-0.3-0.3-0.9-0.3-1.2,0l-0.8,0.8c-0.7-0.4-1.6-0.4-2.3,0l-0.8-0.8
		c-0.3-0.3-0.9-0.3-1.2,0c-0.3,0.3-0.3,0.9,0,1.2l0.8,0.8c-0.4,0.7-0.4,1.6,0,2.3l-0.8,0.8C39.9,42.7,39.9,43.2,40.2,43.5 M44,39.8
		c0.4,0.4,0.4,1,0,1.3c-0.4,0.4-1,0.4-1.3,0c-0.4-0.4-0.4-1,0-1.3c0.2-0.2,0.4-0.3,0.7-0.3C43.6,39.5,43.8,39.6,44,39.8"/>
	<path display="inline" fill="#FFFFFF" d="M53.6,43.5c0.2,0.2,0.4,0.2,0.6,0.2c0.2,0,0.4-0.1,0.6-0.2l0.8-0.8
		c0.4,0.2,0.8,0.3,1.1,0.3s0.8-0.1,1.1-0.3l0.8,0.8c0.2,0.2,0.4,0.2,0.6,0.2s0.4-0.1,0.6-0.2c0.3-0.3,0.3-0.9,0-1.2L59,41.6
		c0.4-0.7,0.4-1.6,0-2.3l0.8-0.8c0.3-0.3,0.3-0.9,0-1.2c-0.3-0.3-0.9-0.3-1.2,0l-0.8,0.8c-0.7-0.4-1.6-0.4-2.3,0l-0.8-0.8
		c-0.3-0.3-0.9-0.3-1.2,0s-0.3,0.9,0,1.2l0.8,0.8c-0.4,0.7-0.4,1.6,0,2.3l-0.8,0.8C53.3,42.7,53.3,43.2,53.6,43.5 M57.3,39.8
		c0.4,0.4,0.4,1,0,1.3c-0.4,0.4-1,0.4-1.3,0c-0.4-0.4-0.4-1,0-1.3c0.2-0.2,0.4-0.3,0.7-0.3C56.9,39.5,57.1,39.6,57.3,39.8"/>
	<path display="inline" fill="#FFFFFF" d="M74.6,45.7c-0.5-0.7-1.2-1.1-2-1.1H70c0-10.1-8.2-18.3-18.3-18.3h-3.3
		c-9.8,0-17.9,7.8-18.3,17.5h-2.5c-0.9,0-1.6,0.4-2.1,1.1c-0.5,0.7-0.6,1.6-0.3,2.4l5.7,16.4c0.3,1.3,1.4,2.2,2.6,2.5l-0.7,7.6h3.8
		l1.7-7.5h23.7l1.7,7.5h3.8l-0.7-7.6c1.2-0.3,2.3-1.2,2.6-2.4L74.8,48C75.1,47.2,75,46.4,74.6,45.7 M48.3,27.9h3.3
		c9.2,0,16.7,7.5,16.7,16.7v0c0,0-0.1,0-0.1,0c-0.1,0-0.1,0-0.2,0c-0.1,0-0.2,0-0.3,0.1c-0.1,0-0.1,0-0.2,0.1
		c-0.1,0-0.2,0.1-0.2,0.1c-0.1,0-0.1,0.1-0.2,0.1c-0.1,0-0.2,0.1-0.2,0.1c-0.1,0-0.1,0.1-0.2,0.1c-0.1,0.1-0.1,0.1-0.2,0.2
		c0,0-0.1,0.1-0.1,0.1c-0.1,0.1-0.1,0.1-0.2,0.2c0,0.1-0.1,0.1-0.1,0.2c-0.1,0.1-0.1,0.2-0.2,0.3c0,0-0.1,0.1-0.1,0.1
		c-0.1,0.1-0.1,0.3-0.2,0.5l-1.6,7c0,0.1,0,0.1,0,0.2c-1-1.7-2.9-2.7-4.9-2.7H40.8c-1.9,0-3.7,1-4.8,2.5l-2-8.7L34,45
		c-0.8-1-1.5-1.2-2.1-1.2h-0.3C32.1,34.9,39.4,27.9,48.3,27.9 M38.6,56.2C38.5,56.2,38.5,56.2,38.6,56.2c-0.6-0.1-1.1-0.4-1.5-0.8
		c0.7-1.5,2.2-2.5,3.8-2.5h18.3c1.7,0,3.2,1.1,3.9,2.6c-0.6,0.4-1.2,0.7-2,0.7h-22C38.9,56.3,38.7,56.2,38.6,56.2 M35.2,72.1h-0.6
		l0.6-5.8h1.3L35.2,72.1z M64.8,72.1l-1.3-5.8h1.3l0.6,5.8H64.8z M73.3,47.4l-5.7,15.9c-0.2,0.8-0.9,1.3-1.7,1.3h-4.3H38.5h-4.3
		c-0.8,0-1.5-0.5-1.8-1.4l-5.7-16.5c-0.1-0.3-0.1-0.6,0.1-0.8c0.2-0.3,0.4-0.4,0.7-0.4H30h1.9c0.2,0,0.4,0.1,0.6,0.4l1.9,8.3
		c0.1,0.6,0.4,1.1,0.7,1.6l0,0l0.2,0.3c0.4,0.6,1,1,1.6,1.3c0.1,0,0.2,0.1,0.3,0.1c0.1,0.1,0.2,0.1,0.4,0.1c0.2,0.1,0.4,0.1,0.6,0.1
		c0.1,0,0.1,0,0.2,0c0.2,0,0.5,0.1,0.7,0.1h22c0.2,0,0.5,0,0.7-0.1c0.1,0,0.1,0,0.2,0c0.2,0,0.4-0.1,0.6-0.2c0.1,0,0.2-0.1,0.3-0.1
		c0.1,0,0.2-0.1,0.3-0.2c0.1-0.1,0.3-0.2,0.4-0.2c0.1-0.1,0.2-0.1,0.3-0.2c0.1-0.1,0.2-0.1,0.3-0.2c0.1-0.1,0.2-0.2,0.3-0.2
		c0.1-0.1,0.2-0.2,0.2-0.2l0.2-0.2l0,0c0.4-0.5,0.7-1.1,0.8-1.8l1.6-7c0.2-0.6,0.7-1,1.3-1H70h2.6c0.3,0,0.5,0.1,0.7,0.4
		C73.4,46.8,73.4,47.1,73.3,47.4"/>
</g>
<g id="agencement-exterieur" display="none">
	<path display="inline" fill="#FFFFFF" d="M75,64.4L63.3,29.9c-0.1-0.4-0.5-0.6-0.9-0.6s-0.7,0.3-0.9,0.6L56,46.3
		c-2.4-2.8-5.9-4.6-9.9-4.6c-7.1,0-12.9,5.8-12.9,12.9c0,6.8,5.3,12.4,12,12.8v7.4c0,0.5,0.4,0.9,0.9,0.9s0.9-0.4,0.9-0.9v-7.4
		c2.1-0.1,4-0.8,5.7-1.8h9v9.2c0,0.5,0.4,0.9,0.9,0.9s0.9-0.4,0.9-0.9v-9.2h10.4c0.3,0,0.6-0.1,0.7-0.4C75,65,75,64.7,75,64.4
		 M47.1,62.3l2.5-2.5c0.4-0.4,0.4-0.9,0-1.3s-0.9-0.4-1.3,0l-2.1,2.1l-2.1-2.1c-0.4-0.4-0.9-0.4-1.3,0c-0.4,0.4-0.4,0.9,0,1.3
		l2.5,2.5v3.3c-5.7-0.5-10.1-5.2-10.1-11c0-6.1,5-11,11-11c4,0,7.5,2.2,9.5,5.4c0.3,0.6,0.6,1.2,0.9,1.8c0,0.1,0.1,0.2,0.1,0.3
		c0.1,0.2,0.1,0.3,0.2,0.5c0.1,0.2,0.1,0.4,0.2,0.6c0,0.2,0.1,0.3,0.1,0.5c0,0.2,0.1,0.5,0.1,0.7c0,0.1,0,0.2,0,0.3c0,0.3,0,0.7,0,1
		c0,0.4,0,0.9-0.1,1.3c0,0.1,0,0.3-0.1,0.4c0,0.3-0.1,0.6-0.2,0.9c0,0.2-0.1,0.3-0.1,0.5c-0.1,0.3-0.2,0.5-0.3,0.8
		c-0.1,0.1-0.1,0.3-0.2,0.4c-0.2,0.4-0.3,0.7-0.5,1.1c-0.1,0.1-0.1,0.2-0.2,0.3c-0.2,0.3-0.3,0.5-0.5,0.7c-0.1,0.1-0.2,0.2-0.3,0.4
		c-0.2,0.2-0.4,0.5-0.6,0.7c-0.1,0.1-0.2,0.2-0.2,0.3c-0.6,0.6-1.3,1.2-2.1,1.7c-1.5,0.9-3.2,1.5-5,1.7L47.1,62.3L47.1,62.3z
		 M63.7,63.8v-1.5l2.5-2.5c0.4-0.4,0.4-0.9,0-1.3c-0.4-0.4-0.9-0.4-1.3,0l-2.1,2.1l-2.1-2.1c-0.4-0.4-0.9-0.4-1.3,0
		c-0.4,0.4-0.4,0.9,0,1.3l2.5,2.5v1.5h-6.6c0,0,0,0,0,0c0.2-0.2,0.3-0.3,0.5-0.5c0.1-0.2,0.3-0.3,0.4-0.5c0.1-0.1,0.1-0.1,0.2-0.2
		c1.5-1.9,2.5-4.2,2.7-6.6c0,0,0-0.1,0-0.1c0-0.4,0.1-0.9,0.1-1.3c0-0.4,0-0.8-0.1-1.1c0-0.1,0-0.2,0-0.3c0-0.3-0.1-0.7-0.2-1
		c0-0.1-0.1-0.2-0.1-0.4c-0.1-0.2-0.1-0.4-0.2-0.7c0-0.2-0.1-0.3-0.2-0.5c-0.1-0.2-0.1-0.4-0.2-0.6c-0.1-0.3-0.2-0.6-0.4-0.8
		c-0.1-0.1-0.1-0.3-0.2-0.4c-0.1-0.2-0.2-0.4-0.3-0.6c0,0,0,0,0-0.1l5.1-15.1l10.4,30.7L63.7,63.8L63.7,63.8z"/>
	<path display="inline" fill="#FFFFFF" d="M43.4,33.1c0-1.8-1.2-3.2-2.8-3.5c-0.4-3.9-3.1-5.3-5.7-5.3c-3.5,0-5.4,2.1-6.1,3.1
		c-2.2,0.3-3.8,2.3-3.8,4.7c0,2.6,2,4.7,4.4,4.7h10.7C41.9,36.7,43.4,35.1,43.4,33.1 M26.8,31.9c0-1.6,1.1-2.9,2.5-2.9
		c0.3,0,0.7-0.2,0.8-0.5c0.1-0.1,1.4-2.5,4.7-2.5c1.5,0,3.9,0.6,3.9,4.4c0,0.5,0.4,0.9,0.9,0.9h0.3c0.8,0,1.5,0.8,1.5,1.7
		c0,1-0.7,1.7-1.5,1.7H29.4C28,34.8,26.8,33.5,26.8,31.9"/>
</g>
</svg>
