<svg xmlns="http://www.w3.org/2000/svg" viewBox="0 0 60 39"><path d="M59.9 24.3l-2-7.8c-.2-.8-.8-1.3-1.6-1.4L52 12.4V5.2C52 2.4 49.6 0 46.8 0H34.3C32.5 0 31 .9 30 2.2 29 .9 27.5 0 25.8 0H13.3C10.4 0 8 2.4 8 5.3v7.2l-4.4 2.6c-.8.1-1.4.7-1.6 1.4l-2 7.8c-.1.5-.1 1 0 1.4l2 7.8c.3.9 1.1 1.5 2 1.5h2v4h2.4l4-4h35.2l4 4H54v-4h2c.9 0 1.7-.6 1.9-1.5l2-7.8c.1-.5.1-.9 0-1.4m-5.8-7.8l-1.6 6.3-1.1-1.4-1.2-1.5.3-1.1 1.2-4.1 2.6 1.6c-.1-.1-.2 0-.2.2M11.5 21h37l2.4 3H9.1l2.4-3zM34.3 2h12.5C48.5 2 50 3.5 50 5.3v7.6L48.2 19H31V5.3C31 3.4 32.5 2 34.3 2M10 5.3C10 3.5 11.5 2 13.3 2h12.5C27.5 2 29 3.4 29 5.2V19H11.8L10 12.9V5.3zm-1.6 9.2l1.5 5.2-2.4 3-1.6-6.3c0-.1-.1-.3-.1-.4l2.6-1.5zM4 33l-2-7.8v-.4L4 17l2 7.8V33H4zm4 3.6V35h1.6L8 36.6zm6.4-3.6H8v-7h44v7H14.4zM52 36.6L50.4 35H52v1.6zm6-11.4L56 33h-2v-8.2l2-7.8 2 7.8v.4"/></svg>