<svg xmlns="http://www.w3.org/2000/svg" viewBox="0 0 206.8 139.1"><path d="M166 53.6C164.1 23.7 138.6 0 107.5 0 82.8 0 61.1 14.8 52.6 37.2h-2.2C22.6 37.1 0 60 0 88.1s22.6 51 50.4 51h116.1c.3 0 .5 0 .8-.1 22.2-1.5 39.4-20.1 39.4-42.6.1-23.2-18.1-42-40.7-42.8m.4 78.3h-116c-23.9 0-43.3-19.7-43.3-43.8s19.4-43.8 43.3-43.8c1.4 0 2.9.1 4.3.2 1.7.2 3.2-.9 3.7-2.4 6.8-20.9 26.5-34.9 49-34.9 28.4 0 51.4 22.4 51.4 50.1 0 1 .4 1.9 1.1 2.6.7.7 1.7 1 2.6 1h1.8c19.4 0 35.1 16 35.1 35.6.3 18.8-14.3 34.4-33 35.4"/><path d="M103.4 107h7.1v7.1h-7.1zm3.7-67.8C93.3 39.2 82 50.5 82 64.3h7.1c0-9.9 8.1-18 18-18s18 8.1 18 18-8.1 18-18 18h-3.7v21.1h7.1V89.2c12.2-1.7 21.7-12.2 21.7-24.8 0-13.9-11.2-25.2-25.1-25.2"/></svg>