<?xml version="1.0" encoding="utf-8"?>
<!-- Generated by IcoMoon.io -->
<!DOCTYPE svg PUBLIC "-//W3C//DTD SVG 1.1//EN" "http://www.w3.org/Graphics/SVG/1.1/DTD/svg11.dtd">
<svg version="1.1" xmlns="http://www.w3.org/2000/svg" xmlns:xlink="http://www.w3.org/1999/xlink" width="1024" height="1024" viewBox="0 0 1024 1024">
<g id="icomoon-ignore">
</g>
<path fill="#000" d="M764.8 387.2l-307.2 307.2c-3.2 3.2-9.6 6.4-12.8 6.4-6.4 0-9.6-3.2-12.8-6.4l-172.8-172.8c-3.2-3.2-6.4-9.6-6.4-12.8s3.2-9.6 6.4-12.8l28.8-28.8c3.2-3.2 6.4-6.4 12.8-6.4s9.6 3.2 12.8 6.4l131.2 131.2 265.6-265.6c3.2-3.2 9.6-6.4 12.8-6.4s9.6 3.2 12.8 6.4l28.8 28.8c3.2 3.2 6.4 6.4 6.4 12.8-3.2 3.2-3.2 9.6-6.4 12.8z"></path>
<path fill="#000" d="M512 1024c-281.6 0-512-230.4-512-512s230.4-512 512-512c281.6 0 512 230.4 512 512s-230.4 512-512 512zM512 60.8c-249.6 0-451.2 201.6-451.2 451.2s201.6 451.2 451.2 451.2 451.2-201.6 451.2-451.2-201.6-451.2-451.2-451.2z"></path>
</svg>
