<?xml version="1.0" encoding="utf-8"?>
<!-- Generator: Adobe Illustrator 18.1.1, SVG Export Plug-In . SVG Version: 6.00 Build 0)  -->
<svg version="1.1" id="Calque_1" xmlns="http://www.w3.org/2000/svg" xmlns:xlink="http://www.w3.org/1999/xlink" x="0px" y="0px"
	 viewBox="0 0 100 100" enable-background="new 0 0 100 100" xml:space="preserve">
<g>
	<polygon fill="#3C3C3B" points="83.7,57.6 57.8,73.1 56.9,59.8 74.4,41.2 56.4,55 55.7,43.7 66,27.6 55.3,37.7 52.8,3.6 52.8,96.5 
		59.4,96.5 58.2,80.2 	"/>
	<polygon fill="#048A81" points="79.7,49.5 59.6,67 78.8,60 	"/>
	<polygon fill="#38BBB0" points="79.7,49.5 78.8,60 90,67 	"/>
	<polygon fill="#38BBB0" points="71.1,43.3 71,34.5 78.9,48.2 	"/>
	<polygon fill="#048A81" points="57.6,48.2 71.1,43.3 71,34.5 	"/>
	<polygon fill="#006F67" points="59.6,67 90,67 78.8,60 	"/>
	<polygon fill="#006F67" points="57.6,48.2 78.9,48.2 71.1,43.3 	"/>
	<polygon fill="#38BBB0" points="52.8,3.6 62.2,28.5 70.3,33.4 	"/>
	<polygon fill="#048A81" points="52.8,33.4 52.8,3.6 62.2,28.5 	"/>
	<polygon fill="#006F67" points="52.8,33.4 70.3,33.4 62.2,28.5 	"/>
	<g>
		<path fill="#222222" d="M52.8,96.5v-93l-2.3,33.3l-10.8-7.5l10.6,10.6l-0.6,8.6L33,39.5l16.4,13.4l-0.8,11.7L25.2,52.3
			c0,0,18,14,23,18.3l-0.7,10.8L15.6,69.4c0,0,24,14.3,31.3,19l-0.6,8.1H52.8z"/>
		<polygon fill="#048A81" points="10,77 19.3,61 21.5,71.2 		"/>
		<polygon fill="#048A81" points="28,46.2 29,54.7 20.3,59.4 		"/>
		<polygon fill="#03B7AA" points="28,46.2 46.8,59.4 29,54.7 		"/>
		<g>
			<polygon fill="#03B7AA" points="34.9,34.5 48.4,44.6 31.4,44.5 			"/>
		</g>
		<polygon fill="#03B7AA" points="19.3,61 21.5,71.2 44.8,77 		"/>
		<polygon fill="#006F67" points="28.9,44.6 48.4,44.6 35.6,40.9 		"/>
		<polygon fill="#006F67" points="20.3,59.4 46.8,59.4 29,54.7 		"/>
		<polygon fill="#006F67" points="10,77 44.8,77 21.5,71.2 		"/>
		<polygon fill="#048A81" points="34.9,34.5 35.6,40.9 28.9,44.6 		"/>
		<g>
			<polygon fill="#048A81" points="52.8,3.6 43.6,28.5 35.4,33.4 			"/>
			<polygon fill="#38BBB0" points="52.8,33.4 52.8,3.6 43.6,28.5 			"/>
			<polygon fill="#006F67" points="52.8,33.4 35.4,33.4 43.6,28.5 			"/>
		</g>
	</g>
</g>
</svg>
