<?xml version="1.0" encoding="utf-8"?>
<!-- Generator: Adobe Illustrator 18.1.1, SVG Export Plug-In . SVG Version: 6.00 Build 0)  -->
<svg version="1.1" id="Calque_1" xmlns="http://www.w3.org/2000/svg" xmlns:xlink="http://www.w3.org/1999/xlink" x="0px" y="0px"
	 viewBox="0 0 60 55" enable-background="new 0 0 60 55" xml:space="preserve">
<path d="M59,53V14H47v39h-3V22H32v31h-3V30H17v23h-3V39H2v14H1c-0.6,0-1,0.4-1,1s0.4,1,1,1h1h12h3h12h3h12h3h12c0.6,0,1-0.4,1-1
	S59.6,53,59,53 M4,41h8v12H4V41z M19,32h8v21h-8V32z M34,24h8v29h-8V24z M49,16h8v37h-8V16z"/>
<path d="M8,25.3c0.2,0,0.3,0,0.5-0.1L44.8,4.3l-2.3,5c-0.2,0.5,0,1.1,0.5,1.3c0.1,0.1,0.3,0.1,0.4,0.1c0.4,0,0.7-0.2,0.9-0.6
	l3.6-7.8c0,0,0-0.1,0-0.1c0-0.1,0-0.1,0-0.2c0,0,0-0.1,0-0.1c0,0,0,0,0,0c0,0,0-0.1,0-0.1c0-0.1,0-0.1,0-0.2c0,0,0-0.1,0-0.1
	c0,0,0-0.1,0-0.1c0,0,0,0,0-0.1c0,0,0,0-0.1-0.1c0,0,0-0.1-0.1-0.1c0,0-0.1-0.1-0.1-0.1c0,0-0.1-0.1-0.1-0.1c0,0-0.1,0-0.1-0.1
	c0,0,0,0,0,0c0,0-0.1,0-0.1,0c-0.1,0-0.1,0-0.2,0c0,0,0,0-0.1,0L38.5,0c-0.6-0.1-1,0.3-1.1,0.9c-0.1,0.5,0.3,1,0.9,1.1l5.5,0.5
	L7.5,23.5c-0.5,0.3-0.6,0.9-0.4,1.4C7.3,25.2,7.7,25.3,8,25.3"/>
</svg>
