<?xml version="1.0" encoding="utf-8"?>
<!-- Generator: Adobe Illustrator 18.1.1, SVG Export Plug-In . SVG Version: 6.00 Build 0)  -->
<svg version="1.1" id="Calque_1" xmlns="http://www.w3.org/2000/svg" xmlns:xlink="http://www.w3.org/1999/xlink" x="0px" y="0px"
	 viewBox="0 0 60 39" enable-background="new 0 0 60 39" xml:space="preserve">
<path d="M59.9,24.3l-2-7.8c-0.2-0.8-0.8-1.3-1.6-1.4L52,12.4l0-7.2C52,2.4,49.6,0,46.8,0H34.3C32.5,0,31,0.9,30,2.2
	C29,0.9,27.5,0,25.8,0H13.3C10.4,0,8,2.4,8,5.3v7.2l-4.4,2.6c-0.8,0.1-1.4,0.7-1.6,1.4l-2,7.8c-0.1,0.5-0.1,1,0,1.4l2,7.8
	C2.3,34.4,3.1,35,4,35c0,0,0.1,0,0.1,0H6v4h2.4l4-4h35.2l4,4H54v-4l1.9,0c0,0,0.1,0,0.1,0c0.9,0,1.7-0.6,1.9-1.5l2-7.8
	C60,25.2,60,24.8,59.9,24.3 M54.1,16.5l-1.6,6.3l-1.1-1.4l-1.2-1.5l0.3-1.1l1.2-4.1l2.6,1.6C54.2,16.2,54.1,16.3,54.1,16.5 M11.5,21
	H29h2h17.5l2.4,3H9.1L11.5,21z M34.3,2h12.5C48.5,2,50,3.5,50,5.3v7.6L48.2,19H31V5.3c0,0,0,0,0,0C31,3.4,32.5,2,34.3,2 M10,5.3
	C10,3.5,11.5,2,13.3,2h12.5C27.5,2,29,3.4,29,5.2c0,0,0,0,0,0V19H11.8L10,12.9L10,5.3L10,5.3z M8.4,14.5l1.5,5.2l-2.4,3l-1.6-6.3
	c0-0.1-0.1-0.3-0.1-0.4L8.4,14.5z M4,33l-2-7.8c0-0.1,0-0.3,0-0.4L4,17l2,7.8c0,0.1,0,0.1,0,0.2v8v0L4,33z M8,36.6V35h1.6L8,36.6z
	 M14.4,33H8v-7h44v7h-6.4H14.4z M52,36.6L50.4,35H52V36.6z M58,25.2l-2,7.8H54v-8c0-0.1,0-0.1,0-0.2l2-7.8h0l2,7.8
	C58,24.9,58,25.1,58,25.2"/>
</svg>
