<?xml version="1.0" encoding="utf-8"?>
<!-- Generator: Adobe Illustrator 18.1.1, SVG Export Plug-In . SVG Version: 6.00 Build 0)  -->
<svg version="1.1" id="Calque_1" xmlns="http://www.w3.org/2000/svg" xmlns:xlink="http://www.w3.org/1999/xlink" x="0px" y="0px"
	 viewBox="0 0 206.8 139.1" enable-background="new 0 0 206.8 139.1" xml:space="preserve">
<path d="M166,53.6C164.1,23.7,138.6,0,107.5,0C82.8,0,61.1,14.8,52.6,37.2c-0.7,0-1.4,0-2.2,0C22.6,37.1,0,60,0,88.1
	s22.6,51,50.4,51c0.5,0,1.1,0,1.6,0c0.1,0,0.3,0,0.4,0h114.1c0.3,0,0.5,0,0.8-0.1c22.2-1.5,39.4-20.1,39.4-42.6
	C206.8,73.2,188.6,54.4,166,53.6 M166.4,131.9c-0.1,0-0.3,0-0.4,0H53c-0.2,0-0.5,0-0.7,0c-0.6,0-1.3,0-1.9,0
	c-23.9,0-43.3-19.7-43.3-43.8s19.4-43.8,43.3-43.8c1.4,0,2.9,0.1,4.3,0.2c1.7,0.2,3.2-0.9,3.7-2.4c6.8-20.9,26.5-34.9,49-34.9
	c28.4,0,51.4,22.4,51.4,50.1c0,1,0.4,1.9,1.1,2.6c0.7,0.7,1.7,1,2.6,1c0.6,0,1.2,0,1.8,0c19.4,0,35.1,16,35.1,35.6
	C199.7,115.3,185.1,130.9,166.4,131.9"/>
<rect x="103.4" y="107" width="7.1" height="7.1"/>
<path d="M107.1,39.2C93.3,39.2,82,50.5,82,64.3h7.1c0-9.9,8.1-18,18-18s18,8.1,18,18s-8.1,18-18,18v0h-3.7v21.1h7.1V89.2
	c12.2-1.7,21.7-12.2,21.7-24.8C132.2,50.5,121,39.2,107.1,39.2"/>
</svg>
